<svg width="1024" height="224" viewBox="0 0 1024 224" fill="none" xmlns="http://www.w3.org/2000/svg">
<g clip-path="url(#clip0_1043_7296)">
<g clip-path="url(#clip1_1043_7296)">
<path d="M54.7898 55.454L53.3978 56.8503L21.509 88.8379L11.8917 98.485C11.385 99.2346 10.7408 99.8808 9.99354 100.389C8.56362 101.331 6.81939 101.665 5.14417 101.317C3.46895 100.97 1.99981 99.9693 1.0596 98.5358C0.350483 97.4694 -0.0200986 96.2126 -0.00336343 94.9308V64.5933C0.258783 57.4654 3.26719 50.7174 8.38877 45.7693C13.5104 40.8212 20.3457 38.059 27.4565 38.0638H54.7898L46.8176 46.1877L37.58 55.454H54.7898Z" fill="url(#paint0_linear_1043_7296)"/>
<path d="M185.507 72.9696V75.0005C185.047 92.2439 178.396 108.741 166.779 121.459L76.3002 212.217C71.2876 216.711 64.8009 219.197 58.078 219.199C56.2543 219.163 54.4357 218.994 52.6367 218.691L47.3219 217.041C41.638 215.061 36.0988 212.686 30.7447 209.933L29.6058 209.298C29.1169 208.931 28.7235 208.45 28.4591 207.898C28.1947 207.345 28.0672 206.737 28.0873 206.125C28.0745 205.26 28.3408 204.414 28.8466 203.713L130.334 101.784C130.827 101.246 131.252 100.649 131.6 100.007C132.231 98.7913 132.74 97.5156 133.118 96.1987C133.307 95.3631 133.434 94.5145 133.498 93.66C133.609 93.1175 133.652 92.5631 133.624 92.0098C133.624 87.4987 131.838 83.1723 128.658 79.9824C125.478 76.7926 121.165 75.0005 116.668 75.0005H79.5904L104.519 49.9943C105.267 49.486 105.911 48.8399 106.418 48.0903C107.089 47.0279 107.44 45.7938 107.43 44.5361C107.43 42.8192 106.75 41.1725 105.54 39.9585C104.329 38.7444 102.688 38.0624 100.976 38.0624H48.0811C48.0811 38.0624 53.1429 32.4772 55.1675 30.4463C59.7231 25.4958 65.291 19.149 71.3651 14.7063C83.6116 5.67068 98.428 0.820417 113.63 0.870377C122.633 0.881605 131.556 2.55989 139.951 5.82085L143.368 7.21714C149.445 10.0222 155.108 13.6527 160.198 18.0066L161.211 18.8952H161.337C168.932 25.6677 175.013 33.976 179.178 43.2739C183.344 52.5719 185.501 62.6489 185.507 72.8426V72.9696Z" fill="url(#paint1_linear_1043_7296)"/>
<path d="M112.24 38.0638H48.4619L18.7242 67.8936C18.1495 68.4867 17.7627 69.2371 17.6125 70.0504C17.4623 70.8636 17.5555 71.7032 17.8803 72.4634C18.2051 73.2236 18.747 73.8704 19.4376 74.3221C20.1283 74.7739 20.9368 75.0104 21.7613 75.002H90.8538L117.554 48.0917C118.321 47.0689 118.722 45.8169 118.693 44.5375C118.693 42.8206 118.013 41.174 116.803 39.9599C115.593 38.7459 113.951 38.0638 112.24 38.0638ZM85.6656 56.5964C84.5796 56.5969 83.5362 56.173 82.7566 55.4147C81.977 54.6564 81.5226 53.6233 81.4896 52.5345C81.5067 51.7717 81.725 51.0271 82.1224 50.3766C82.4438 49.8635 82.8764 49.4297 83.3878 49.1072C84.0286 48.6915 84.7759 48.4711 85.539 48.4725C86.613 48.4557 87.6496 48.8675 88.4209 49.6174C89.1922 50.3672 89.6349 51.3937 89.6517 52.471C89.6685 53.5483 89.2579 54.5881 88.5104 55.3618C87.7628 56.1355 86.7395 56.5796 85.6656 56.5964Z" fill="#E35CC7"/>
<path d="M56.6868 38.0638H47.9553L18.5973 67.3859C17.9648 68.0073 17.5325 68.8047 17.3562 69.675C17.1799 70.5453 17.2676 71.4487 17.6082 72.2685C17.9487 73.0883 18.5263 73.7869 19.2666 74.2741C20.0068 74.7614 20.8756 75.0149 21.7609 75.002H35.301L72.125 38.0638H56.6868Z" fill="#8961D0"/>
<path d="M85.5416 56.5985C87.778 56.5985 89.591 54.7799 89.591 52.5365C89.591 50.2932 87.778 48.4746 85.5416 48.4746C83.3052 48.4746 81.4922 50.2932 81.4922 52.5365C81.4922 54.7799 83.3052 56.5985 85.5416 56.5985Z" fill="#8961D0"/>
<path opacity="0.48" d="M85.5416 56.5985C87.778 56.5985 89.591 54.7799 89.591 52.5365C89.591 50.2932 87.778 48.4746 85.5416 48.4746C83.3052 48.4746 81.4922 50.2932 81.4922 52.5365C81.4922 54.7799 83.3052 56.5985 85.5416 56.5985Z" fill="url(#paint2_linear_1043_7296)"/>
<path opacity="0.48" d="M89.4621 52.5365C89.4626 51.4809 89.0534 50.4665 88.3212 49.7083C87.5889 48.9501 86.5912 48.5076 85.5393 48.4746C84.8275 48.4936 84.1314 48.689 83.5132 49.0434C82.895 49.3978 82.3738 49.9001 81.9961 50.5056C82.768 49.8351 83.7591 49.4736 84.78 49.4901C85.2952 49.4901 85.8053 49.5919 86.2812 49.7896C86.7572 49.9874 87.1896 50.2772 87.5539 50.6426C87.9182 51.008 88.2071 51.4418 88.4043 51.9192C88.6014 52.3966 88.7029 52.9083 88.7029 53.4251V53.552C88.7274 54.2231 88.5511 54.8863 88.1967 55.456C88.5987 55.0847 88.919 54.6331 89.1369 54.1304C89.3548 53.6276 89.4656 53.0847 89.4621 52.5365Z" fill="#480061"/>
<path opacity="0.75" d="M112.242 38.0638H48.4638L18.8527 67.8936C18.2853 68.4789 17.9008 69.2177 17.7464 70.0193C17.592 70.8209 17.6744 71.6502 17.9836 72.4054C18.2929 73.1606 18.8153 73.8087 19.4868 74.27C20.1583 74.7313 20.9495 74.9857 21.7632 75.002H90.8558L117.556 48.0917C118.323 47.0689 118.724 45.8169 118.695 44.5375C118.695 42.8206 118.015 41.174 116.805 39.9599C115.595 38.7459 113.953 38.0638 112.242 38.0638ZM85.5409 56.5964C85.0092 56.5964 84.4826 56.4913 83.9913 56.2872C83.5 56.0831 83.0536 55.7839 82.6776 55.4067C82.3016 55.0295 82.0033 54.5817 81.7998 54.0889C81.5963 53.5961 81.4916 53.0679 81.4916 52.5345C81.5086 51.7717 81.7269 51.0271 82.1243 50.3766C82.4458 49.8635 82.8783 49.4297 83.3897 49.1072C84.0306 48.6915 84.7778 48.4711 85.5409 48.4725C86.5928 48.5055 87.5906 48.948 88.3228 49.7062C89.0551 50.4644 89.4643 51.4788 89.4638 52.5345C89.4369 53.5817 89.0187 54.5805 88.2921 55.3329C87.5655 56.0853 86.5835 56.5362 85.5409 56.5964Z" fill="url(#paint3_linear_1043_7296)"/>
<path d="M56.6868 38.0638H47.9553L18.5973 67.3859C17.9648 68.0073 17.5325 68.8047 17.3562 69.675C17.1799 70.5453 17.2676 71.4487 17.6082 72.2685C17.9487 73.0883 18.5263 73.7869 19.2666 74.2741C20.0068 74.7614 20.8756 75.0149 21.7609 75.002H35.301L72.125 38.0638H56.6868Z" fill="url(#paint4_linear_1043_7296)"/>
<path opacity="0.43" d="M98.4453 74.9983L117.047 48.7227L90.8527 74.9983H98.4453Z" fill="url(#paint5_linear_1043_7296)"/>
<path d="M321.416 62.3119V80.9714H273.456V110.674H310.28V129.08H273.456V177.95H250.298V62.3119H321.416Z" fill="white"/>
<path d="M360.898 55.3274V177.947H337.74V55.3274H360.898Z" fill="white"/>
<path d="M383.297 106.987C386.675 100.179 391.893 94.4605 398.356 90.4855C404.708 86.5728 412.036 84.5481 419.489 84.6464C425.734 84.509 431.913 85.9494 437.458 88.8353C442.292 91.3128 446.492 94.8746 449.732 99.244V86.1697H473.016V177.944H449.732V164.489C446.568 168.993 442.354 172.653 437.458 175.151C431.318 178.183 424.515 179.609 417.679 179.299C410.844 178.988 404.197 176.95 398.356 173.374C391.88 169.303 386.665 163.5 383.297 156.619C379.5 148.886 377.591 140.358 377.729 131.739C377.577 123.16 379.487 114.67 383.297 106.987ZM446.442 117.523C444.414 113.662 441.344 110.451 437.584 108.256C433.94 106.12 429.8 104.984 425.58 104.962C421.359 104.939 417.207 106.032 413.541 108.129C409.843 110.362 406.823 113.566 404.81 117.396C402.419 121.787 401.24 126.738 401.393 131.739C401.292 136.775 402.467 141.755 404.81 146.21C406.862 150.12 409.92 153.407 413.668 155.73C417.221 157.877 421.288 159.017 425.436 159.031C429.704 159.021 433.895 157.883 437.584 155.73C441.344 153.535 444.414 150.324 446.442 146.464C448.743 141.998 449.875 137.018 449.732 131.993C449.842 126.971 448.711 122 446.442 117.523Z" fill="white"/>
<path d="M636.383 95.1835C643.343 102.038 646.759 111.685 646.759 124.125V177.945H623.602V127.171C623.602 120.063 621.83 114.478 618.161 110.67C614.491 106.862 609.556 104.958 603.355 104.958C597.154 104.958 592.093 106.862 588.423 110.67C584.753 114.478 582.855 120.063 582.855 127.171V177.945H559.698V127.171C559.698 120.063 557.926 114.478 554.256 110.67C550.586 106.862 545.651 104.958 539.451 104.958C533.25 104.958 527.935 106.862 524.265 110.67C520.596 114.478 518.824 120.063 518.824 127.171V177.945H495.667V86.1711H518.824V97.2145C521.854 93.3145 525.755 90.1838 530.213 88.0751C535.059 85.8647 540.327 84.7386 545.651 84.7748C552.343 84.6621 558.956 86.2332 564.886 89.3445C570.404 92.3411 574.932 96.884 577.92 102.419C580.905 96.9902 585.386 92.5393 590.827 89.5984C596.465 86.4119 602.831 84.7498 609.303 84.7748C620.438 84.7748 629.549 88.2021 636.383 95.1835Z" fill="white"/>
<path d="M670.298 71.3143C668.978 70.0876 667.934 68.5925 667.236 66.929C666.538 65.2654 666.201 63.4716 666.249 61.6673C666.183 59.8418 666.51 58.0235 667.209 56.3367C667.908 54.6498 668.962 53.1342 670.298 51.8932C673.105 49.4439 676.701 48.0948 680.422 48.0948C684.142 48.0948 687.738 49.4439 690.545 51.8932C691.881 53.1342 692.935 54.6498 693.634 56.3367C694.333 58.0235 694.66 59.8418 694.595 61.6673C694.642 63.4716 694.306 65.2654 693.607 66.929C692.909 68.5925 691.865 70.0876 690.545 71.3143C687.774 73.8386 684.165 75.2371 680.422 75.2371C676.678 75.2371 673.069 73.8386 670.298 71.3143ZM691.811 86.1658V177.94H668.653V86.1658H691.811Z" fill="white"/>
<path d="M791.776 95.1805C798.483 102.035 801.773 111.682 801.773 124.122V177.942H778.616V127.168C778.616 119.933 776.844 114.348 773.175 110.413C769.505 106.478 764.57 104.574 758.369 104.574C752.168 104.574 746.98 106.478 743.31 110.413C739.641 114.348 737.743 119.933 737.743 127.168V177.942H714.585V86.1681H737.743V97.5923C740.831 93.5335 744.874 90.3061 749.511 88.1991C754.459 85.8774 759.866 84.7059 765.329 84.7718C776.212 84.7718 784.943 88.1991 791.776 95.1805Z" fill="white"/>
<path d="M877.575 88.7056C882.468 91.1521 886.684 94.7707 889.85 99.2413V86.1669H913.134V178.576C913.259 186.459 911.478 194.255 907.946 201.297C904.568 208.024 899.227 213.559 892.634 217.164C885.801 221.099 877.575 223.13 867.832 223.13C854.84 223.13 844.21 220.084 835.943 213.991C831.911 211.134 828.554 207.426 826.105 203.128C823.656 198.83 822.176 194.045 821.77 189.111H844.674C845.938 193.326 848.739 196.907 852.52 199.139C856.954 201.78 862.045 203.1 867.199 202.947C873.948 202.947 879.389 200.916 883.523 196.854C887.699 192.793 889.85 186.7 889.85 178.576V164.359C886.637 168.867 882.381 172.525 877.449 175.022C871.977 177.992 865.827 179.48 859.606 179.337C852.133 179.454 844.789 177.381 838.473 173.371C831.959 169.309 826.701 163.507 823.288 156.616C819.533 148.873 817.668 140.345 817.847 131.737C817.654 123.167 819.52 114.677 823.288 106.984C826.707 100.204 831.916 94.4961 838.347 90.4827C844.737 86.552 852.111 84.5268 859.606 84.6437C865.834 84.5316 871.997 85.9248 877.575 88.7056ZM886.433 117.52C884.449 113.628 881.369 110.406 877.575 108.254C873.93 106.107 869.781 104.968 865.554 104.953C861.29 104.92 857.099 106.062 853.439 108.256C849.779 110.45 846.791 113.611 844.801 117.393C842.41 121.784 841.231 126.736 841.384 131.737C841.283 136.773 842.459 141.752 844.801 146.207C846.889 150.091 849.94 153.37 853.659 155.727C857.277 157.884 861.408 159.022 865.617 159.022C869.826 159.022 873.957 157.884 877.575 155.727C881.369 153.575 884.449 150.353 886.433 146.461C888.837 142.029 890.016 137.033 889.85 131.991C889.976 126.952 888.798 121.967 886.433 117.52Z" fill="white"/>
<path d="M952.492 173.499C945.547 169.591 939.81 163.837 935.915 156.87C931.863 149.217 929.816 140.656 929.967 131.991C929.777 123.291 931.918 114.699 936.168 107.112C940.131 100.11 945.958 94.3522 952.998 90.4833C960.411 86.642 968.634 84.6375 976.978 84.6375C985.322 84.6375 993.544 86.642 1000.96 90.4833C1008.01 94.3833 1013.87 100.131 1017.91 107.112C1022.06 114.733 1024.16 123.309 1023.99 131.991C1024.2 140.71 1022.01 149.32 1017.66 156.87C1013.56 163.855 1007.66 169.6 1000.58 173.499C993.103 177.477 984.743 179.486 976.282 179.338C967.983 179.474 959.79 177.463 952.492 173.499ZM988.177 156.109C991.922 153.992 994.96 150.813 996.908 146.97C999.294 142.348 1000.47 137.194 1000.32 131.991C1000.32 123.233 997.921 116.632 993.365 111.935C991.224 109.653 988.634 107.843 985.758 106.619C982.883 105.396 979.785 104.785 976.661 104.827C973.555 104.771 970.471 105.375 967.614 106.6C964.757 107.825 962.19 109.644 960.084 111.935C955.655 116.632 953.378 123.233 953.378 131.991C953.378 140.75 955.529 147.477 959.958 152.174C962.01 154.456 964.534 156.263 967.353 157.469C970.172 158.675 973.219 159.25 976.282 159.155C980.439 159.16 984.53 158.112 988.177 156.109Z" fill="white"/>
</g>
</g>
<defs>
<linearGradient id="paint0_linear_1043_7296" x1="-0.00336343" y1="69.7596" x2="54.7898" y2="69.7596" gradientUnits="userSpaceOnUse">
<stop stop-color="#4750D9"/>
<stop offset="0.41" stop-color="#5C45DC"/>
<stop offset="1" stop-color="#8131E1"/>
</linearGradient>
<linearGradient id="paint1_linear_1043_7296" x1="28.0873" y1="110.035" x2="185.507" y2="110.035" gradientUnits="userSpaceOnUse">
<stop stop-color="#E96161"/>
<stop offset="0.2" stop-color="#E65B76"/>
<stop offset="0.61" stop-color="#DF4AAC"/>
<stop offset="1" stop-color="#D739E6"/>
</linearGradient>
<linearGradient id="paint2_linear_1043_7296" x1="81.4796" y1="52.5365" x2="89.4898" y2="52.5365" gradientUnits="userSpaceOnUse">
<stop stop-color="#B100D3"/>
<stop offset="0.23" stop-color="#9C00C0"/>
<stop offset="0.69" stop-color="#67008E"/>
<stop offset="1" stop-color="#40006A"/>
</linearGradient>
<linearGradient id="paint3_linear_1043_7296" x1="17.6759" y1="56.5329" x2="118.695" y2="56.5329" gradientUnits="userSpaceOnUse">
<stop stop-color="#D0D7D3"/>
<stop offset="0.52" stop-color="#D9C5E8"/>
<stop offset="1" stop-color="#E3B1FF"/>
</linearGradient>
<linearGradient id="paint4_linear_1043_7296" x1="17.3445" y1="56.5329" x2="72.1124" y2="56.5329" gradientUnits="userSpaceOnUse">
<stop stop-color="#B277EC"/>
<stop offset="0.77" stop-color="#9336E7"/>
<stop offset="1" stop-color="#8921E6"/>
</linearGradient>
<linearGradient id="paint5_linear_1043_7296" x1="90.8148" y1="61.8605" x2="117.06" y2="61.8605" gradientUnits="userSpaceOnUse">
<stop stop-opacity="0.5"/>
<stop offset="0.1" stop-color="#201322" stop-opacity="0.59"/>
<stop offset="0.25" stop-color="#4A2C4E" stop-opacity="0.72"/>
<stop offset="0.4" stop-color="#6D4173" stop-opacity="0.82"/>
<stop offset="0.55" stop-color="#885190" stop-opacity="0.9"/>
<stop offset="0.7" stop-color="#9B5DA4" stop-opacity="0.95"/>
<stop offset="0.85" stop-color="#A664B0" stop-opacity="0.99"/>
<stop offset="1" stop-color="#AA66B4"/>
</linearGradient>
<clipPath id="clip0_1043_7296">
<rect width="1024" height="224" fill="white"/>
</clipPath>
<clipPath id="clip1_1043_7296">
<rect width="1024" height="222.264" fill="white" transform="translate(0 0.869995)"/>
</clipPath>
</defs>
</svg>
