<svg width="160" height="160" viewBox="0 0 160 160" fill="none" xmlns="http://www.w3.org/2000/svg">
<path d="M160 80C160 35.8164 124.183 0 79.9987 0C35.8167 0 0 35.8164 0 80C0 124.181 35.8167 160 79.9987 160C124.183 160 160 124.181 160 80Z" fill="url(#paint0_linear_1043_21663)"/>
<path d="M7.99999 80C8 119.765 40.2363 152 80.0013 152C119.766 152 152 119.765 152 80C152 40.2346 119.766 8 80.0013 8.00001C40.2363 8.00001 7.99999 40.2346 7.99999 80Z" fill="url(#paint1_linear_1043_21663)"/>
<path d="M144 80C144 44.6531 115.347 16 79.999 16C44.6534 16 16 44.6531 16 80C16 115.345 44.6534 144 79.999 144C115.347 144 144 115.345 144 80Z" fill="url(#paint2_linear_1043_21663)"/>
<path d="M144 80C144 44.6531 115.347 16 79.999 16C44.6534 16 16 44.6531 16 80C16 115.345 44.6534 144 79.999 144C115.347 144 144 115.345 144 80Z" fill="white" fill-opacity="0.64"/>
<mask id="mask0_1043_21663" style="mask-type:alpha" maskUnits="userSpaceOnUse" x="24" y="24" width="112" height="112">
<path d="M136 80C136 49.0734 110.927 24 79.9989 24C49.0733 24 24 49.0734 24 80C24 110.927 49.0733 136 79.9989 136C110.927 136 136 110.927 136 80Z" fill="url(#paint3_linear_1043_21663)"/>
<path d="M136 80C136 49.0734 110.927 24 79.9989 24C49.0733 24 24 49.0734 24 80C24 110.927 49.0733 136 79.9989 136C110.927 136 136 110.927 136 80Z" fill="white"/>
</mask>
<g mask="url(#mask0_1043_21663)">
<g clip-path="url(#clip0_1043_21663)">
<rect width="112" height="112" transform="translate(24 24)" fill="white"/>
<path d="M80 136C110.928 136 136 110.928 136 80C136 49.0721 110.928 24 80 24C49.072 24 24 49.0721 24 80C24 110.928 49.072 136 80 136Z" fill="white"/>
<path fill-rule="evenodd" clip-rule="evenodd" d="M58.0031 63.5169C57.9733 63.0593 57.9584 62.593 57.9584 62.1186C57.9584 58.2799 59.0715 54.7756 60.9525 52.1233C62.7739 49.5552 65.6985 47.3334 69.3212 47.3334C73.4241 47.3334 76.4992 49.8076 78.3486 52.5212C78.7537 53.1153 79.119 53.7446 79.4423 54.4008C79.7709 53.7418 80.1392 53.1129 80.5457 52.5206C82.4685 49.7195 85.5835 47.3334 89.5822 47.3334C93.1024 47.3334 95.9938 49.3768 97.8331 51.8667C99.6806 54.3687 100.771 57.6599 100.807 61.2518C100.831 61.5795 100.846 61.9046 100.853 62.2267C102.023 61.6503 103.338 61.2972 104.778 61.2972C108.495 61.2972 111.289 63.6394 112.94 66.1041C114.636 68.6373 115.593 71.8962 115.593 75.261C115.593 78.6372 114.628 81.8415 112.87 84.3142C111.212 86.6452 108.592 88.6135 105.29 88.7999C107.041 92.9885 107.086 97.3775 105.603 101.147C103.62 106.187 98.9251 109.897 92.8679 109.897C90.438 109.897 88.548 109.654 86.9341 109.214C85.3455 108.78 84.1922 108.195 83.3754 107.78L83.3207 107.752C82.57 107.371 82.178 107.182 81.6644 107.035C81.1669 106.893 80.3891 106.748 79.0407 106.748C78.9554 106.748 78.5708 106.789 77.719 107.196C76.8764 107.598 75.9563 108.165 74.7549 108.912C74.6613 108.97 74.5646 109.031 74.4653 109.093C72.5504 110.289 69.6694 112.088 66.5793 112.548C64.7769 112.816 62.8092 112.663 60.8553 111.748C58.9427 110.852 57.358 109.374 56.0304 107.507C53.4276 103.845 52.9627 99.7759 53.7761 95.841C54.1542 94.0127 54.8081 92.1975 55.6456 90.4173C55.3707 90.4436 55.092 90.4567 54.8097 90.4567C51.071 90.4567 48.3513 88.1288 46.7786 85.6123C45.197 83.0818 44.4053 79.8863 44.4053 76.6497C44.4053 73.4113 45.1979 70.2285 46.7938 67.7115C48.3892 65.195 51.1142 62.94 54.8097 62.94C55.9342 62.94 57.0046 63.1512 58.0031 63.5169Z" fill="#2B2E34"/>
<path fill-rule="evenodd" clip-rule="evenodd" d="M69.3226 71.5649C74.5249 71.5649 76.852 67.2601 76.852 62.1188C76.852 56.9774 73.7033 51.7144 69.3226 51.7144C65.8447 51.7144 62.3408 56.0952 62.3408 62.1188C62.3408 68.6901 65.8447 71.5649 69.3226 71.5649ZM62.0654 76.6499C62.0654 81.791 58.2877 86.0763 54.8097 86.0763C51.3318 86.0763 48.7861 81.791 48.7861 76.6499C48.7861 71.5084 51.3318 67.3211 54.8097 67.3211C58.2877 67.3211 62.0654 71.5084 62.0654 76.6499ZM92.8688 105.516C88.5949 105.516 86.9153 104.664 85.304 103.846C83.8187 103.092 82.3911 102.368 79.0416 102.368C76.9814 102.368 74.7449 103.759 72.4411 105.193C68.1623 107.856 63.6503 110.664 59.6019 104.968C56.0566 99.9809 58.0962 93.8682 62.477 87.3083C67.5054 79.7789 72.6078 73.6233 78.6313 73.2077C86.8453 72.6411 93.8274 79.642 99.4401 87.3083C105.554 95.6593 101.083 105.516 92.8688 105.516ZM96.4279 61.4343C96.9756 68.0054 93.0609 71.7018 89.5832 71.7018C86.1051 71.7018 81.9165 67.9446 81.9165 62.8033C81.9165 56.7797 85.339 51.7144 89.5832 51.7144C93.0609 51.7144 96.4279 55.8214 96.4279 61.4343ZM104.779 84.4335C108.257 84.4335 111.213 80.4024 111.213 75.2613C111.213 70.1198 108.257 65.6782 104.779 65.6782C101.301 65.6782 98.0711 70.1198 98.0711 75.2613C98.0711 80.4024 101.301 84.4335 104.779 84.4335Z" fill="#DA652C"/>
</g>
</g>
<defs>
<linearGradient id="paint0_linear_1043_21663" x1="160" y1="-0.00063818" x2="-14.7107" y2="18.113" gradientUnits="userSpaceOnUse">
<stop stop-color="#DA652C"/>
<stop offset="1" stop-color="#99490E"/>
<stop offset="1" stop-color="#94451E"/>
</linearGradient>
<linearGradient id="paint1_linear_1043_21663" x1="8.00006" y1="152.001" x2="165.24" y2="135.698" gradientUnits="userSpaceOnUse">
<stop stop-color="#DA652C"/>
<stop offset="1" stop-color="#99490E"/>
<stop offset="1" stop-color="#94451E"/>
</linearGradient>
<linearGradient id="paint2_linear_1043_21663" x1="144" y1="15.9995" x2="4.23144" y2="30.4904" gradientUnits="userSpaceOnUse">
<stop stop-color="#DA652C"/>
<stop offset="1" stop-color="#99490E"/>
<stop offset="1" stop-color="#94451E"/>
</linearGradient>
<linearGradient id="paint3_linear_1043_21663" x1="30.5882" y1="36.3529" x2="126.941" y2="122.824" gradientUnits="userSpaceOnUse">
<stop stop-color="#00E599"/>
<stop offset="1" stop-color="#00AF92"/>
</linearGradient>
<clipPath id="clip0_1043_21663">
<rect width="112" height="112" fill="white" transform="translate(24 24)"/>
</clipPath>
</defs>
</svg>
