<svg width="160" height="160" viewBox="0 0 160 160" fill="none" xmlns="http://www.w3.org/2000/svg">
<rect y="0.00434875" width="160" height="160" rx="80" fill="white"/>
<path d="M160 80C160 35.8164 124.183 0 79.9987 0C35.8167 0 0 35.8164 0 80C0 124.181 35.8167 160 79.9987 160C124.183 160 160 124.181 160 80Z" fill="white"/>
<mask id="mask0_1043_22569" style="mask-type:alpha" maskUnits="userSpaceOnUse" x="8" y="8" width="144" height="144">
<path d="M151.111 80C151.111 40.7281 119.272 8.88889 79.9984 8.88889C40.7278 8.88889 8.88867 40.7281 8.88867 80C8.88867 119.272 40.7278 151.111 79.9984 151.111C119.272 151.111 151.111 119.272 151.111 80Z" fill="url(#paint0_linear_1043_22569)"/>
<path d="M151.111 80C151.111 40.7281 119.272 8.88889 79.9984 8.88889C40.7278 8.88889 8.88867 40.7281 8.88867 80C8.88867 119.272 40.7278 151.111 79.9984 151.111C119.272 151.111 151.111 119.272 151.111 80Z" fill="white"/>
</mask>
<g mask="url(#mask0_1043_22569)">
<g clip-path="url(#clip0_1043_22569)">
<rect width="142.222" height="142.222" transform="translate(8.88867 8.88889)" fill="white"/>
<path d="M79.9998 151.111C119.273 151.111 151.111 119.274 151.111 80C151.111 40.7265 119.273 8.88889 79.9998 8.88889C40.7262 8.88889 8.88867 40.7265 8.88867 80C8.88867 119.274 40.7262 151.111 79.9998 151.111Z" fill="white"/>
<path fill-rule="evenodd" clip-rule="evenodd" d="M52.0669 59.069C52.029 58.488 52.0101 57.8959 52.0101 57.2935C52.0101 52.419 53.4235 47.9691 55.8122 44.601C58.125 41.34 61.8389 38.5186 66.439 38.5186C71.6491 38.5186 75.554 41.6605 77.9024 45.1062C78.4168 45.8607 78.8807 46.6599 79.2913 47.493C79.7085 46.6562 80.1763 45.8577 80.6924 45.1055C83.1341 41.5486 87.0896 38.5186 92.1674 38.5186C96.6374 38.5186 100.309 41.1133 102.645 44.2752C104.991 47.4523 106.376 51.6316 106.421 56.1927C106.452 56.6089 106.471 57.0217 106.479 57.4307C107.965 56.6987 109.635 56.2504 111.464 56.2504C116.184 56.2504 119.732 59.2247 121.828 62.3545C123.982 65.5711 125.197 69.7095 125.197 73.9823C125.197 78.2695 123.972 82.3384 121.739 85.4784C119.634 88.4384 116.307 90.9378 112.114 91.1745C114.337 96.4934 114.395 102.067 112.511 106.854C109.994 113.254 104.031 117.964 96.3396 117.964C93.2541 117.964 90.8541 117.656 88.8046 117.097C86.7874 116.546 85.3229 115.803 84.2857 115.276L84.2163 115.241C83.2629 114.757 82.7652 114.517 82.1129 114.331C81.4813 114.15 80.4935 113.966 78.7813 113.966C78.6729 113.966 78.1846 114.018 77.1029 114.535C76.0329 115.045 74.8646 115.764 73.3391 116.714C73.2202 116.788 73.0974 116.865 72.9713 116.943C70.5396 118.462 66.8813 120.747 62.9573 121.331C60.6685 121.672 58.1698 121.477 55.6887 120.315C53.26 119.177 51.2478 117.301 49.5618 114.929C46.2567 110.28 45.6664 105.112 46.6993 100.116C47.1794 97.7939 48.0098 95.4889 49.0732 93.2284C48.7241 93.2617 48.3702 93.2784 48.0118 93.2784C43.2643 93.2784 39.8106 90.3223 37.8136 87.1267C35.8052 83.9134 34.7998 79.8556 34.7998 75.7456C34.7998 71.6334 35.8063 67.5917 37.8328 64.3956C39.8588 61.2 43.3191 58.3365 48.0118 58.3365C49.4397 58.3365 50.799 58.6047 52.0669 59.069Z" fill="#2B2E34"/>
<path fill-rule="evenodd" clip-rule="evenodd" d="M66.4413 69.2888C73.0474 69.2888 76.0024 63.8224 76.0024 57.2937C76.0024 50.7651 72.0041 44.0818 66.4413 44.0818C62.025 44.0818 57.5755 49.6447 57.5755 57.2937C57.5755 65.6382 62.025 69.2888 66.4413 69.2888ZM57.2259 75.746C57.2259 82.2743 52.4287 87.716 48.0123 87.716C43.5958 87.716 40.3633 82.2743 40.3633 75.746C40.3633 69.2171 43.5958 63.8998 48.0123 63.8998C52.4287 63.8998 57.2259 69.2171 57.2259 75.746ZM96.3413 112.402C90.9141 112.402 88.7813 111.319 86.7352 110.28C84.8491 109.323 83.0363 108.403 78.783 108.403C76.1669 108.403 73.3269 110.17 70.4013 111.991C64.968 115.373 59.2385 118.938 54.0976 111.706C49.5956 105.373 52.1856 97.6105 57.7486 89.2805C64.1337 79.7193 70.613 71.9027 78.2619 71.3749C88.6924 70.6555 97.5585 79.5455 104.686 89.2805C112.449 99.8849 106.772 112.402 96.3413 112.402ZM100.861 56.4246C101.556 64.7688 96.5852 69.4627 92.1691 69.4627C87.7524 69.4627 82.4335 64.6916 82.4335 58.1629C82.4335 50.5139 86.7796 44.0818 92.1691 44.0818C96.5852 44.0818 100.861 49.297 100.861 56.4246ZM111.465 85.6299C115.882 85.6299 119.636 80.511 119.636 73.9827C119.636 67.4538 115.882 61.8136 111.465 61.8136C107.049 61.8136 102.947 67.4538 102.947 73.9827C102.947 80.511 107.049 85.6299 111.465 85.6299Z" fill="#DA652C"/>
</g>
</g>
<defs>
<linearGradient id="paint0_linear_1043_22569" x1="17.2547" y1="24.5752" x2="139.608" y2="134.379" gradientUnits="userSpaceOnUse">
<stop stop-color="#00E599"/>
<stop offset="1" stop-color="#00AF92"/>
</linearGradient>
<clipPath id="clip0_1043_22569">
<rect width="142.222" height="142.222" fill="white" transform="translate(8.88867 8.88889)"/>
</clipPath>
</defs>
</svg>
