<svg width="216" height="138" viewBox="0 0 216 138" fill="none" xmlns="http://www.w3.org/2000/svg">
<g clip-path="url(#clip0_1043_8235)">
<path d="M216.001 63L216.001 74.8733L216.001 75C215.912 91.021 205.412 107.048 184.49 119.331C142.382 144.053 73.9983 144.246 31.7561 119.764C10.4997 107.445 -0.0893974 91.2253 0.000568442 75V63H216.001Z" fill="url(#paint0_linear_1043_8235)"/>
<path d="M216.001 63L216.001 74.8733L216.001 75C215.912 91.021 205.412 107.048 184.49 119.331C142.382 144.053 73.9983 144.246 31.7561 119.764C10.4997 107.445 -0.0893974 91.2253 0.000568442 75V63H216.001Z" fill="black" fill-opacity="0.2"/>
<path d="M184.246 18.2363C142.001 -6.24717 73.6204 -6.05281 31.5097 18.6707C-10.5986 43.3928 -10.4894 83.281 31.7555 107.764C73.9977 132.246 142.381 132.053 184.489 107.331C226.6 82.6079 226.488 42.7181 184.246 18.2363Z" fill="url(#paint1_linear_1043_8235)"/>
<path d="M38.1084 103.146C76.8329 125.103 139.516 124.928 178.116 102.756C216.716 80.5842 216.615 44.8125 177.89 22.8551C139.166 0.8978 76.4855 1.0715 37.8854 23.2434C-0.71482 45.4153 -0.616108 81.1885 38.1084 103.146Z" fill="url(#paint2_linear_1043_8235)"/>
<path d="M170.832 27.1179C136.019 7.49225 79.6686 7.64805 44.9663 27.4661C10.2659 47.283 10.356 79.2569 45.1689 98.8825C79.9796 118.507 136.332 118.352 171.033 98.5354C205.735 78.7173 205.643 46.7422 170.832 27.1179Z" fill="url(#paint3_linear_1043_8235)"/>
<path d="M170.832 27.1179C136.019 7.49225 79.6686 7.64805 44.9663 27.4661C10.2659 47.283 10.356 79.2569 45.1689 98.8825C79.9796 118.507 136.332 118.352 171.033 98.5354C205.735 78.7173 205.643 46.7422 170.832 27.1179Z" fill="white" fill-opacity="0.64"/>
<mask id="mask0_1043_8235" style="mask-type:alpha" maskUnits="userSpaceOnUse" x="29" y="17" width="158" height="91">
<path d="M163.591 30.5758C132.884 13.0747 83.1719 13.2135 52.5613 30.8865C21.9528 48.5583 22.0326 77.0747 52.7402 94.5758C83.4478 112.077 133.16 111.938 163.768 94.2664C194.379 76.5933 194.299 48.0769 163.591 30.5758Z" fill="url(#paint4_linear_1043_8235)"/>
<path d="M163.591 30.5758C132.884 13.0747 83.1719 13.2135 52.5613 30.8865C21.9528 48.5583 22.0326 77.0747 52.7402 94.5758C83.4478 112.077 133.16 111.938 163.768 94.2664C194.379 76.5933 194.299 48.0769 163.591 30.5758Z" fill="white"/>
</mask>
<g mask="url(#mask0_1043_8235)">
<g clip-path="url(#clip1_1043_8235)">
<rect width="128" height="128" transform="matrix(0.866025 -0.5 0.868804 0.495155 -2.86328 62.8859)" fill="white"/>
<path d="M163.769 94.2657C194.38 76.5927 194.301 48.0778 163.591 30.5758C132.883 13.0739 83.1729 13.2128 52.5624 30.8858C21.9516 48.559 22.0313 77.074 52.7402 94.5758C83.4494 112.078 133.159 111.939 163.769 94.2657Z" fill="white"/>
<path fill-rule="evenodd" clip-rule="evenodd" d="M70.0282 65.8177C69.5444 65.5758 69.0666 65.3205 68.5956 65.052C64.7841 62.8798 62.4063 60.2607 61.6345 57.6848C60.8873 55.1908 61.5758 52.2622 65.1613 50.1922C69.2221 47.8476 74.7225 47.4906 79.2472 47.9694C80.2381 48.0741 81.2245 48.2215 82.196 48.408C81.8669 47.8474 81.6071 47.281 81.4212 46.7135C80.5431 44.0297 81.2568 40.8994 85.2146 38.6144C88.6986 36.6029 93.5893 36.107 97.882 36.465C102.195 36.8251 106.542 38.0643 110.144 40.0765C110.493 40.2482 110.831 40.4236 111.157 40.6022C111.743 39.6075 112.694 38.6562 114.12 37.8329C117.798 35.7092 122.89 35.4379 126.971 35.8894C131.165 36.3536 135.348 37.6508 138.689 39.5549C142.041 41.4655 144.267 43.8302 144.982 46.2345C145.656 48.5009 145.017 51.1117 141.934 53.104C147.826 54.474 152.229 56.9317 154.504 59.9126C157.546 63.8977 156.582 68.6797 150.587 72.1409C148.182 73.5294 146.071 74.4723 144.036 75.1452C142.033 75.8076 140.31 76.1353 139.09 76.3674L139.009 76.383C137.887 76.5964 137.311 76.7134 136.657 76.9238C136.023 77.1273 135.11 77.4899 133.775 78.2604C133.691 78.3091 133.351 78.5524 132.912 79.2691C132.477 79.9782 132.129 80.8245 131.682 81.9341C131.647 82.0205 131.612 82.11 131.575 82.2019C130.867 83.9728 129.802 86.6373 127.2 88.6633C125.683 89.8452 123.583 90.8828 120.74 91.4813C117.958 92.0674 114.922 92.1367 111.754 91.8384C105.542 91.2537 101.042 89.2167 97.9399 86.5251C96.4987 85.2745 95.3436 83.8736 94.4049 82.3876C94.1589 82.5596 93.8961 82.7263 93.6167 82.8876C89.9164 85.024 84.9131 85.2607 80.8579 84.7353C76.7799 84.2071 72.8234 82.8512 69.6097 81.0197C66.3942 79.1871 64.0184 76.933 63.0988 74.5968C62.1792 72.261 62.6372 69.4278 66.2948 67.3161C67.4078 66.6735 68.677 66.1814 70.0282 65.8177Z" fill="#2B2E34"/>
<path fill-rule="evenodd" clip-rule="evenodd" d="M89.2223 63.9038C94.3712 60.9311 92.4001 57.1653 87.2952 54.2559C82.1903 51.3464 73.8481 50.1673 69.5123 52.6706C66.0701 54.6579 66.9519 59.1393 72.9329 62.548C79.4576 66.2666 85.7801 65.8912 89.2223 63.9038ZM87.0887 70.9284C92.1933 73.8377 92.7093 78.4214 89.267 80.4088C85.8247 82.3962 79.0502 81.4258 73.9455 78.5165C68.8405 75.607 67.2023 71.7828 70.6446 69.7954C74.0868 67.808 81.9836 68.0188 87.0887 70.9284ZM146.238 69.6616C142.008 72.1039 139.499 72.5811 137.092 73.0391C134.874 73.4613 132.741 73.8671 129.426 75.7811C127.387 76.9583 126.555 79.0239 125.699 81.1517C124.108 85.1037 122.43 89.2709 112.768 88.3613C104.307 87.5648 100.256 82.9402 98.0789 76.7247C95.5796 69.5905 94.5176 63.1914 100.067 59.5142C107.634 54.4999 121.496 54.4719 134.663 55.6029C149.006 56.8352 154.368 64.9679 146.238 69.6616ZM105.991 42.6823C113.057 46.0878 112.853 50.4166 109.411 52.4038C105.969 54.3913 98.0923 54.6586 92.9874 51.7492C87.0065 48.3405 85.3645 43.5183 89.5652 41.0931C93.0072 39.1058 100.418 39.506 105.991 42.6823ZM137.092 50.9253C140.535 48.9378 139.458 44.9674 134.354 42.0581C129.248 39.1486 121.912 38.3244 118.47 40.3119C115.028 42.2991 116.241 46.6583 121.346 49.5679C126.451 52.4772 133.65 52.9126 137.092 50.9253Z" fill="#DA652C"/>
</g>
</g>
</g>
<defs>
<linearGradient id="paint0_linear_1043_8235" x1="107.757" y1="47.4678" x2="80.2592" y2="145.698" gradientUnits="userSpaceOnUse">
<stop stop-color="#DA652C"/>
<stop offset="1" stop-color="#94451E"/>
</linearGradient>
<linearGradient id="paint1_linear_1043_8235" x1="107.756" y1="-26.0939" x2="39.2228" y2="119.635" gradientUnits="userSpaceOnUse">
<stop stop-color="#DA652C"/>
<stop offset="1" stop-color="#94451E"/>
</linearGradient>
<linearGradient id="paint2_linear_1043_8235" x1="108.223" y1="142.902" x2="168.826" y2="11.1872" gradientUnits="userSpaceOnUse">
<stop stop-color="#DA652C"/>
<stop offset="1" stop-color="#94451E"/>
</linearGradient>
<linearGradient id="paint3_linear_1043_8235" x1="107.799" y1="-8.41665" x2="53.8366" y2="109.548" gradientUnits="userSpaceOnUse">
<stop stop-color="#DA652C"/>
<stop offset="1" stop-color="#94451E"/>
</linearGradient>
<linearGradient id="paint4_linear_1043_8235" x1="15.9229" y1="66.1116" x2="196.044" y2="48.631" gradientUnits="userSpaceOnUse">
<stop stop-color="#00E599"/>
<stop offset="1" stop-color="#00AF92"/>
</linearGradient>
<clipPath id="clip0_1043_8235">
<rect width="216" height="138" fill="white"/>
</clipPath>
<clipPath id="clip1_1043_8235">
<rect width="128" height="128" fill="white" transform="matrix(0.866025 -0.5 0.868804 0.495155 -2.86328 62.8859)"/>
</clipPath>
</defs>
</svg>
