<svg width="216" height="138" viewBox="0 0 216 138" fill="none" xmlns="http://www.w3.org/2000/svg">
<g clip-path="url(#clip0_1043_8275)">
<path d="M216.001 63L216.001 74.8733L216.001 75C215.912 91.021 205.412 107.048 184.49 119.331C142.382 144.053 73.9983 144.246 31.7561 119.764C10.4997 107.445 -0.0893974 91.2253 0.000568442 75V63H216.001Z" fill="url(#paint0_linear_1043_8275)"/>
<path d="M216.001 63L216.001 74.8733L216.001 75C215.912 91.021 205.412 107.048 184.49 119.331C142.382 144.053 73.9983 144.246 31.7561 119.764C10.4997 107.445 -0.0893974 91.2253 0.000568442 75V63H216.001Z" fill="black" fill-opacity="0.2"/>
<path d="M184.246 18.2363C142.001 -6.24717 73.6204 -6.05281 31.5097 18.6707C-10.5986 43.3928 -10.4894 83.281 31.7555 107.764C73.9977 132.246 142.381 132.053 184.489 107.331C226.6 82.6079 226.488 42.7181 184.246 18.2363Z" fill="url(#paint1_linear_1043_8275)"/>
<path d="M38.1084 103.146C76.8329 125.103 139.516 124.928 178.116 102.756C216.716 80.5842 216.615 44.8125 177.89 22.8551C139.166 0.8978 76.4855 1.0715 37.8854 23.2434C-0.71482 45.4153 -0.616108 81.1885 38.1084 103.146Z" fill="url(#paint2_linear_1043_8275)"/>
<path d="M170.832 27.1179C136.019 7.49225 79.6686 7.64805 44.9663 27.4661C10.2659 47.283 10.356 79.2569 45.1689 98.8825C79.9796 118.507 136.332 118.352 171.033 98.5354C205.735 78.7173 205.643 46.7422 170.832 27.1179Z" fill="url(#paint3_linear_1043_8275)"/>
<path d="M170.832 27.1179C136.019 7.49225 79.6686 7.64805 44.9663 27.4661C10.2659 47.283 10.356 79.2569 45.1689 98.8825C79.9796 118.507 136.332 118.352 171.033 98.5354C205.735 78.7173 205.643 46.7422 170.832 27.1179Z" fill="white" fill-opacity="0.64"/>
<mask id="mask0_1043_8275" style="mask-type:alpha" maskUnits="userSpaceOnUse" x="29" y="17" width="158" height="91">
<path d="M163.591 30.5758C132.884 13.0747 83.1719 13.2135 52.5613 30.8865C21.9528 48.5583 22.0326 77.0747 52.7402 94.5758C83.4478 112.077 133.16 111.938 163.768 94.2664C194.379 76.5933 194.299 48.0769 163.591 30.5758Z" fill="url(#paint4_linear_1043_8275)"/>
<path d="M163.591 30.5758C132.884 13.0747 83.1719 13.2135 52.5613 30.8865C21.9528 48.5583 22.0326 77.0747 52.7402 94.5758C83.4478 112.077 133.16 111.938 163.768 94.2664C194.379 76.5933 194.299 48.0769 163.591 30.5758Z" fill="white"/>
</mask>
<g mask="url(#mask0_1043_8275)">
<g clip-path="url(#clip1_1043_8275)">
<rect width="128" height="128" transform="matrix(0.866025 -0.5 0.868804 0.495155 -2.86328 62.8859)" fill="white"/>
<path fill-rule="evenodd" clip-rule="evenodd" d="M52.5623 30.8859C83.1752 13.2115 132.88 13.0727 163.591 30.5758C194.303 48.0789 194.382 76.5914 163.769 94.2658C133.156 111.94 83.4513 112.079 52.7402 94.5758C22.0291 77.0727 21.9495 48.5602 52.5623 30.8859Z" fill="white"/>
<path d="M80.7857 78.3926L96.9591 87.56L118.682 84.2708L128.125 89.6527L93.7314 94.8909L68.1196 80.294L80.7857 78.3926ZM64.6562 69.2L74.0553 74.5568L61.3795 76.4582L51.9803 71.1014L55.213 63.8181L67.9278 61.8941L64.6562 69.2ZM79.3404 55.3051L82.5731 48.0217L95.2879 46.0978L92.0162 53.4036L79.3404 55.3051Z" fill="#F0B90B"/>
<path d="M99.3199 82.3614L89.8768 76.9795L102.553 75.0781L111.952 80.4349L99.3199 82.3614ZM127.768 82.9053L140.444 81.0038L143.716 73.698L153.115 79.0548L149.843 86.3607L137.167 88.2621L127.768 82.9053ZM106.696 39.5115L109.929 32.2281L122.643 30.3042L132.042 35.661L128.771 42.9668L119.372 37.61L106.696 39.5115ZM151.631 55.9953L135.545 46.7774L138.778 39.494L164.389 54.0909L155.48 73.8535L146.037 68.4716L151.631 55.9953Z" fill="#F0B90B"/>
<path d="M142.591 57.3845L139.312 64.6438L129.913 59.287L133.148 52.0026L142.591 57.3845Z" fill="#F0B90B"/>
<path d="M117.009 42.8071L126.496 48.1636L120.863 60.668L137.032 69.8829L133.755 77.1412L121.123 79.0677L104.955 69.8528L83.1929 73.1645L73.7498 67.7826L77.0166 60.4796L98.7348 57.238L104.328 44.7113L117.043 42.7874L117.009 42.8071ZM57.6203 58.5955L66.4464 38.8303L100.884 33.6172L97.6513 40.9005L75.8504 44.1899L70.2961 56.6941L57.6203 58.5955Z" fill="#F0B90B"/>
</g>
</g>
</g>
<defs>
<linearGradient id="paint0_linear_1043_8275" x1="107.757" y1="47.4678" x2="80.2592" y2="145.698" gradientUnits="userSpaceOnUse">
<stop stop-color="#F0B90B"/>
<stop offset="1" stop-color="#A37E07"/>
</linearGradient>
<linearGradient id="paint1_linear_1043_8275" x1="107.756" y1="-26.0939" x2="39.2228" y2="119.635" gradientUnits="userSpaceOnUse">
<stop stop-color="#F0B90B"/>
<stop offset="1" stop-color="#A37E07"/>
</linearGradient>
<linearGradient id="paint2_linear_1043_8275" x1="108.223" y1="142.902" x2="168.826" y2="11.1872" gradientUnits="userSpaceOnUse">
<stop stop-color="#F0B90B"/>
<stop offset="1" stop-color="#A37E07"/>
</linearGradient>
<linearGradient id="paint3_linear_1043_8275" x1="107.799" y1="-8.41665" x2="53.8366" y2="109.548" gradientUnits="userSpaceOnUse">
<stop stop-color="#F0B90B"/>
<stop offset="1" stop-color="#A37E07"/>
</linearGradient>
<linearGradient id="paint4_linear_1043_8275" x1="15.9229" y1="66.1116" x2="196.044" y2="48.631" gradientUnits="userSpaceOnUse">
<stop stop-color="#00E599"/>
<stop offset="1" stop-color="#00AF92"/>
</linearGradient>
<clipPath id="clip0_1043_8275">
<rect width="216" height="138" fill="white"/>
</clipPath>
<clipPath id="clip1_1043_8275">
<rect width="128" height="128" fill="white" transform="matrix(0.866025 -0.5 0.868804 0.495155 -2.86328 62.8859)"/>
</clipPath>
</defs>
</svg>
