<svg width="160" height="160" viewBox="0 0 160 160" fill="none" xmlns="http://www.w3.org/2000/svg">
<path d="M160 80C160 35.8164 124.183 0 79.9987 0C35.8167 0 0 35.8164 0 80C0 124.181 35.8167 160 79.9987 160C124.183 160 160 124.181 160 80Z" fill="url(#paint0_linear_1043_21767)"/>
<path d="M7.99999 80C8 119.765 40.2363 152 80.0013 152C119.766 152 152 119.765 152 80C152 40.2346 119.766 8 80.0013 8.00001C40.2363 8.00001 7.99999 40.2346 7.99999 80Z" fill="url(#paint1_linear_1043_21767)"/>
<path d="M144 80C144 44.6531 115.347 16 79.999 16C44.6534 16 16 44.6531 16 80C16 115.345 44.6534 144 79.999 144C115.347 144 144 115.345 144 80Z" fill="url(#paint2_linear_1043_21767)"/>
<path d="M144 80C144 44.6531 115.347 16 79.999 16C44.6534 16 16 44.6531 16 80C16 115.345 44.6534 144 79.999 144C115.347 144 144 115.345 144 80Z" fill="white" fill-opacity="0.64"/>
<mask id="mask0_1043_21767" style="mask-type:alpha" maskUnits="userSpaceOnUse" x="24" y="24" width="112" height="112">
<path d="M136 80C136 49.0734 110.927 24 79.9989 24C49.0733 24 24 49.0734 24 80C24 110.927 49.0733 136 79.9989 136C110.927 136 136 110.927 136 80Z" fill="url(#paint3_linear_1043_21767)"/>
<path d="M136 80C136 49.0734 110.927 24 79.9989 24C49.0733 24 24 49.0734 24 80C24 110.927 49.0733 136 79.9989 136C110.927 136 136 110.927 136 80Z" fill="white"/>
</mask>
<g mask="url(#mask0_1043_21767)">
<g clip-path="url(#clip0_1043_21767)">
<rect width="112" height="112" transform="translate(24 24)" fill="white"/>
<path fill-rule="evenodd" clip-rule="evenodd" d="M80 24C110.93 24 136 49.0699 136 80C136 110.93 110.93 136 80 136C49.0699 136 24 110.93 24 80C24 49.0699 49.0699 24 80 24Z" fill="white"/>
<path d="M52.3277 80.008L52.372 96.2526L66.1716 104.375V113.885L44.2959 101.052V75.2577L52.3277 80.008ZM52.3277 63.7634V73.2296L44.291 68.4744V59.0082L52.3277 54.253L60.4037 59.0082L52.3277 63.7634ZM71.9346 59.0082L79.9713 54.253L88.0474 59.0082L79.9713 63.7634L71.9346 59.0082Z" fill="#F0B90B"/>
<path d="M58.1357 92.8855V83.3751L66.1724 88.1303V97.5964L58.1357 92.8855ZM71.9354 107.781L79.9721 112.537L88.0481 107.781V117.247L79.9721 122.003L71.9354 117.247V107.781ZM99.5741 59.0082L107.611 54.253L115.687 59.0082V68.4744L107.611 73.2296V63.7634L99.5741 59.0082ZM107.611 96.2526L107.655 80.008L115.692 75.2528V101.047L93.816 113.88V104.37L107.611 96.2526Z" fill="#F0B90B"/>
<path d="M101.849 92.8901L93.8105 97.601V88.1349L101.849 83.3796V92.8901Z" fill="#F0B90B"/>
<path d="M101.848 67.1279L101.892 76.6384L88.0531 84.7607V101.045L80.0164 105.756L71.9797 101.045V84.7607L58.1407 76.6384V67.1279L66.2118 62.3727L79.9672 70.5344L93.8062 62.3727L101.882 67.1279H101.848ZM58.1357 50.8883L79.9721 38.0108L101.848 50.8883L93.8111 55.6435L79.9721 47.4819L66.1724 55.6435L58.1357 50.8883Z" fill="#F0B90B"/>
</g>
</g>
<defs>
<linearGradient id="paint0_linear_1043_21767" x1="160" y1="-0.00063818" x2="-14.7107" y2="18.113" gradientUnits="userSpaceOnUse">
<stop stop-color="#F0B90B"/>
<stop offset="1" stop-color="#A37E07"/>
</linearGradient>
<linearGradient id="paint1_linear_1043_21767" x1="8.00006" y1="152.001" x2="165.24" y2="135.698" gradientUnits="userSpaceOnUse">
<stop stop-color="#F0B90B"/>
<stop offset="1" stop-color="#A37E07"/>
</linearGradient>
<linearGradient id="paint2_linear_1043_21767" x1="144" y1="15.9995" x2="4.23144" y2="30.4904" gradientUnits="userSpaceOnUse">
<stop stop-color="#F0B90B"/>
<stop offset="1" stop-color="#A37E07"/>
</linearGradient>
<linearGradient id="paint3_linear_1043_21767" x1="30.5882" y1="36.3529" x2="126.941" y2="122.824" gradientUnits="userSpaceOnUse">
<stop stop-color="#00E599"/>
<stop offset="1" stop-color="#00AF92"/>
</linearGradient>
<clipPath id="clip0_1043_21767">
<rect width="112" height="112" fill="white" transform="translate(24 24)"/>
</clipPath>
</defs>
</svg>
