<svg width="160" height="160" viewBox="0 0 160 160" fill="none" xmlns="http://www.w3.org/2000/svg">
<rect y="0.00434875" width="160" height="160" rx="80" fill="white"/>
<path d="M160 80C160 35.8164 124.183 0 79.9987 0C35.8167 0 0 35.8164 0 80C0 124.181 35.8167 160 79.9987 160C124.183 160 160 124.181 160 80Z" fill="white"/>
<mask id="mask0_1043_22601" style="mask-type:alpha" maskUnits="userSpaceOnUse" x="8" y="8" width="144" height="144">
<path d="M151.111 80C151.111 40.7281 119.272 8.88889 79.9984 8.88889C40.7278 8.88889 8.88867 40.7281 8.88867 80C8.88867 119.272 40.7278 151.111 79.9984 151.111C119.272 151.111 151.111 119.272 151.111 80Z" fill="url(#paint0_linear_1043_22601)"/>
<path d="M151.111 80C151.111 40.7281 119.272 8.88889 79.9984 8.88889C40.7278 8.88889 8.88867 40.7281 8.88867 80C8.88867 119.272 40.7278 151.111 79.9984 151.111C119.272 151.111 151.111 119.272 151.111 80Z" fill="white"/>
</mask>
<g mask="url(#mask0_1043_22601)">
<g clip-path="url(#clip0_1043_22601)">
<rect width="142.222" height="142.222" transform="translate(8.88867 8.88889)" fill="white"/>
<path fill-rule="evenodd" clip-rule="evenodd" d="M79.9998 8.88889C119.276 8.88889 151.111 40.7236 151.111 80C151.111 119.276 119.276 151.111 79.9998 151.111C40.7234 151.111 8.88867 119.276 8.88867 80C8.88867 40.7236 40.7234 8.88889 79.9998 8.88889Z" fill="white"/>
<path d="M44.8606 80.0104L44.9168 100.638L62.4402 110.952V123.029L34.6615 106.733V73.9783L44.8606 80.0104ZM44.8606 59.3824V71.4029L34.6553 65.3645V53.344L44.8606 47.3056L55.1159 53.344L44.8606 59.3824ZM69.7583 53.344L79.9636 47.3056L90.2189 53.344L79.9636 59.3824L69.7583 53.344Z" fill="#F0B90B"/>
<path d="M52.2354 96.3628V84.286L62.4407 90.3244V102.345L52.2354 96.3628ZM69.7587 115.278L79.964 121.316L90.2193 115.278V127.299L79.964 133.337L69.7587 127.299V115.278ZM104.855 53.344L115.061 47.3056L125.316 53.344V65.3645L115.061 71.4029V59.3824L104.855 53.344ZM115.061 100.638L115.117 80.0104L125.322 73.972V106.727L97.5437 123.023V110.946L115.061 100.638Z" fill="#F0B90B"/>
<path d="M107.745 96.3685L97.5371 102.351V90.3301L107.745 84.2917V96.3685Z" fill="#F0B90B"/>
<path d="M107.743 63.6548L107.799 75.7315L90.2256 86.0455V106.724L80.0203 112.706L69.815 106.724V86.0455L52.2416 75.7315V63.6548L62.4907 57.6164L79.9578 67.9804L97.5312 57.6164L107.786 63.6548H107.743ZM52.2354 43.033L79.964 26.6806L107.743 43.033L97.5374 49.0714L79.964 38.7074L62.4407 49.0714L52.2354 43.033Z" fill="#F0B90B"/>
</g>
</g>
<defs>
<linearGradient id="paint0_linear_1043_22601" x1="17.2547" y1="24.5752" x2="139.608" y2="134.379" gradientUnits="userSpaceOnUse">
<stop stop-color="#00E599"/>
<stop offset="1" stop-color="#00AF92"/>
</linearGradient>
<clipPath id="clip0_1043_22601">
<rect width="142.222" height="142.222" fill="white" transform="translate(8.88867 8.88889)"/>
</clipPath>
</defs>
</svg>
