<svg width="216" height="138" viewBox="0 0 216 138" fill="none" xmlns="http://www.w3.org/2000/svg">
<g clip-path="url(#clip0_1043_8155)">
<path d="M216.001 63L216.001 74.8733L216.001 75C215.912 91.021 205.412 107.048 184.49 119.331C142.382 144.053 73.9983 144.246 31.7561 119.764C10.4997 107.445 -0.0893974 91.2253 0.000568442 75V63H216.001Z" fill="url(#paint0_linear_1043_8155)"/>
<path d="M216.001 63L216.001 74.8733L216.001 75C215.912 91.021 205.412 107.048 184.49 119.331C142.382 144.053 73.9983 144.246 31.7561 119.764C10.4997 107.445 -0.0893974 91.2253 0.000568442 75V63H216.001Z" fill="black" fill-opacity="0.2"/>
<path d="M184.246 18.2363C142.001 -6.24717 73.6204 -6.05281 31.5097 18.6707C-10.5986 43.3928 -10.4894 83.281 31.7555 107.764C73.9977 132.246 142.381 132.053 184.489 107.331C226.6 82.6079 226.488 42.7181 184.246 18.2363Z" fill="url(#paint1_linear_1043_8155)"/>
<path d="M38.1084 103.146C76.8329 125.103 139.516 124.928 178.116 102.756C216.716 80.5842 216.615 44.8125 177.89 22.8551C139.166 0.8978 76.4855 1.0715 37.8854 23.2434C-0.71482 45.4153 -0.616108 81.1885 38.1084 103.146Z" fill="url(#paint2_linear_1043_8155)"/>
<path d="M170.832 27.1179C136.019 7.49225 79.6686 7.64805 44.9663 27.4661C10.2659 47.283 10.356 79.2569 45.1689 98.8825C79.9796 118.507 136.332 118.352 171.033 98.5354C205.735 78.7173 205.643 46.7422 170.832 27.1179Z" fill="url(#paint3_linear_1043_8155)"/>
<path d="M170.832 27.1179C136.019 7.49225 79.6686 7.64805 44.9663 27.4661C10.2659 47.283 10.356 79.2569 45.1689 98.8825C79.9796 118.507 136.332 118.352 171.033 98.5354C205.735 78.7173 205.643 46.7422 170.832 27.1179Z" fill="white" fill-opacity="0.64"/>
<mask id="mask0_1043_8155" style="mask-type:alpha" maskUnits="userSpaceOnUse" x="29" y="17" width="158" height="91">
<path d="M163.591 30.5758C132.883 13.0747 83.1714 13.2135 52.5608 30.8865C21.9523 48.5583 22.0321 77.0747 52.7397 94.5758C83.4473 112.077 133.159 111.938 163.768 94.2664C194.378 76.5933 194.299 48.0769 163.591 30.5758Z" fill="url(#paint4_linear_1043_8155)"/>
<path d="M163.591 30.5758C132.883 13.0747 83.1714 13.2135 52.5608 30.8865C21.9523 48.5583 22.0321 77.0747 52.7397 94.5758C83.4473 112.077 133.159 111.938 163.768 94.2664C194.378 76.5933 194.299 48.0769 163.591 30.5758Z" fill="white"/>
</mask>
<g mask="url(#mask0_1043_8155)">
<g clip-path="url(#clip1_1043_8155)">
<rect width="128" height="128" transform="matrix(0.866025 -0.5 0.868804 0.495155 -2.86377 62.8859)" fill="white"/>
<path d="M163.769 94.2658C194.38 76.5926 194.3 48.0777 163.591 30.5758C132.882 13.0739 83.1726 13.2127 52.5619 30.8859C21.9511 48.559 22.0308 77.0739 52.7397 94.5758C83.4487 112.078 133.158 111.939 163.769 94.2658Z" fill="white"/>
<path fill-rule="evenodd" clip-rule="evenodd" d="M144.927 83.7142C134.132 89.9374 122.846 93.474 112.111 94.321C101.247 95.178 91.2892 93.2423 83.71 88.9227C76.407 84.7605 74.3931 79.8815 74.5133 75.7283C74.6076 72.4735 76.0034 69.6179 77.1916 67.7529C75.1478 67.1629 72.5028 66.3728 69.8574 65.5068C66.3175 64.3479 62.3081 62.9052 59.9081 61.5374C57.0673 59.9184 54.8318 57.936 54.2796 55.7115C53.6962 53.3612 55.0892 51.1176 58.2744 49.2786C60.7637 47.8414 63.8036 47.149 67.0563 47.1046C70.1653 47.062 73.2467 47.6105 76.0881 48.3961C81.081 49.7765 86.2468 52.1501 91.0452 54.7247L94.0962 52.9633C89.5768 50.2275 85.4055 47.2798 82.9669 44.4246C81.579 42.7998 80.6029 41.0358 80.657 39.2522C80.7135 37.3861 81.9006 35.638 84.3901 34.2007C87.5753 32.3617 91.4776 31.5482 95.5784 31.8676C99.4598 32.17 102.93 33.4394 105.771 35.0585C108.171 36.4263 110.712 38.7168 112.755 40.7399C114.282 42.2518 115.676 43.7638 116.718 44.9324C119.961 44.2387 124.93 43.4196 130.604 43.3445C137.843 43.2486 146.361 44.3723 153.664 48.5345C161.244 52.8541 164.683 58.5534 163.259 64.7907C161.852 70.954 155.76 77.4506 144.981 83.683L144.927 83.7142Z" fill="#633001"/>
<path d="M60.9753 50.8184C56.3099 53.5119 57.6897 56.762 62.5678 59.5422C66.4451 61.752 76.7058 64.737 80.7525 65.8688C81.6626 66.1234 82.0457 66.7569 81.6496 67.2881C79.4047 70.2984 73.841 79.7869 86.3699 86.9275C99.5677 94.4493 120.732 93.6467 141.426 81.717C141.434 81.7122 141.443 81.7075 141.451 81.7027C141.459 81.698 141.467 81.6932 141.476 81.6884C162.138 69.7408 163.4 57.5954 150.203 50.0736C137.674 42.9331 121.169 46.1858 115.936 47.493C115.012 47.7238 113.905 47.5081 113.456 46.9876C111.457 44.6737 106.186 38.8074 102.309 36.5976C97.4309 33.8174 91.7561 33.047 87.0909 35.7405C80.3754 39.6177 88.342 46.0786 98.5694 52.0444C99.2522 52.4427 99.2616 53.0803 98.58 53.4738L91.9633 57.2939C91.2816 57.6875 90.1702 57.6862 89.4715 57.2971C79.0053 51.4691 67.6907 46.9412 60.9753 50.8184Z" fill="#D1884F"/>
<path d="M137.248 79.2789C122.055 88.0508 97.0908 93.0074 86.395 86.9417C86.4117 86.9512 86.4284 86.9607 86.4449 86.9701C99.6534 94.498 120.841 93.688 141.551 81.7311C162.261 69.7743 163.536 57.6156 150.327 50.0878C150.31 50.0783 150.294 50.0688 150.277 50.0593C160.92 56.1554 152.441 70.5069 137.248 79.2789Z" fill="#FEDC90"/>
<path d="M106.616 71.507C110.218 73.56 110.414 75.5991 108.342 76.7955C106.27 77.9919 102.714 77.8924 99.1117 75.8394C95.5095 73.7863 95.313 71.7472 97.3853 70.5508C99.4574 69.3545 103.013 69.4539 106.616 71.507Z" fill="#633001"/>
<path d="M131.005 57.426C134.607 59.4791 134.804 61.5181 132.731 62.7145C130.659 63.9109 127.103 63.8115 123.501 61.7584C119.899 59.7054 119.702 57.6662 121.774 56.4699C123.847 55.2735 127.403 55.373 131.005 57.426Z" fill="#633001"/>
</g>
</g>
</g>
<defs>
<linearGradient id="paint0_linear_1043_8155" x1="107.757" y1="47.4678" x2="80.2592" y2="145.698" gradientUnits="userSpaceOnUse">
<stop stop-color="#D1884F"/>
<stop offset="1" stop-color="#8E5C36"/>
</linearGradient>
<linearGradient id="paint1_linear_1043_8155" x1="107.756" y1="-26.0939" x2="39.2228" y2="119.635" gradientUnits="userSpaceOnUse">
<stop stop-color="#D1884F"/>
<stop offset="1" stop-color="#8E5C36"/>
</linearGradient>
<linearGradient id="paint2_linear_1043_8155" x1="108.223" y1="142.902" x2="168.826" y2="11.1872" gradientUnits="userSpaceOnUse">
<stop stop-color="#D1884F"/>
<stop offset="1" stop-color="#8E5C36"/>
</linearGradient>
<linearGradient id="paint3_linear_1043_8155" x1="107.799" y1="-8.41665" x2="53.8366" y2="109.548" gradientUnits="userSpaceOnUse">
<stop stop-color="#D1884F"/>
<stop offset="1" stop-color="#8E5C36"/>
</linearGradient>
<linearGradient id="paint4_linear_1043_8155" x1="15.9224" y1="66.1116" x2="196.043" y2="48.631" gradientUnits="userSpaceOnUse">
<stop stop-color="#00E599"/>
<stop offset="1" stop-color="#00AF92"/>
</linearGradient>
<clipPath id="clip0_1043_8155">
<rect width="216" height="138" fill="white"/>
</clipPath>
<clipPath id="clip1_1043_8155">
<rect width="128" height="128" fill="white" transform="matrix(0.866025 -0.5 0.868804 0.495155 -2.86377 62.8859)"/>
</clipPath>
</defs>
</svg>
