<svg width="160" height="160" viewBox="0 0 160 160" fill="none" xmlns="http://www.w3.org/2000/svg">
<path d="M160 80C160 35.8164 124.183 0 79.9987 0C35.8167 0 0 35.8164 0 80C0 124.181 35.8167 160 79.9987 160C124.183 160 160 124.181 160 80Z" fill="url(#paint0_linear_1043_21601)"/>
<path d="M8.00048 80C8.00049 119.765 40.2368 152 80.0018 152C119.767 152 152 119.765 152 80C152 40.2346 119.767 8 80.0018 8.00001C40.2368 8.00001 8.00048 40.2346 8.00048 80Z" fill="url(#paint1_linear_1043_21601)"/>
<path d="M144 80C144 44.6531 115.347 16 79.999 16C44.6534 16 16 44.6531 16 80C16 115.345 44.6534 144 79.999 144C115.347 144 144 115.345 144 80Z" fill="url(#paint2_linear_1043_21601)"/>
<path d="M144 80C144 44.6531 115.347 16 79.999 16C44.6534 16 16 44.6531 16 80C16 115.345 44.6534 144 79.999 144C115.347 144 144 115.345 144 80Z" fill="white" fill-opacity="0.64"/>
<mask id="mask0_1043_21601" style="mask-type:alpha" maskUnits="userSpaceOnUse" x="24" y="24" width="112" height="112">
<path d="M136 80C136 49.0734 110.927 24 79.9989 24C49.0733 24 24 49.0734 24 80C24 110.927 49.0733 136 79.9989 136C110.927 136 136 110.927 136 80Z" fill="url(#paint3_linear_1043_21601)"/>
<path d="M136 80C136 49.0734 110.927 24 79.9989 24C49.0733 24 24 49.0734 24 80C24 110.927 49.0733 136 79.9989 136C110.927 136 136 110.927 136 80Z" fill="white"/>
</mask>
<g mask="url(#mask0_1043_21601)">
<g clip-path="url(#clip0_1043_21601)">
<rect width="112" height="112" transform="translate(24 24)" fill="white"/>
<path d="M80 136C110.928 136 136 110.928 136 80C136 49.0721 110.928 24 80 24C49.0721 24 24 49.0721 24 80C24 110.928 49.0721 136 80 136Z" fill="white"/>
<path fill-rule="evenodd" clip-rule="evenodd" d="M79.8354 117.188C68.9367 117.179 60.1577 114.564 54.0237 109.867C47.8161 105.113 44.5229 98.3671 44.5229 90.7338C44.5229 83.3787 47.8089 78.075 51.5268 74.4901C54.4405 71.6806 57.6559 69.8813 59.8947 68.8463C59.3885 67.2926 58.7568 65.2584 58.1916 63.1574C57.4355 60.346 56.6936 57.0475 56.6936 54.6304C56.6936 51.7694 57.3174 48.8961 58.9993 46.6635C60.7763 44.3047 63.4513 43.0411 66.6696 43.0411C69.1847 43.0411 71.3201 43.9739 72.9918 45.5835C74.5898 47.1218 75.6534 49.165 76.3877 51.2948C77.678 55.0371 78.1805 59.7389 78.3214 64.431H81.404C81.5449 59.7389 82.0473 55.0371 83.3377 51.2948C84.072 49.165 85.1356 47.1218 86.7335 45.5835C88.4053 43.9739 90.5406 43.0411 93.0558 43.0411C96.2741 43.0411 98.9491 44.3047 100.726 46.6635C102.408 48.8961 103.032 51.7694 103.032 54.6304C103.032 57.0475 102.29 60.346 101.534 63.1574C100.968 65.2584 100.337 67.2926 99.8305 68.8463C102.069 69.8813 105.285 71.6806 108.198 74.4901C111.916 78.075 115.202 83.3787 115.202 90.7338C115.202 98.3671 111.909 105.113 105.702 109.867C99.5677 114.564 90.7886 117.179 79.89 117.188H79.8354Z" fill="#633001"/>
<path d="M66.6692 45.7618C61.9556 45.7618 59.7858 49.3142 59.7858 54.2271C59.7858 58.1321 62.307 65.9528 63.3413 68.9973C63.574 69.6821 63.2083 70.4323 62.5417 70.6979C58.7639 72.2026 47.6152 77.7123 47.6152 90.3305C47.6152 103.622 58.9447 113.645 79.8374 113.66C79.8457 113.66 79.854 113.66 79.8624 113.66C79.8707 113.66 79.8789 113.66 79.8873 113.66C100.78 113.645 112.109 103.622 112.109 90.3305C112.109 77.7123 100.961 72.2026 97.1831 70.6979C96.5163 70.4323 96.1508 69.6821 96.3834 68.9973C97.4178 65.9528 99.9388 58.1321 99.9388 54.2271C99.9388 49.3142 97.7691 45.7618 93.0555 45.7618C86.2704 45.7618 84.5791 55.4711 84.4585 65.8917C84.4504 66.5874 83.8937 67.1518 83.205 67.1518H76.5198C75.831 67.1518 75.2743 66.5874 75.2663 65.8917C75.1456 55.4711 73.4542 45.7618 66.6692 45.7618Z" fill="#D1884F"/>
<path d="M79.8873 109.402C64.5365 109.402 47.6417 101.101 47.6152 90.3556C47.6152 90.3724 47.6152 90.3892 47.6152 90.4059C47.6152 103.709 58.9628 113.736 79.8873 113.736C100.812 113.736 112.159 103.709 112.159 90.4059C112.159 90.3892 112.159 90.3724 112.159 90.3556C112.133 101.101 95.2382 109.402 79.8873 109.402Z" fill="#FEDC90"/>
<path d="M71.3571 87.0547C71.3571 90.6827 69.6598 92.5723 67.5662 92.5723C65.4725 92.5723 63.7754 90.6827 63.7754 87.0547C63.7754 83.4268 65.4725 81.5372 67.5662 81.5372C69.6598 81.5372 71.3571 83.4268 71.3571 87.0547Z" fill="#633001"/>
<path d="M95.9987 87.0547C95.9987 90.6827 94.3015 92.5723 92.2078 92.5723C90.1143 92.5723 88.417 90.6827 88.417 87.0547C88.417 83.4268 90.1143 81.5372 92.2078 81.5372C94.3015 81.5372 95.9987 83.4268 95.9987 87.0547Z" fill="#633001"/>
</g>
</g>
<defs>
<linearGradient id="paint0_linear_1043_21601" x1="160" y1="-0.00063818" x2="-14.7107" y2="18.113" gradientUnits="userSpaceOnUse">
<stop stop-color="#D1884F"/>
<stop offset="1" stop-color="#8E5C36"/>
</linearGradient>
<linearGradient id="paint1_linear_1043_21601" x1="8.00055" y1="152.001" x2="165.24" y2="135.698" gradientUnits="userSpaceOnUse">
<stop stop-color="#D1884F"/>
<stop offset="1" stop-color="#8E5C36"/>
</linearGradient>
<linearGradient id="paint2_linear_1043_21601" x1="144" y1="15.9995" x2="4.23144" y2="30.4904" gradientUnits="userSpaceOnUse">
<stop stop-color="#D1884F"/>
<stop offset="1" stop-color="#8E5C36"/>
</linearGradient>
<linearGradient id="paint3_linear_1043_21601" x1="30.5882" y1="36.3529" x2="126.941" y2="122.824" gradientUnits="userSpaceOnUse">
<stop stop-color="#00E599"/>
<stop offset="1" stop-color="#00AF92"/>
</linearGradient>
<clipPath id="clip0_1043_21601">
<rect width="112" height="112" fill="white" transform="translate(24 24)"/>
</clipPath>
</defs>
</svg>
