<svg width="160" height="160" viewBox="0 0 160 160" fill="none" xmlns="http://www.w3.org/2000/svg">
<rect y="0.00434875" width="160" height="160" rx="80" fill="white"/>
<path d="M160 80C160 35.8164 124.183 0 79.9987 0C35.8167 0 0 35.8164 0 80C0 124.181 35.8167 160 79.9987 160C124.183 160 160 124.181 160 80Z" fill="white"/>
<mask id="mask0_1043_21989" style="mask-type:alpha" maskUnits="userSpaceOnUse" x="8" y="8" width="144" height="144">
<path d="M151.111 80C151.111 40.7281 119.272 8.88889 79.9984 8.88889C40.7278 8.88889 8.88867 40.7281 8.88867 80C8.88867 119.272 40.7278 151.111 79.9984 151.111C119.272 151.111 151.111 119.272 151.111 80Z" fill="url(#paint0_linear_1043_21989)"/>
<path d="M151.111 80C151.111 40.7281 119.272 8.88889 79.9984 8.88889C40.7278 8.88889 8.88867 40.7281 8.88867 80C8.88867 119.272 40.7278 151.111 79.9984 151.111C119.272 151.111 151.111 119.272 151.111 80Z" fill="white"/>
</mask>
<g mask="url(#mask0_1043_21989)">
<g clip-path="url(#clip0_1043_21989)">
<rect width="142.222" height="142.222" transform="translate(8.88867 8.88889)" fill="white"/>
<path d="M79.9998 151.111C119.273 151.111 151.111 119.274 151.111 80C151.111 40.7264 119.273 8.88889 79.9998 8.88889C40.7262 8.88889 8.88867 40.7264 8.88867 80C8.88867 119.274 40.7262 151.111 79.9998 151.111Z" fill="white"/>
<path fill-rule="evenodd" clip-rule="evenodd" d="M79.7904 127.223C65.9509 127.212 54.8029 123.891 47.0137 117.926C39.131 111.89 34.9492 103.323 34.9492 93.6303C34.9492 84.2905 39.1218 77.5557 43.843 73.0034C47.543 69.4358 51.626 67.1509 54.4689 65.8367C53.8261 63.8637 53.0239 61.2805 52.3063 58.6127C51.3461 55.0426 50.404 50.854 50.404 47.7847C50.404 44.1517 51.1962 40.5031 53.3319 37.668C55.5883 34.6727 58.9852 33.0681 63.0719 33.0681C66.2657 33.0681 68.9774 34.2527 71.1002 36.2965C73.1294 38.25 74.4799 40.8445 75.4123 43.549C77.0509 48.3011 77.6889 54.2717 77.8679 60.2299H81.7823C81.9612 54.2717 82.5991 48.3011 84.2378 43.549C85.1703 40.8445 86.5208 38.25 88.55 36.2965C90.6728 34.2527 93.3843 33.0681 96.5783 33.0681C100.665 33.0681 104.062 34.6727 106.318 37.668C108.454 40.5031 109.246 44.1517 109.246 47.7847C109.246 50.854 108.304 55.0426 107.344 58.6127C106.626 61.2805 105.824 63.8637 105.181 65.8367C108.024 67.1509 112.107 69.4358 115.807 73.0034C120.528 77.5557 124.701 84.2905 124.701 93.6303C124.701 103.323 120.519 111.89 112.636 117.926C104.847 123.891 93.6993 127.212 79.8597 127.223H79.7904Z" fill="#633001"/>
<path d="M63.0715 36.523C57.0859 36.523 54.3306 41.0339 54.3306 47.2726C54.3306 52.2313 57.5321 62.1624 58.8456 66.0285C59.141 66.8979 58.6767 67.8507 57.8302 68.1879C53.033 70.0987 38.876 77.0951 38.876 93.1182C38.876 109.997 53.2626 122.723 79.793 122.743C79.8035 122.743 79.8141 122.743 79.8247 122.743C79.8352 122.743 79.8458 122.743 79.8564 122.743C106.387 122.723 120.773 109.997 120.773 93.1182C120.773 77.0951 106.616 70.0987 101.819 68.1879C100.973 67.8507 100.508 66.8979 100.804 66.0285C102.117 62.1624 105.319 52.2313 105.319 47.2726C105.319 41.0339 102.563 36.523 96.5779 36.523C87.9619 36.523 85.8142 48.8523 85.661 62.0847C85.6508 62.9682 84.9438 63.6849 84.0693 63.6849H75.5801C74.7055 63.6849 73.9986 62.9682 73.9884 62.0847C73.8352 48.8523 71.6874 36.523 63.0715 36.523Z" fill="#D1884F"/>
<path d="M79.8564 117.336C60.3632 117.336 38.9096 106.795 38.876 93.1501C38.876 93.1714 38.876 93.1927 38.876 93.2139C38.876 110.106 53.2856 122.839 79.8564 122.839C106.427 122.839 120.837 110.106 120.837 93.2139C120.837 93.1927 120.837 93.1714 120.837 93.1501C120.803 106.795 99.3496 117.336 79.8564 117.336Z" fill="#FEDC90"/>
<path d="M69.0245 88.9585C69.0245 93.5655 66.8693 95.9649 64.2108 95.9649C61.5521 95.9649 59.397 93.5655 59.397 88.9585C59.397 84.3516 61.5521 81.9521 64.2108 81.9521C66.8693 81.9521 69.0245 84.3516 69.0245 88.9585Z" fill="#633001"/>
<path d="M100.315 88.9585C100.315 93.5655 98.1599 95.9649 95.5013 95.9649C92.8428 95.9649 90.6875 93.5655 90.6875 88.9585C90.6875 84.3516 92.8428 81.9521 95.5013 81.9521C98.1599 81.9521 100.315 84.3516 100.315 88.9585Z" fill="#633001"/>
</g>
</g>
<defs>
<linearGradient id="paint0_linear_1043_21989" x1="17.2547" y1="24.5752" x2="139.608" y2="134.379" gradientUnits="userSpaceOnUse">
<stop stop-color="#00E599"/>
<stop offset="1" stop-color="#00AF92"/>
</linearGradient>
<clipPath id="clip0_1043_21989">
<rect width="142.222" height="142.222" fill="white" transform="translate(8.88867 8.88889)"/>
</clipPath>
</defs>
</svg>
