<svg width="216" height="138" viewBox="0 0 216 138" fill="none" xmlns="http://www.w3.org/2000/svg">
<g clip-path="url(#clip0_1043_8255)">
<path d="M216.001 63L216.001 74.8733L216.001 75C215.912 91.021 205.412 107.048 184.49 119.331C142.382 144.053 73.9983 144.246 31.7561 119.764C10.4997 107.445 -0.0893974 91.2253 0.000568442 75V63H216.001Z" fill="url(#paint0_linear_1043_8255)"/>
<path d="M216.001 63L216.001 74.8733L216.001 75C215.912 91.021 205.412 107.048 184.49 119.331C142.382 144.053 73.9983 144.246 31.7561 119.764C10.4997 107.445 -0.0893974 91.2253 0.000568442 75V63H216.001Z" fill="black" fill-opacity="0.2"/>
<path d="M184.246 18.2363C142.001 -6.24717 73.6204 -6.05281 31.5097 18.6707C-10.5986 43.3928 -10.4894 83.281 31.7555 107.764C73.9977 132.246 142.381 132.053 184.489 107.331C226.6 82.6079 226.488 42.7181 184.246 18.2363Z" fill="url(#paint1_linear_1043_8255)"/>
<path d="M38.1084 103.146C76.8329 125.103 139.516 124.928 178.116 102.756C216.716 80.5842 216.615 44.8125 177.89 22.8551C139.166 0.8978 76.4855 1.0715 37.8854 23.2434C-0.71482 45.4153 -0.616108 81.1885 38.1084 103.146Z" fill="url(#paint2_linear_1043_8255)"/>
<path d="M170.832 27.1179C136.019 7.49225 79.6686 7.64805 44.9663 27.4661C10.2659 47.283 10.356 79.2569 45.1689 98.8825C79.9796 118.507 136.332 118.352 171.033 98.5354C205.735 78.7173 205.643 46.7422 170.832 27.1179Z" fill="url(#paint3_linear_1043_8255)"/>
<path d="M170.832 27.1179C136.019 7.49225 79.6686 7.64805 44.9663 27.4661C10.2659 47.283 10.356 79.2569 45.1689 98.8825C79.9796 118.507 136.332 118.352 171.033 98.5354C205.735 78.7173 205.643 46.7422 170.832 27.1179Z" fill="#161618" fill-opacity="0.64"/>
<mask id="mask0_1043_8255" style="mask-type:alpha" maskUnits="userSpaceOnUse" x="29" y="17" width="158" height="91">
<path d="M163.591 30.5758C132.884 13.0747 83.1719 13.2135 52.5613 30.8865C21.9528 48.5583 22.0326 77.0747 52.7402 94.5758C83.4478 112.077 133.16 111.938 163.768 94.2664C194.379 76.5933 194.299 48.0769 163.591 30.5758Z" fill="url(#paint4_linear_1043_8255)"/>
<path d="M163.591 30.5758C132.884 13.0747 83.1719 13.2135 52.5613 30.8865C21.9528 48.5583 22.0326 77.0747 52.7402 94.5758C83.4478 112.077 133.16 111.938 163.768 94.2664C194.379 76.5933 194.299 48.0769 163.591 30.5758Z" fill="white"/>
</mask>
<g mask="url(#mask0_1043_8255)">
<g clip-path="url(#clip1_1043_8255)">
<rect width="128" height="128" transform="matrix(0.866025 -0.5 0.868804 0.495155 -2.86328 62.8859)" fill="#161618"/>
<path d="M89.6905 30.985L71.333 41.5837L80.5412 46.8318L98.8988 36.233L89.6905 30.985Z" fill="#643B9F"/>
<path d="M135.702 46.6777L126.494 41.4297L108.136 52.0284L154.178 78.2685L163.356 72.9691L154.148 67.7211L163.327 62.4218L154.119 57.1738L163.297 51.8744L144.881 41.3784L135.702 46.6777Z" fill="#643B9F"/>
<path fill-rule="evenodd" clip-rule="evenodd" d="M52.9757 52.1825L80.512 36.2844L108.137 52.0284L117.315 46.7291L126.524 51.9771L135.702 46.6777L154.119 57.1737L144.94 62.4731L154.148 67.7211L144.97 73.0205L154.178 78.2685L126.641 94.1666L117.433 88.9186L108.254 94.2179L99.0462 88.9699L89.8675 94.2693L71.451 83.7733L80.6298 78.4739L71.4216 73.2259L89.7791 62.6271L71.3627 52.1311L62.1839 57.4305L52.9757 52.1825ZM117.404 78.3712L135.761 67.7725L117.345 57.2764L98.9873 67.8752L117.404 78.3712Z" fill="#865BC2"/>
</g>
</g>
</g>
<defs>
<linearGradient id="paint0_linear_1043_8255" x1="107.757" y1="47.4678" x2="80.2592" y2="145.698" gradientUnits="userSpaceOnUse">
<stop stop-color="#865BC2"/>
<stop offset="1" stop-color="#5B3E84"/>
</linearGradient>
<linearGradient id="paint1_linear_1043_8255" x1="107.756" y1="-26.0939" x2="39.2228" y2="119.635" gradientUnits="userSpaceOnUse">
<stop stop-color="#865BC2"/>
<stop offset="1" stop-color="#5B3E84"/>
</linearGradient>
<linearGradient id="paint2_linear_1043_8255" x1="108.223" y1="142.902" x2="168.826" y2="11.1872" gradientUnits="userSpaceOnUse">
<stop stop-color="#865BC2"/>
<stop offset="1" stop-color="#5B3E84"/>
</linearGradient>
<linearGradient id="paint3_linear_1043_8255" x1="107.799" y1="-8.41665" x2="53.8366" y2="109.548" gradientUnits="userSpaceOnUse">
<stop stop-color="#865BC2"/>
<stop offset="1" stop-color="#5B3E84"/>
</linearGradient>
<linearGradient id="paint4_linear_1043_8255" x1="15.9229" y1="66.1116" x2="196.044" y2="48.631" gradientUnits="userSpaceOnUse">
<stop stop-color="#00E599"/>
<stop offset="1" stop-color="#00AF92"/>
</linearGradient>
<clipPath id="clip0_1043_8255">
<rect width="216" height="138" fill="white"/>
</clipPath>
<clipPath id="clip1_1043_8255">
<rect width="128" height="128" fill="white" transform="matrix(0.866025 -0.5 0.868804 0.495155 -2.86328 62.8859)"/>
</clipPath>
</defs>
</svg>
