<svg width="160" height="160" viewBox="0 0 160 160" fill="none" xmlns="http://www.w3.org/2000/svg">
<path d="M160 80C160 35.8164 124.183 0 79.9987 0C35.8167 0 0 35.8164 0 80C0 124.181 35.8167 160 79.9987 160C124.183 160 160 124.181 160 80Z" fill="url(#paint0_linear_1043_21724)"/>
<path d="M7.99999 80C8 119.765 40.2363 152 80.0013 152C119.766 152 152 119.765 152 80C152 40.2346 119.766 8 80.0013 8.00001C40.2363 8.00001 7.99999 40.2346 7.99999 80Z" fill="url(#paint1_linear_1043_21724)"/>
<path d="M144 80C144 44.6531 115.347 16 79.999 16C44.6534 16 16 44.6531 16 80C16 115.345 44.6534 144 79.999 144C115.347 144 144 115.345 144 80Z" fill="url(#paint2_linear_1043_21724)"/>
<path d="M144 80C144 44.6531 115.347 16 79.999 16C44.6534 16 16 44.6531 16 80C16 115.345 44.6534 144 79.999 144C115.347 144 144 115.345 144 80Z" fill="#161618" fill-opacity="0.64"/>
<mask id="mask0_1043_21724" style="mask-type:alpha" maskUnits="userSpaceOnUse" x="24" y="24" width="112" height="112">
<path d="M136 80C136 49.0734 110.927 24 79.9989 24C49.0733 24 24 49.0734 24 80C24 110.927 49.0733 136 79.9989 136C110.927 136 136 110.927 136 80Z" fill="url(#paint3_linear_1043_21724)"/>
<path d="M136 80C136 49.0734 110.927 24 79.9989 24C49.0733 24 24 49.0734 24 80C24 110.927 49.0733 136 79.9989 136C110.927 136 136 110.927 136 80Z" fill="white"/>
</mask>
<g mask="url(#mask0_1043_21724)">
<rect width="112" height="112" transform="translate(24 24)" fill="#161618"/>
<path d="M98.5478 42.9044H80V52.1783H98.5478V42.9044Z" fill="#643B9F"/>
<path d="M107.822 80V70.7261H89.2739V117.096H98.5478V107.822H107.822V98.5477H117.096V80H107.822Z" fill="#643B9F"/>
<path fill-rule="evenodd" clip-rule="evenodd" d="M61.4521 42.9044H89.2737V70.726H98.5476V79.9999H107.821V98.5477H98.5476V107.822H89.2737V117.095H61.4521V107.822H52.1782V98.5477H42.9043V79.9999H52.1782V70.726H70.726V52.1782H61.4521V42.9044ZM70.726 98.5477H89.2737V79.9999H70.726V98.5477Z" fill="#865BC2"/>
</g>
<defs>
<linearGradient id="paint0_linear_1043_21724" x1="160" y1="-0.00063818" x2="-14.7107" y2="18.113" gradientUnits="userSpaceOnUse">
<stop stop-color="#643B9F"/>
<stop offset="1" stop-color="#44286C"/>
</linearGradient>
<linearGradient id="paint1_linear_1043_21724" x1="8.00006" y1="152.001" x2="165.24" y2="135.698" gradientUnits="userSpaceOnUse">
<stop stop-color="#643B9F"/>
<stop offset="1" stop-color="#44286C"/>
</linearGradient>
<linearGradient id="paint2_linear_1043_21724" x1="144" y1="15.9995" x2="4.23144" y2="30.4904" gradientUnits="userSpaceOnUse">
<stop stop-color="#643B9F"/>
<stop offset="1" stop-color="#44286C"/>
</linearGradient>
<linearGradient id="paint3_linear_1043_21724" x1="30.5882" y1="36.3529" x2="126.941" y2="122.824" gradientUnits="userSpaceOnUse">
<stop stop-color="#00E599"/>
<stop offset="1" stop-color="#00AF92"/>
</linearGradient>
</defs>
</svg>
