<svg width="160" height="160" viewBox="0 0 160 160" fill="none" xmlns="http://www.w3.org/2000/svg">
<rect y="0.00434875" width="160" height="160" rx="80" fill="white"/>
<path d="M160 80C160 35.8164 124.183 0 79.9987 0C35.8167 0 0 35.8164 0 80C0 124.181 35.8167 160 79.9987 160C124.183 160 160 124.181 160 80Z" fill="#161618"/>
<mask id="mask0_1043_22638" style="mask-type:alpha" maskUnits="userSpaceOnUse" x="8" y="8" width="144" height="144">
<path d="M151.111 80C151.111 40.7281 119.272 8.88889 79.9984 8.88889C40.7278 8.88889 8.88867 40.7281 8.88867 80C8.88867 119.272 40.7278 151.111 79.9984 151.111C119.272 151.111 151.111 119.272 151.111 80Z" fill="url(#paint0_linear_1043_22638)"/>
<path d="M151.111 80C151.111 40.7281 119.272 8.88889 79.9984 8.88889C40.7278 8.88889 8.88867 40.7281 8.88867 80C8.88867 119.272 40.7278 151.111 79.9984 151.111C119.272 151.111 151.111 119.272 151.111 80Z" fill="white"/>
</mask>
<g mask="url(#mask0_1043_22638)">
<rect width="142.222" height="142.222" transform="translate(8.88867 8.88889)" fill="#161618"/>
<path d="M103.553 32.8946H80V44.6709H103.553V32.8946Z" fill="#643B9F"/>
<path d="M115.329 80V68.2237H91.7764V127.105H103.553V115.329H115.329V103.553H127.105V80H115.329Z" fill="#643B9F"/>
<path fill-rule="evenodd" clip-rule="evenodd" d="M56.4463 32.8946H91.7754V68.2237H103.552V80H115.328V103.553H103.552V115.329H91.7754V127.105H56.4463V115.329H44.6699V103.553H32.8936V80H44.6699V68.2237H68.2226V44.6709H56.4463V32.8946ZM68.2226 103.553H91.7754V80H68.2226V103.553Z" fill="#865BC2"/>
</g>
<defs>
<linearGradient id="paint0_linear_1043_22638" x1="17.2547" y1="24.5752" x2="139.608" y2="134.379" gradientUnits="userSpaceOnUse">
<stop stop-color="#00E599"/>
<stop offset="1" stop-color="#00AF92"/>
</linearGradient>
</defs>
</svg>
