<svg width="160" height="160" viewBox="0 0 160 160" fill="none" xmlns="http://www.w3.org/2000/svg">
<path d="M160 80C160 35.8164 124.183 0 79.9987 0C35.8167 0 0 35.8164 0 80C0 124.181 35.8167 160 79.9987 160C124.183 160 160 124.181 160 80Z" fill="url(#paint0_linear_1043_21675)"/>
<path d="M8.00048 80C8.00049 119.765 40.2368 152 80.0018 152C119.767 152 152 119.765 152 80C152 40.2346 119.767 8 80.0018 8.00001C40.2368 8.00001 8.00048 40.2346 8.00048 80Z" fill="url(#paint1_linear_1043_21675)"/>
<path d="M144 80C144 44.6531 115.347 16 79.999 16C44.6534 16 16 44.6531 16 80C16 115.345 44.6534 144 79.999 144C115.347 144 144 115.345 144 80Z" fill="url(#paint2_linear_1043_21675)"/>
<path d="M144 80C144 44.6531 115.347 16 79.999 16C44.6534 16 16 44.6531 16 80C16 115.345 44.6534 144 79.999 144C115.347 144 144 115.345 144 80Z" fill="white" fill-opacity="0.64"/>
<mask id="mask0_1043_21675" style="mask-type:alpha" maskUnits="userSpaceOnUse" x="24" y="24" width="112" height="112">
<path d="M136 80C136 49.0734 110.927 24 79.9989 24C49.0733 24 24 49.0734 24 80C24 110.927 49.0733 136 79.9989 136C110.927 136 136 110.927 136 80Z" fill="url(#paint3_linear_1043_21675)"/>
<path d="M136 80C136 49.0734 110.927 24 79.9989 24C49.0733 24 24 49.0734 24 80C24 110.927 49.0733 136 79.9989 136C110.927 136 136 110.927 136 80Z" fill="white"/>
</mask>
<g mask="url(#mask0_1043_21675)">
<rect width="112" height="112" transform="translate(24 24)" fill="white"/>
<path d="M65.3174 59.0003L64.779 59.5375L52.4455 71.8444L48.7258 75.556C48.5298 75.8444 48.2807 76.093 47.9917 76.2886C47.4386 76.651 46.764 76.7794 46.1161 76.6457C45.4682 76.512 44.9 76.1271 44.5363 75.5756C44.2621 75.1653 44.1187 74.6818 44.1252 74.1886V62.5165C44.2266 59.7741 45.3902 57.1779 47.371 55.2742C49.3519 53.3705 51.9956 52.3077 54.7458 52.3096H65.3174L62.234 55.4352L58.6612 59.0003H65.3174Z" fill="url(#paint4_linear_1043_21675)"/>
<path d="M115.875 65.7396V66.521C115.697 73.1553 113.125 79.5024 108.632 84.3954L73.6377 119.314C71.699 121.043 69.1901 121.999 66.5899 122C65.8846 121.986 65.1812 121.921 64.4854 121.805L62.4298 121.17C60.2315 120.408 58.0891 119.494 56.0183 118.435L55.5779 118.191C55.3887 118.049 55.2366 117.865 55.1343 117.652C55.0321 117.439 54.9828 117.205 54.9905 116.97C54.9856 116.637 55.0886 116.311 55.2842 116.042L94.5362 76.8257C94.7269 76.6187 94.8913 76.3891 95.0256 76.1419C95.2698 75.6743 95.4666 75.1835 95.6129 74.6768C95.6861 74.3553 95.7352 74.0288 95.7598 73.7001C95.803 73.4914 95.8194 73.278 95.8087 73.0652C95.8087 71.3296 95.1177 69.665 93.8878 68.4378C92.6579 67.2105 90.9898 66.521 89.2504 66.521H74.9102L84.5519 56.9001C84.8409 56.7046 85.09 56.456 85.286 56.1676C85.5457 55.7588 85.6816 55.284 85.6776 54.8001C85.6776 54.1395 85.4146 53.506 84.9465 53.0389C84.4784 52.5718 83.8435 52.3094 83.1815 52.3094H62.7235C62.7235 52.3094 64.6812 50.1606 65.4643 49.3792C67.2262 47.4745 69.3797 45.0327 71.7289 43.3234C76.4655 39.847 82.196 37.9809 88.0758 38.0001C91.5577 38.0045 95.0089 38.6502 98.2558 39.9048L99.5773 40.442C101.928 41.5212 104.118 42.918 106.087 44.5932L106.478 44.935H106.527C109.465 47.5407 111.816 50.7372 113.427 54.3145C115.039 57.8918 115.873 61.7689 115.875 65.6908V65.7396Z" fill="url(#paint5_linear_1043_21675)"/>
<path d="M87.5367 52.3096H62.8696L51.3681 63.7863C51.1459 64.0145 50.9962 64.3032 50.9382 64.6161C50.8801 64.929 50.9161 65.252 51.0417 65.5445C51.1673 65.837 51.3769 66.0858 51.644 66.2596C51.9112 66.4334 52.2239 66.5244 52.5428 66.5212H79.2654L89.5923 56.1677C89.8888 55.7742 90.044 55.2925 90.0328 54.8003C90.0328 54.1397 89.7698 53.5062 89.3017 53.0391C88.8336 52.572 88.1987 52.3096 87.5367 52.3096ZM77.2588 59.4398C76.8388 59.44 76.4352 59.2769 76.1337 58.9852C75.8322 58.6934 75.6564 58.2959 75.6437 57.877C75.6503 57.5835 75.7347 57.2971 75.8884 57.0468C76.0127 56.8494 76.18 56.6825 76.3778 56.5584C76.6257 56.3985 76.9147 56.3137 77.2098 56.3142C77.6252 56.3077 78.0261 56.4662 78.3245 56.7547C78.6228 57.0432 78.794 57.4381 78.8005 57.8526C78.807 58.2671 78.6482 58.6671 78.3591 58.9648C78.0699 59.2625 77.6742 59.4333 77.2588 59.4398Z" fill="#E35CC7"/>
<path d="M66.0508 52.3096H62.6737L51.319 63.5909C51.0744 63.83 50.9072 64.1368 50.839 64.4717C50.7708 64.8065 50.8048 65.1541 50.9365 65.4695C51.0682 65.7849 51.2916 66.0537 51.5779 66.2411C51.8642 66.4286 52.2002 66.5261 52.5426 66.5212H57.7795L72.0218 52.3096H66.0508Z" fill="#8961D0"/>
<path d="M77.2107 59.4395C78.0757 59.4395 78.7769 58.7399 78.7769 57.8768C78.7769 57.0136 78.0757 56.314 77.2107 56.314C76.3457 56.314 75.6445 57.0136 75.6445 57.8768C75.6445 58.7399 76.3457 59.4395 77.2107 59.4395Z" fill="#8961D0"/>
<path opacity="0.48" d="M77.2107 59.4395C78.0757 59.4395 78.7769 58.7399 78.7769 57.8768C78.7769 57.0136 78.0757 56.314 77.2107 56.314C76.3457 56.314 75.6445 57.0136 75.6445 57.8768C75.6445 58.7399 76.3457 59.4395 77.2107 59.4395Z" fill="url(#paint6_linear_1043_21675)"/>
<path opacity="0.48" d="M78.7272 57.8768C78.7274 57.4706 78.5691 57.0803 78.2859 56.7886C78.0027 56.4969 77.6168 56.3267 77.21 56.314C76.9347 56.3213 76.6655 56.3965 76.4264 56.5328C76.1873 56.6691 75.9857 56.8624 75.8396 57.0954C76.1381 56.8374 76.5215 56.6983 76.9163 56.7047C77.1156 56.7047 77.3129 56.7438 77.497 56.8199C77.681 56.896 77.8483 57.0075 77.9892 57.1481C78.1301 57.2887 78.2418 57.4556 78.3181 57.6392C78.3943 57.8229 78.4336 58.0198 78.4336 58.2186V58.2674C78.4431 58.5257 78.3749 58.7808 78.2378 59C78.3933 58.8571 78.5171 58.6834 78.6014 58.49C78.6857 58.2965 78.7286 58.0877 78.7272 57.8768Z" fill="#480061"/>
<path opacity="0.75" d="M87.5371 52.3096H62.87L51.4174 63.7863C51.198 64.0115 51.0493 64.2957 50.9895 64.6041C50.9298 64.9125 50.9617 65.2316 51.0813 65.5222C51.2009 65.8127 51.403 66.062 51.6627 66.2395C51.9224 66.417 52.2284 66.5149 52.5431 66.5212H79.2658L89.5927 56.1677C89.8892 55.7742 90.0444 55.2925 90.0332 54.8003C90.0332 54.1397 89.7702 53.5062 89.3021 53.0391C88.834 52.572 88.1991 52.3096 87.5371 52.3096ZM77.2102 59.4398C77.0045 59.4398 76.8009 59.3994 76.6109 59.3208C76.4208 59.2423 76.2482 59.1272 76.1028 58.9821C75.9573 58.8369 75.842 58.6647 75.7633 58.4751C75.6845 58.2854 75.644 58.0822 75.644 57.877C75.6506 57.5835 75.7351 57.2971 75.8888 57.0468C76.0131 56.8494 76.1804 56.6825 76.3782 56.5584C76.626 56.3985 76.915 56.3137 77.2102 56.3142C77.617 56.3269 78.0029 56.4971 78.2861 56.7889C78.5694 57.0806 78.7276 57.4708 78.7274 57.877C78.717 58.2799 78.5553 58.6642 78.2743 58.9537C77.9932 59.2431 77.6134 59.4166 77.2102 59.4398Z" fill="url(#paint7_linear_1043_21675)"/>
<path d="M66.0508 52.3096H62.6737L51.319 63.5909C51.0744 63.83 50.9072 64.1368 50.839 64.4717C50.7708 64.8065 50.8048 65.1541 50.9365 65.4695C51.0682 65.7849 51.2916 66.0537 51.5779 66.2411C51.8642 66.4286 52.2002 66.5261 52.5426 66.5212H57.7795L72.0218 52.3096H66.0508Z" fill="url(#paint8_linear_1043_21675)"/>
<path opacity="0.43" d="M82.2024 66.5212L89.397 56.4119L79.2659 66.5212H82.2024Z" fill="url(#paint9_linear_1043_21675)"/>
</g>
<defs>
<linearGradient id="paint0_linear_1043_21675" x1="160" y1="-0.00063818" x2="-14.7107" y2="18.113" gradientUnits="userSpaceOnUse">
<stop stop-color="#DC42C9"/>
<stop offset="1" stop-color="#952D88"/>
</linearGradient>
<linearGradient id="paint1_linear_1043_21675" x1="8.00055" y1="152.001" x2="165.24" y2="135.698" gradientUnits="userSpaceOnUse">
<stop stop-color="#DC42C9"/>
<stop offset="1" stop-color="#952D88"/>
</linearGradient>
<linearGradient id="paint2_linear_1043_21675" x1="144" y1="15.9995" x2="4.23144" y2="30.4904" gradientUnits="userSpaceOnUse">
<stop stop-color="#DC42C9"/>
<stop offset="1" stop-color="#952D88"/>
</linearGradient>
<linearGradient id="paint3_linear_1043_21675" x1="30.5882" y1="36.3529" x2="126.941" y2="122.824" gradientUnits="userSpaceOnUse">
<stop stop-color="#00E599"/>
<stop offset="1" stop-color="#00AF92"/>
</linearGradient>
<linearGradient id="paint4_linear_1043_21675" x1="44.1252" y1="64.5042" x2="65.3174" y2="64.5042" gradientUnits="userSpaceOnUse">
<stop stop-color="#4750D9"/>
<stop offset="0.41" stop-color="#5C45DC"/>
<stop offset="1" stop-color="#8131E1"/>
</linearGradient>
<linearGradient id="paint5_linear_1043_21675" x1="54.9905" y1="80.0001" x2="115.875" y2="80.0001" gradientUnits="userSpaceOnUse">
<stop stop-color="#E96161"/>
<stop offset="0.2" stop-color="#E65B76"/>
<stop offset="0.61" stop-color="#DF4AAC"/>
<stop offset="1" stop-color="#D739E6"/>
</linearGradient>
<linearGradient id="paint6_linear_1043_21675" x1="75.6396" y1="57.8768" x2="78.7377" y2="57.8768" gradientUnits="userSpaceOnUse">
<stop stop-color="#B100D3"/>
<stop offset="0.23" stop-color="#9C00C0"/>
<stop offset="0.69" stop-color="#67008E"/>
<stop offset="1" stop-color="#40006A"/>
</linearGradient>
<linearGradient id="paint7_linear_1043_21675" x1="50.9623" y1="59.4154" x2="90.0332" y2="59.4154" gradientUnits="userSpaceOnUse">
<stop stop-color="#D0D7D3"/>
<stop offset="0.52" stop-color="#D9C5E8"/>
<stop offset="1" stop-color="#E3B1FF"/>
</linearGradient>
<linearGradient id="paint8_linear_1043_21675" x1="50.8345" y1="59.4154" x2="72.0169" y2="59.4154" gradientUnits="userSpaceOnUse">
<stop stop-color="#B277EC"/>
<stop offset="0.77" stop-color="#9336E7"/>
<stop offset="1" stop-color="#8921E6"/>
</linearGradient>
<linearGradient id="paint9_linear_1043_21675" x1="79.2512" y1="61.4665" x2="89.4019" y2="61.4665" gradientUnits="userSpaceOnUse">
<stop stop-opacity="0.5"/>
<stop offset="0.1" stop-color="#201322" stop-opacity="0.59"/>
<stop offset="0.25" stop-color="#4A2C4E" stop-opacity="0.72"/>
<stop offset="0.4" stop-color="#6D4173" stop-opacity="0.82"/>
<stop offset="0.55" stop-color="#885190" stop-opacity="0.9"/>
<stop offset="0.7" stop-color="#9B5DA4" stop-opacity="0.95"/>
<stop offset="0.85" stop-color="#A664B0" stop-opacity="0.99"/>
<stop offset="1" stop-color="#AA66B4"/>
</linearGradient>
</defs>
</svg>
