<svg width="160" height="160" viewBox="0 0 160 160" fill="none" xmlns="http://www.w3.org/2000/svg">
<rect y="0.00434875" width="160" height="160" rx="80" fill="white"/>
<path d="M160 80C160 35.8164 124.183 0 79.9987 0C35.8167 0 0 35.8164 0 80C0 124.181 35.8167 160 79.9987 160C124.183 160 160 124.181 160 80Z" fill="white"/>
<mask id="mask0_1043_8046" style="mask-type:alpha" maskUnits="userSpaceOnUse" x="8" y="8" width="144" height="144">
<path d="M151.111 80C151.111 40.7281 119.272 8.88889 79.9986 8.88889C40.728 8.88889 8.88892 40.7281 8.88892 80C8.88892 119.272 40.728 151.111 79.9986 151.111C119.272 151.111 151.111 119.272 151.111 80Z" fill="url(#paint0_linear_1043_8046)"/>
<path d="M151.111 80C151.111 40.7281 119.272 8.88889 79.9986 8.88889C40.728 8.88889 8.88892 40.7281 8.88892 80C8.88892 119.272 40.728 151.111 79.9986 151.111C119.272 151.111 151.111 119.272 151.111 80Z" fill="white"/>
</mask>
<g mask="url(#mask0_1043_8046)">
<rect width="142.222" height="142.222" transform="translate(8.88892 8.88889)" fill="white"/>
<path d="M61.2442 53.2226L60.5606 53.9047L44.8989 69.5326L40.1756 74.2458C39.9267 74.612 39.6103 74.9277 39.2433 75.176C38.541 75.6362 37.6844 75.7993 36.8616 75.6295C36.0389 75.4597 35.3173 74.971 34.8556 74.2706C34.5073 73.7496 34.3253 73.1356 34.3335 72.5093V57.6877C34.4623 54.2052 35.9398 50.9084 38.4552 48.491C40.9705 46.0736 44.3276 44.7241 47.8199 44.7264H61.2442L57.3288 48.6954L52.7919 53.2226H61.2442Z" fill="url(#paint1_linear_1043_8046)"/>
<path d="M125.444 61.7805V62.7727C125.218 71.1972 121.952 79.257 116.246 85.4704L71.8096 129.811C69.3477 132.007 66.1619 133.221 62.8601 133.222C61.9644 133.205 61.0712 133.122 60.1876 132.974L57.5774 132.168C54.7858 131.201 52.0653 130.04 49.4358 128.695L48.8764 128.385C48.6363 128.206 48.4431 127.971 48.3132 127.701C48.1834 127.431 48.1208 127.134 48.1306 126.835C48.1244 126.412 48.2552 125.999 48.5035 125.656L98.3473 75.858C98.5895 75.5952 98.7982 75.3036 98.9688 74.9898C99.2789 74.396 99.5288 73.7727 99.7146 73.1293C99.8075 72.7211 99.8699 72.3065 99.9011 71.889C99.9559 71.624 99.9768 71.3531 99.9632 71.0828C99.9632 68.8788 99.0858 66.7651 97.524 65.2067C95.9622 63.6483 93.8439 62.7727 91.6352 62.7727H73.4254L85.6689 50.5557C86.0359 50.3074 86.3522 49.9917 86.6011 49.6255C86.9308 49.1064 87.1034 48.5035 87.0983 47.889C87.0983 47.0502 86.7644 46.2458 86.1699 45.6526C85.5755 45.0595 84.7693 44.7263 83.9287 44.7263H57.9502C57.9502 44.7263 60.4362 41.9976 61.4306 41.0053C63.668 38.5867 66.4026 35.486 69.3857 33.3154C75.4004 28.901 82.6772 26.5313 90.1436 26.5557C94.5651 26.5612 98.9476 27.3812 103.071 28.9743L104.749 29.6565C107.733 31.0269 110.515 32.8007 113.015 34.9278L113.512 35.3619H113.574C117.304 38.6707 120.29 42.7298 122.336 47.2724C124.382 51.815 125.441 56.7382 125.444 61.7185V61.7805Z" fill="url(#paint2_linear_1043_8046)"/>
<path d="M89.4596 44.7265H58.1363L43.5312 59.3001C43.249 59.5898 43.059 59.9565 42.9852 60.3538C42.9115 60.7511 42.9572 61.1613 43.1168 61.5327C43.2763 61.9041 43.5424 62.2201 43.8816 62.4408C44.2208 62.6615 44.6179 62.7771 45.0228 62.773H78.9564L92.0699 49.6257C92.4464 49.126 92.6435 48.5143 92.6292 47.8893C92.6292 47.0504 92.2953 46.246 91.7009 45.6528C91.1065 45.0597 90.3003 44.7265 89.4596 44.7265ZM76.4083 53.7807C75.8749 53.781 75.3625 53.5739 74.9796 53.2034C74.5967 52.8329 74.3735 52.3282 74.3573 51.7962C74.3657 51.4236 74.4729 51.0598 74.6681 50.742C74.826 50.4913 75.0384 50.2794 75.2896 50.1218C75.6043 49.9187 75.9713 49.811 76.3461 49.8117C76.8736 49.8035 77.3827 50.0047 77.7615 50.3711C78.1403 50.7374 78.3577 51.2389 78.366 51.7652C78.3742 52.2915 78.1726 52.7996 77.8054 53.1775C77.4383 53.5555 76.9357 53.7725 76.4083 53.7807Z" fill="#E35CC7"/>
<path d="M62.1755 44.7265H57.8872L43.4686 59.052C43.1579 59.3556 42.9456 59.7452 42.859 60.1704C42.7724 60.5956 42.8155 61.0369 42.9828 61.4375C43.15 61.838 43.4337 62.1793 43.7972 62.4173C44.1608 62.6554 44.5875 62.7793 45.0223 62.7729H51.6723L69.7578 44.7265H62.1755Z" fill="#8961D0"/>
<path d="M76.3469 53.7804C77.4453 53.7804 78.3357 52.8919 78.3357 51.7959C78.3357 50.6999 77.4453 49.8114 76.3469 49.8114C75.2486 49.8114 74.3582 50.6999 74.3582 51.7959C74.3582 52.8919 75.2486 53.7804 76.3469 53.7804Z" fill="#8961D0"/>
<path opacity="0.48" d="M76.3469 53.7804C77.4453 53.7804 78.3357 52.8919 78.3357 51.7959C78.3357 50.6999 77.4453 49.8114 76.3469 49.8114C75.2486 49.8114 74.3582 50.6999 74.3582 51.7959C74.3582 52.8919 75.2486 53.7804 76.3469 53.7804Z" fill="url(#paint3_linear_1043_8046)"/>
<path opacity="0.48" d="M78.2728 51.7959C78.273 51.2801 78.072 50.7845 77.7124 50.4141C77.3528 50.0437 76.8628 49.8275 76.3461 49.8114C75.9966 49.8207 75.6547 49.9161 75.3511 50.0893C75.0474 50.2624 74.7915 50.5078 74.606 50.8036C74.9851 50.4761 75.4718 50.2994 75.9732 50.3075C76.2263 50.3075 76.4768 50.3572 76.7105 50.4538C76.9443 50.5504 77.1567 50.6921 77.3356 50.8706C77.5145 51.0491 77.6564 51.261 77.7532 51.4943C77.85 51.7275 77.8999 51.9775 77.8999 52.23V52.292C77.9119 52.6199 77.8253 52.9439 77.6513 53.2222C77.8487 53.0408 78.006 52.8202 78.113 52.5746C78.2201 52.3289 78.2745 52.0637 78.2728 51.7959Z" fill="#480061"/>
<path opacity="0.75" d="M89.4598 44.7265H58.1365L43.5935 59.3001C43.3149 59.586 43.126 59.947 43.0502 60.3386C42.9744 60.7302 43.0149 61.1354 43.1667 61.5044C43.3186 61.8733 43.5752 62.1899 43.905 62.4153C44.2347 62.6407 44.6233 62.765 45.023 62.773H78.9566L92.0701 49.6257C92.4466 49.126 92.6436 48.5143 92.6294 47.8893C92.6294 47.0504 92.2955 46.246 91.7011 45.6528C91.1066 45.0597 90.3004 44.7265 89.4598 44.7265ZM76.3463 53.7807C76.0851 53.7807 75.8265 53.7294 75.5852 53.6297C75.3439 53.5299 75.1247 53.3838 74.94 53.1995C74.7553 53.0152 74.6088 52.7964 74.5089 52.5557C74.4089 52.3149 74.3575 52.0568 74.3575 51.7962C74.3659 51.4236 74.4731 51.0598 74.6682 50.742C74.8261 50.4913 75.0386 50.2794 75.2897 50.1218C75.6045 49.9187 75.9715 49.811 76.3463 49.8117C76.8629 49.8279 77.3529 50.044 77.7126 50.4145C78.0722 50.7849 78.2732 51.2805 78.2729 51.7962C78.2597 52.3078 78.0543 52.7958 77.6975 53.1634C77.3406 53.531 76.8583 53.7513 76.3463 53.7807Z" fill="url(#paint4_linear_1043_8046)"/>
<path d="M62.1755 44.7265H57.8872L43.4686 59.052C43.1579 59.3556 42.9456 59.7452 42.859 60.1704C42.7724 60.5956 42.8155 61.0369 42.9828 61.4375C43.15 61.838 43.4337 62.1793 43.7972 62.4173C44.1608 62.6554 44.5875 62.7793 45.0223 62.7729H51.6723L69.7578 44.7265H62.1755Z" fill="url(#paint5_linear_1043_8046)"/>
<path opacity="0.43" d="M82.6855 62.7729L91.8215 49.9357L78.9565 62.7729H82.6855Z" fill="url(#paint6_linear_1043_8046)"/>
</g>
<defs>
<linearGradient id="paint0_linear_1043_8046" x1="17.2549" y1="24.5752" x2="139.608" y2="134.379" gradientUnits="userSpaceOnUse">
<stop stop-color="#00E599"/>
<stop offset="1" stop-color="#00AF92"/>
</linearGradient>
<linearGradient id="paint1_linear_1043_8046" x1="34.3335" y1="60.2117" x2="61.2442" y2="60.2117" gradientUnits="userSpaceOnUse">
<stop stop-color="#4750D9"/>
<stop offset="0.41" stop-color="#5C45DC"/>
<stop offset="1" stop-color="#8131E1"/>
</linearGradient>
<linearGradient id="paint2_linear_1043_8046" x1="48.1306" y1="79.889" x2="125.444" y2="79.889" gradientUnits="userSpaceOnUse">
<stop stop-color="#E96161"/>
<stop offset="0.2" stop-color="#E65B76"/>
<stop offset="0.61" stop-color="#DF4AAC"/>
<stop offset="1" stop-color="#D739E6"/>
</linearGradient>
<linearGradient id="paint3_linear_1043_8046" x1="74.3519" y1="51.7959" x2="78.286" y2="51.7959" gradientUnits="userSpaceOnUse">
<stop stop-color="#B100D3"/>
<stop offset="0.23" stop-color="#9C00C0"/>
<stop offset="0.69" stop-color="#67008E"/>
<stop offset="1" stop-color="#40006A"/>
</linearGradient>
<linearGradient id="paint4_linear_1043_8046" x1="43.0156" y1="53.7497" x2="92.6294" y2="53.7497" gradientUnits="userSpaceOnUse">
<stop stop-color="#D0D7D3"/>
<stop offset="0.52" stop-color="#D9C5E8"/>
<stop offset="1" stop-color="#E3B1FF"/>
</linearGradient>
<linearGradient id="paint5_linear_1043_8046" x1="42.8533" y1="53.7497" x2="69.7515" y2="53.7497" gradientUnits="userSpaceOnUse">
<stop stop-color="#B277EC"/>
<stop offset="0.77" stop-color="#9336E7"/>
<stop offset="1" stop-color="#8921E6"/>
</linearGradient>
<linearGradient id="paint6_linear_1043_8046" x1="78.9379" y1="56.3543" x2="91.8277" y2="56.3543" gradientUnits="userSpaceOnUse">
<stop stop-opacity="0.5"/>
<stop offset="0.1" stop-color="#201322" stop-opacity="0.59"/>
<stop offset="0.25" stop-color="#4A2C4E" stop-opacity="0.72"/>
<stop offset="0.4" stop-color="#6D4173" stop-opacity="0.82"/>
<stop offset="0.55" stop-color="#885190" stop-opacity="0.9"/>
<stop offset="0.7" stop-color="#9B5DA4" stop-opacity="0.95"/>
<stop offset="0.85" stop-color="#A664B0" stop-opacity="0.99"/>
<stop offset="1" stop-color="#AA66B4"/>
</linearGradient>
</defs>
</svg>
