<svg width="216" height="138" viewBox="0 0 216 138" fill="none" xmlns="http://www.w3.org/2000/svg">
<g clip-path="url(#clip0_1043_8065)">
<path d="M216.001 63L216.001 74.8733L216.001 75C215.912 91.021 205.412 107.048 184.49 119.331C142.382 144.053 73.9983 144.246 31.7561 119.764C10.4997 107.445 -0.0893974 91.2253 0.000568442 75V63H216.001Z" fill="url(#paint0_linear_1043_8065)"/>
<path d="M216.001 63L216.001 74.8733L216.001 75C215.912 91.021 205.412 107.048 184.49 119.331C142.382 144.053 73.9983 144.246 31.7561 119.764C10.4997 107.445 -0.0893974 91.2253 0.000568442 75V63H216.001Z" fill="black" fill-opacity="0.2"/>
<path d="M184.246 18.2363C142.001 -6.24717 73.6204 -6.05281 31.5097 18.6707C-10.5986 43.3928 -10.4894 83.281 31.7555 107.764C73.9977 132.246 142.381 132.053 184.489 107.331C226.6 82.6079 226.488 42.7181 184.246 18.2363Z" fill="url(#paint1_linear_1043_8065)"/>
<path d="M38.1084 103.146C76.8329 125.103 139.516 124.928 178.116 102.756C216.716 80.5842 216.615 44.8125 177.89 22.8551C139.166 0.8978 76.4855 1.0715 37.8854 23.2434C-0.71482 45.4153 -0.616108 81.1885 38.1084 103.146Z" fill="url(#paint2_linear_1043_8065)"/>
<path d="M170.832 27.1179C136.019 7.49225 79.6686 7.64805 44.9663 27.4661C10.2659 47.283 10.356 79.2569 45.1689 98.8825C79.9796 118.507 136.332 118.352 171.033 98.5354C205.735 78.7173 205.643 46.7422 170.832 27.1179Z" fill="url(#paint3_linear_1043_8065)"/>
<path d="M170.832 27.1179C136.019 7.49225 79.6686 7.64805 44.9663 27.4661C10.2659 47.283 10.356 79.2569 45.1689 98.8825C79.9796 118.507 136.332 118.352 171.033 98.5354C205.735 78.7173 205.643 46.7422 170.832 27.1179Z" fill="white" fill-opacity="0.64"/>
<mask id="mask0_1043_8065" style="mask-type:alpha" maskUnits="userSpaceOnUse" x="29" y="17" width="158" height="91">
<path d="M163.591 30.5758C132.883 13.0747 83.1714 13.2135 52.5608 30.8865C21.9523 48.5583 22.0321 77.0747 52.7397 94.5758C83.4473 112.077 133.159 111.938 163.768 94.2664C194.378 76.5933 194.299 48.0769 163.591 30.5758Z" fill="url(#paint4_linear_1043_8065)"/>
<path d="M163.591 30.5758C132.883 13.0747 83.1714 13.2135 52.5608 30.8865C21.9523 48.5583 22.0321 77.0747 52.7397 94.5758C83.4473 112.077 133.159 111.938 163.768 94.2664C194.378 76.5933 194.299 48.0769 163.591 30.5758Z" fill="white"/>
</mask>
<g mask="url(#mask0_1043_8065)">
<g clip-path="url(#clip1_1043_8065)">
<rect width="128" height="128" transform="matrix(0.866025 -0.5 0.868804 0.495155 -2.86377 62.8859)" fill="white"/>
<path d="M72.7821 59.0823L72.7827 59.6939L72.7955 73.7061L72.7993 77.932C72.8917 78.2072 72.892 78.4902 72.8001 78.766C72.6125 79.2871 72.0724 79.7453 71.2984 80.0399C70.5243 80.3345 69.5798 80.4413 68.6722 80.337C67.9934 80.2616 67.3714 80.0698 66.8881 79.7871L55.2987 73.1819C52.6761 71.5721 51.2498 69.438 51.3201 67.2288C51.3904 65.0196 52.9518 62.9075 55.6757 61.337L66.1388 55.2961L66.1905 58.8268L66.1942 62.8858L72.7821 59.0823Z" fill="url(#paint5_linear_1043_8065)"/>
<path d="M129.513 34.0059L130.289 34.4481C136.7 38.3041 140.456 43.3657 140.867 48.7022L140.904 88.4589C140.702 90.5452 139.168 92.5199 136.595 94.0062C135.883 94.4015 135.122 94.7665 134.318 95.0983L131.653 95.9136C128.721 96.7388 125.694 97.4459 122.592 98.0297L121.914 98.1432C121.586 98.1713 121.252 98.1536 120.94 98.0918C120.628 98.0299 120.346 97.9257 120.12 97.7879C119.785 97.6024 119.564 97.3593 119.489 97.095L119.4 52.4731C119.384 52.2471 119.318 52.0232 119.206 51.8065C118.983 51.4024 118.691 51.0122 118.332 50.6418C118.086 50.4181 117.81 50.2053 117.508 50.0052C117.343 49.8624 117.148 49.7323 116.926 49.618C115.203 48.6358 112.866 48.0887 110.43 48.097C107.994 48.1053 105.659 48.6684 103.937 49.6623L89.7439 57.8567L89.734 46.9027C89.8258 46.6269 89.8256 46.3439 89.7332 46.0687C89.5843 45.689 89.2475 45.3427 88.763 45.0711C88.1071 44.6973 87.2178 44.4891 86.2907 44.4922C85.3636 44.4954 84.4747 44.7097 83.8194 45.088L63.5713 56.7783C63.5713 56.7783 63.3753 54.4436 63.3744 53.5539C63.2271 51.4693 62.934 48.8569 63.5619 46.5472C64.7981 41.8733 68.617 37.5428 74.4556 34.1938C77.906 32.2065 81.963 30.5998 86.4224 29.4544L88.2637 29.0033C91.6615 28.271 95.2163 27.8098 98.828 27.6328L99.555 27.6025L99.6034 27.5745C105.098 27.3704 110.6 27.8355 115.746 28.9392C120.893 30.0429 125.568 31.7602 129.464 33.9783L129.513 34.0059Z" fill="url(#paint6_linear_1043_8065)"/>
<path d="M88.1303 42.5993L63.7162 56.6948L63.7281 69.7616C63.7347 70.0178 63.8733 70.2667 64.1265 70.4769C64.3797 70.6872 64.7361 70.8494 65.1508 70.9431C65.5656 71.0368 66.0201 71.0579 66.457 71.0036C66.894 70.9493 67.2939 70.8221 67.6062 70.6381L94.0548 55.368L93.9956 43.6079C93.8984 43.2158 93.5737 42.8546 93.0738 42.5824C92.4179 42.2086 91.5286 42.0004 90.6015 42.0035C89.6744 42.0067 88.7855 42.221 88.1303 42.5993ZM85.0375 52.5073C84.622 52.7474 84.0607 52.8858 83.4725 52.893C82.8844 52.9002 82.3158 52.7757 81.8872 52.5459C81.6024 52.376 81.4015 52.1657 81.3051 51.9362C81.2322 51.7535 81.232 51.5634 81.3046 51.3802C81.3911 51.1481 81.5929 50.9349 81.8856 50.7666C82.2903 50.5255 82.8445 50.3861 83.4262 50.3789C84.0079 50.3717 84.5695 50.4973 84.9874 50.7282C85.4054 50.959 85.6455 51.2762 85.6549 51.6098C85.6643 51.9435 85.4422 52.2663 85.0375 52.5073Z" fill="#E35CC7"/>
<path d="M66.8648 54.877L63.5224 56.8067L63.4857 69.6792C63.481 69.9543 63.6201 70.2234 63.8851 70.4519C64.1501 70.6803 64.5288 70.8576 64.9723 70.9608C65.4158 71.0641 65.9038 71.0885 66.3733 71.031C66.8428 70.9735 67.2722 70.8367 67.6062 70.6382L72.7893 67.6457L72.7746 51.465L66.8648 54.877Z" fill="#8961D0"/>
<path d="M84.9897 52.5347C85.8458 52.0405 85.8451 51.2438 84.9881 50.7554C84.1311 50.267 82.7424 50.2717 81.8863 50.766C81.0302 51.2603 81.0309 52.0569 81.8879 52.5453C82.7449 53.0337 84.1336 53.029 84.9897 52.5347Z" fill="#8961D0"/>
<path opacity="0.48" d="M84.9897 52.5347C85.8458 52.0405 85.8451 51.2438 84.9881 50.7554C84.1311 50.267 82.7424 50.2717 81.8863 50.766C81.0302 51.2603 81.0309 52.0569 81.8879 52.5453C82.7449 53.0337 84.1336 53.029 84.9897 52.5347Z" fill="url(#paint7_linear_1043_8065)"/>
<path opacity="0.48" d="M84.9388 50.7837C84.5357 50.5538 83.9915 50.4234 83.4216 50.4201C82.8516 50.4169 82.3007 50.5411 81.8854 50.7664C81.6202 50.9278 81.4284 51.1242 81.3271 51.338C81.2258 51.5518 81.2182 51.7763 81.3049 51.9916C81.3443 51.6751 81.5856 51.3773 81.9827 51.1553C82.1799 51.0414 82.414 50.9508 82.6718 50.8887C82.9295 50.8266 83.2058 50.7941 83.4848 50.7931C83.7638 50.7922 84.0402 50.8228 84.298 50.8831C84.5558 50.9435 84.7902 51.0325 84.9876 51.145L85.0361 51.1726C85.3018 51.3133 85.4877 51.4967 85.5697 51.6991C85.5817 51.5293 85.5318 51.3603 85.4231 51.2026C85.3145 51.045 85.1495 50.9023 84.9388 50.7837Z" fill="#480061"/>
<path opacity="0.75" d="M88.1307 42.5991L63.7166 56.6946L63.777 69.7335C63.7833 69.9863 63.9184 70.2322 64.1655 70.4408C64.4126 70.6495 64.761 70.8118 65.1678 70.9079C65.5747 71.004 66.0223 71.0296 66.4555 70.9816C66.8888 70.9337 67.2889 70.8142 67.6066 70.6379L94.0552 55.3678L93.996 43.6078C93.8987 43.2156 93.574 42.8544 93.0742 42.5822C92.4183 42.2084 91.529 42.0002 90.6019 42.0034C89.6748 42.0065 88.7859 42.2208 88.1307 42.5991ZM84.9895 52.5351C84.7859 52.6526 84.5442 52.7461 84.2781 52.8103C84.0121 52.8744 83.7269 52.9079 83.4389 52.9089C83.1508 52.9099 82.8656 52.8783 82.5994 52.816C82.3333 52.7537 82.0914 52.6618 81.8876 52.5457C81.6028 52.3759 81.4019 52.1655 81.3055 51.936C81.2326 51.7533 81.2324 51.5632 81.305 51.38C81.3915 51.1479 81.5933 50.9347 81.886 50.7664C82.3013 50.5411 82.8522 50.4169 83.4222 50.4202C83.9921 50.4234 84.5363 50.5538 84.9394 50.7838C85.3292 51.0177 85.5506 51.3276 85.5599 51.652C85.5692 51.9764 85.3656 52.2916 84.9895 52.5351Z" fill="url(#paint8_linear_1043_8065)"/>
<path d="M66.8648 54.877L63.5224 56.8067L63.4857 69.6792C63.481 69.9543 63.6201 70.2234 63.8851 70.4519C64.1501 70.6803 64.5288 70.8576 64.9723 70.9608C65.4158 71.0641 65.9038 71.0885 66.3733 71.031C66.8428 70.9735 67.2722 70.8367 67.6062 70.6382L72.7893 67.6457L72.7746 51.465L66.8648 54.877Z" fill="url(#paint9_linear_1043_8065)"/>
<path opacity="0.43" d="M96.9615 53.6898L94.0445 43.8578L94.055 55.3678L96.9615 53.6898Z" fill="url(#paint10_linear_1043_8065)"/>
</g>
</g>
</g>
<defs>
<linearGradient id="paint0_linear_1043_8065" x1="107.757" y1="47.4678" x2="80.2592" y2="145.698" gradientUnits="userSpaceOnUse">
<stop stop-color="#DC42C9"/>
<stop offset="1" stop-color="#952D88"/>
</linearGradient>
<linearGradient id="paint1_linear_1043_8065" x1="107.756" y1="-26.0939" x2="39.2228" y2="119.635" gradientUnits="userSpaceOnUse">
<stop stop-color="#DC42C9"/>
<stop offset="1" stop-color="#952D88"/>
</linearGradient>
<linearGradient id="paint2_linear_1043_8065" x1="108.223" y1="142.902" x2="168.826" y2="11.1872" gradientUnits="userSpaceOnUse">
<stop stop-color="#DC42C9"/>
<stop offset="1" stop-color="#952D88"/>
</linearGradient>
<linearGradient id="paint3_linear_1043_8065" x1="107.799" y1="-8.41665" x2="53.8366" y2="109.548" gradientUnits="userSpaceOnUse">
<stop stop-color="#DC42C9"/>
<stop offset="1" stop-color="#952D88"/>
</linearGradient>
<linearGradient id="paint4_linear_1043_8065" x1="15.9224" y1="66.1116" x2="196.043" y2="48.631" gradientUnits="userSpaceOnUse">
<stop stop-color="#00E599"/>
<stop offset="1" stop-color="#00AF92"/>
</linearGradient>
<linearGradient id="paint5_linear_1043_8065" x1="57.2723" y1="74.3067" x2="67.6245" y2="56.1428" gradientUnits="userSpaceOnUse">
<stop stop-color="#4750D9"/>
<stop offset="0.41" stop-color="#5C45DC"/>
<stop offset="1" stop-color="#8131E1"/>
</linearGradient>
<linearGradient id="paint6_linear_1043_8065" x1="83.4122" y1="76.867" x2="113.154" y2="24.6824" gradientUnits="userSpaceOnUse">
<stop stop-color="#E96161"/>
<stop offset="0.2" stop-color="#E65B76"/>
<stop offset="0.61" stop-color="#DF4AAC"/>
<stop offset="1" stop-color="#D739E6"/>
</linearGradient>
<linearGradient id="paint7_linear_1043_8065" x1="81.8831" y1="52.5481" x2="83.3964" y2="49.8927" gradientUnits="userSpaceOnUse">
<stop stop-color="#B100D3"/>
<stop offset="0.23" stop-color="#9C00C0"/>
<stop offset="0.69" stop-color="#67008E"/>
<stop offset="1" stop-color="#40006A"/>
</linearGradient>
<linearGradient id="paint8_linear_1043_8065" x1="58.9865" y1="67.5201" x2="78.0722" y2="34.0322" gradientUnits="userSpaceOnUse">
<stop stop-color="#D0D7D3"/>
<stop offset="0.52" stop-color="#D9C5E8"/>
<stop offset="1" stop-color="#E3B1FF"/>
</linearGradient>
<linearGradient id="paint9_linear_1043_8065" x1="58.8601" y1="67.5931" x2="69.2075" y2="49.4376" gradientUnits="userSpaceOnUse">
<stop stop-color="#B277EC"/>
<stop offset="0.77" stop-color="#9336E7"/>
<stop offset="1" stop-color="#8921E6"/>
</linearGradient>
<linearGradient id="paint10_linear_1043_8065" x1="89.0217" y1="52.5158" x2="93.9802" y2="43.8156" gradientUnits="userSpaceOnUse">
<stop stop-opacity="0.5"/>
<stop offset="0.1" stop-color="#201322" stop-opacity="0.59"/>
<stop offset="0.25" stop-color="#4A2C4E" stop-opacity="0.72"/>
<stop offset="0.4" stop-color="#6D4173" stop-opacity="0.82"/>
<stop offset="0.55" stop-color="#885190" stop-opacity="0.9"/>
<stop offset="0.7" stop-color="#9B5DA4" stop-opacity="0.95"/>
<stop offset="0.85" stop-color="#A664B0" stop-opacity="0.99"/>
<stop offset="1" stop-color="#AA66B4"/>
</linearGradient>
<clipPath id="clip0_1043_8065">
<rect width="216" height="138" fill="white"/>
</clipPath>
<clipPath id="clip1_1043_8065">
<rect width="128" height="128" fill="white" transform="matrix(0.866025 -0.5 0.868804 0.495155 -2.86377 62.8859)"/>
</clipPath>
</defs>
</svg>
