<svg width="216" height="138" viewBox="0 0 216 138" fill="none" xmlns="http://www.w3.org/2000/svg">
<g clip-path="url(#clip0_1043_8265)">
<path d="M216.001 63L216.001 74.8733L216.001 75C215.912 91.021 205.412 107.048 184.49 119.331C142.382 144.053 73.9983 144.246 31.7561 119.764C10.4997 107.445 -0.0893974 91.2253 0.000568442 75V63H216.001Z" fill="url(#paint0_linear_1043_8265)"/>
<path d="M216.001 63L216.001 74.8733L216.001 75C215.912 91.021 205.412 107.048 184.49 119.331C142.382 144.053 73.9983 144.246 31.7561 119.764C10.4997 107.445 -0.0893974 91.2253 0.000568442 75V63H216.001Z" fill="black" fill-opacity="0.2"/>
<path d="M184.246 18.2363C142.001 -6.24717 73.6204 -6.05281 31.5097 18.6707C-10.5986 43.3928 -10.4894 83.281 31.7555 107.764C73.9977 132.246 142.381 132.053 184.489 107.331C226.6 82.6079 226.488 42.7181 184.246 18.2363Z" fill="url(#paint1_linear_1043_8265)"/>
<path d="M38.1084 103.146C76.8329 125.103 139.516 124.928 178.116 102.756C216.716 80.5842 216.615 44.8125 177.89 22.8551C139.166 0.8978 76.4855 1.0715 37.8854 23.2434C-0.71482 45.4153 -0.616108 81.1885 38.1084 103.146Z" fill="url(#paint2_linear_1043_8265)"/>
<path d="M170.832 27.1179C136.019 7.49225 79.6686 7.64805 44.9663 27.4661C10.2659 47.283 10.356 79.2569 45.1689 98.8825C79.9796 118.507 136.332 118.352 171.033 98.5354C205.735 78.7173 205.643 46.7422 170.832 27.1179Z" fill="url(#paint3_radial_1043_8265)"/>
<path d="M170.832 27.1179C136.019 7.49225 79.6686 7.64805 44.9663 27.4661C10.2659 47.283 10.356 79.2569 45.1689 98.8825C79.9796 118.507 136.332 118.352 171.033 98.5354C205.735 78.7173 205.643 46.7422 170.832 27.1179Z" fill="#161618" fill-opacity="0.08"/>
<mask id="mask0_1043_8265" style="mask-type:alpha" maskUnits="userSpaceOnUse" x="29" y="17" width="158" height="91">
<path d="M163.591 30.5758C132.884 13.0747 83.1719 13.2135 52.5613 30.8865C21.9528 48.5583 22.0326 77.0747 52.7402 94.5758C83.4478 112.077 133.16 111.938 163.768 94.2664C194.379 76.5933 194.299 48.0769 163.591 30.5758Z" fill="url(#paint4_linear_1043_8265)"/>
<path d="M163.591 30.5758C132.884 13.0747 83.1719 13.2135 52.5613 30.8865C21.9528 48.5583 22.0326 77.0747 52.7402 94.5758C83.4478 112.077 133.16 111.938 163.768 94.2664C194.379 76.5933 194.299 48.0769 163.591 30.5758Z" fill="white"/>
</mask>
<g mask="url(#mask0_1043_8265)">
<g clip-path="url(#clip1_1043_8265)">
<rect width="128" height="128" transform="matrix(0.866025 -0.5 0.868804 0.495155 -2.86328 62.8859)" fill="white"/>
<rect width="128" height="128" transform="matrix(0.866025 -0.5 0.868804 0.495155 -2.86328 62.8859)" fill="url(#paint5_radial_1043_8265)"/>
<rect width="128" height="128" rx="64" transform="matrix(0.866025 -0.5 0.868804 0.495155 -2.86328 62.8859)" fill="white"/>
<rect width="128" height="128" rx="64" transform="matrix(0.866025 -0.5 0.868804 0.495155 -2.86328 62.8859)" fill="url(#paint6_radial_1043_8265)"/>
<path d="M61.1164 35.7613C49.6458 42.3631 42.7881 51.1438 41.846 60.4356L41.8554 60.4356L55.025 63.0988C54.8781 57.0381 57.8843 51.084 63.6595 45.9971C69.4347 40.9102 77.7167 36.9213 87.4476 34.5402C97.1784 32.159 107.916 31.4936 118.29 32.629C128.663 33.7644 138.201 36.649 145.684 40.9143L133.96 47.6835L173.544 55.6783C171.148 48.0162 164.696 40.9707 155.064 35.4989C129.079 20.6892 87.0185 20.8067 61.1164 35.7613Z" fill="url(#paint7_radial_1043_8265)"/>
<path d="M61.1164 35.7613C49.6458 42.3631 42.7881 51.1438 41.846 60.4356L41.8554 60.4356L55.025 63.0988C54.8781 57.0381 57.8843 51.084 63.6595 45.9971C69.4347 40.9102 77.7167 36.9213 87.4476 34.5402C97.1784 32.159 107.916 31.4936 118.29 32.629C128.663 33.7644 138.201 36.649 145.684 40.9143L133.96 47.6835L173.544 55.6783C171.148 48.0162 164.696 40.9707 155.064 35.4989C129.079 20.6892 87.0185 20.8067 61.1164 35.7613Z" fill="black" fill-opacity="0.4"/>
<path d="M155.214 89.3903C166.685 82.7885 173.543 74.0078 174.485 64.716L174.475 64.7161L161.306 62.0529C161.453 68.1135 158.447 74.0676 152.671 79.1545C146.896 84.2414 138.614 88.2303 128.883 90.6114C119.152 92.9926 108.415 93.658 98.0412 92.5226C87.668 91.3872 78.1303 88.5026 70.6466 84.2373L82.3712 77.4681L42.7873 69.4733C45.1097 76.877 51.269 83.9546 61.2669 89.6527C87.2521 104.462 129.312 104.345 155.214 89.3903Z" fill="url(#paint8_radial_1043_8265)"/>
<path d="M155.214 89.3903C166.685 82.7885 173.543 74.0078 174.485 64.716L174.475 64.7161L161.306 62.0529C161.453 68.1135 158.447 74.0676 152.671 79.1545C146.896 84.2414 138.614 88.2303 128.883 90.6114C119.152 92.9926 108.415 93.658 98.0412 92.5226C87.668 91.3872 78.1303 88.5026 70.6466 84.2373L82.3712 77.4681L42.7873 69.4733C45.1097 76.877 51.269 83.9546 61.2669 89.6527C87.2521 104.462 129.312 104.345 155.214 89.3903Z" fill="black" fill-opacity="0.4"/>
<path d="M125.599 55.335C125.208 52.4165 122.998 49.6138 119.375 47.4422L118.91 47.1772C116.712 45.926 114.104 44.9402 111.258 44.2846C108.412 43.6291 105.392 43.3187 102.396 43.3737L102.371 43.3885L101.975 43.3976C100.007 43.4572 98.0792 43.6726 96.2457 44.0377L95.2538 44.2651C92.8532 44.8449 90.6869 45.6807 88.8638 46.7305C85.7784 48.4995 83.8271 50.8252 83.2974 53.365C83.0549 54.4876 83.2228 55.7504 83.365 56.8202L83.4135 57.1894C83.4416 57.6753 83.6215 58.9522 83.6215 58.9522L79.6056 61.2708C78.1665 62.1005 77.2238 63.3279 77.2543 64.5336C77.2847 65.7393 78.1305 66.9194 79.6135 67.8254L86.1511 71.5514C86.424 71.7108 86.7697 71.8218 87.143 71.87C87.642 71.9363 88.1548 71.8876 88.5684 71.7347C88.9821 71.5818 89.2629 71.3371 89.3492 71.0544C89.3908 70.9048 89.3818 70.7502 89.3227 70.599L88.9969 64.9813L105.453 55.4803C106.362 54.9552 107.621 54.6717 108.951 54.6922C110.282 54.7126 111.575 55.0354 112.548 55.5894C112.672 55.6541 112.783 55.7272 112.878 55.8068C113.049 55.9192 113.206 56.0383 113.348 56.163C113.555 56.3689 113.727 56.585 113.861 56.808C113.93 56.9274 113.972 57.0504 113.988 57.174L115.428 81.5429C115.477 81.688 115.606 81.823 115.795 81.9278C115.923 82.0053 116.079 82.0652 116.252 82.1021C116.424 82.1391 116.608 82.1522 116.786 82.1402L117.153 82.0852C118.829 81.7982 120.461 81.4431 122.037 81.0226L123.468 80.6046C123.897 80.4317 124.301 80.2402 124.678 80.0316C126.037 79.2463 126.813 78.1837 126.858 77.0465L125.599 55.335Z" fill="url(#paint9_radial_1043_8265)"/>
<path d="M125.599 55.335C125.208 52.4165 122.998 49.6138 119.375 47.4422L118.91 47.1772C116.712 45.926 114.104 44.9402 111.258 44.2846C108.412 43.6291 105.392 43.3187 102.396 43.3737L102.371 43.3885L101.975 43.3976C100.007 43.4572 98.0792 43.6726 96.2457 44.0377L95.2538 44.2651C92.8532 44.8449 90.6869 45.6807 88.8638 46.7305C85.7784 48.4995 83.8271 50.8252 83.2974 53.365C83.0549 54.4876 83.2228 55.7504 83.365 56.8202L83.4135 57.1894C83.4416 57.6753 83.6215 58.9522 83.6215 58.9522L79.6056 61.2708C78.1665 62.1005 77.2238 63.3279 77.2543 64.5336C77.2847 65.7393 78.1305 66.9194 79.6135 67.8254L86.1511 71.5514C86.424 71.7108 86.7697 71.8218 87.143 71.87C87.642 71.9363 88.1548 71.8876 88.5684 71.7347C88.9821 71.5818 89.2629 71.3371 89.3492 71.0544C89.3908 70.9048 89.3818 70.7502 89.3227 70.599L88.9969 64.9813L105.453 55.4803C106.362 54.9552 107.621 54.6717 108.951 54.6922C110.282 54.7126 111.575 55.0354 112.548 55.5894C112.672 55.6541 112.783 55.7272 112.878 55.8068C113.049 55.9192 113.206 56.0383 113.348 56.163C113.555 56.3689 113.727 56.585 113.861 56.808C113.93 56.9274 113.972 57.0504 113.988 57.174L115.428 81.5429C115.477 81.688 115.606 81.823 115.795 81.9278C115.923 82.0053 116.079 82.0652 116.252 82.1021C116.424 82.1391 116.608 82.1522 116.786 82.1402L117.153 82.0852C118.829 81.7982 120.461 81.4431 122.037 81.0226L123.468 80.6046C123.897 80.4317 124.301 80.2402 124.678 80.0316C126.037 79.2463 126.813 78.1837 126.858 77.0465L125.599 55.335Z" fill="black" fill-opacity="0.4"/>
<path d="M83.6215 58.9522L79.6056 61.2708C78.1665 62.1005 77.2238 63.3279 77.2543 64.5336C77.2847 65.7393 78.1305 66.9194 79.6135 67.8254L86.1511 71.5514C86.424 71.7108 86.7697 71.8218 87.143 71.87L83.6215 58.9522ZM83.6215 58.9522L84.2329 58.9228L84.2557 59.0845L84.0559 59.1998L80.04 61.5184L80.0397 61.5186C78.7087 62.2859 77.8397 63.4235 77.8676 64.5273C77.8957 65.6406 78.6761 66.7357 80.0541 67.5798L86.5841 71.3014L86.5895 71.3044L86.5894 71.3044C86.7816 71.4167 87.0232 71.4937 87.2795 71.5267L87.2832 71.5272C87.6285 71.5731 87.97 71.538 88.2374 71.4391C88.5026 71.3411 88.6861 71.1839 88.7442 70.9975C88.7725 70.8936 88.7664 70.7849 88.7242 70.6769L88.7116 70.6448L88.7097 70.6118L88.3839 64.9941L88.375 64.8419L88.5625 64.7337L105.018 55.2328C106.052 54.636 107.476 54.3175 108.97 54.3404C110.457 54.3633 111.893 54.7224 112.971 55.3338C113.118 55.4108 113.249 55.4968 113.363 55.5903C113.544 55.7104 113.711 55.8373 113.862 55.9701L113.871 55.9781L113.879 55.9863C114.106 56.2114 114.294 56.4479 114.441 56.6922L114.444 56.6975L114.444 56.6975C114.528 56.8435 114.58 56.9942 114.6 57.1465L114.601 57.1537L114.601 57.1609L116.04 81.4975C116.069 81.5623 116.131 81.6243 116.222 81.6743L116.231 81.6798L116.241 81.6855C116.306 81.7248 116.384 81.7544 116.468 81.7725C116.54 81.788 116.613 81.7942 116.682 81.7923L116.989 81.7463C118.63 81.4651 120.227 81.1176 121.77 80.7063L123.151 80.3028C123.539 80.1448 123.906 79.9706 124.248 79.7815C125.485 79.0649 126.199 78.0942 126.245 77.0492L124.986 55.3554C124.604 52.5244 122.459 49.8016 118.937 47.6892M83.6215 58.9522L84.2329 58.9228L84.2329 58.9227L84.2329 58.9226L84.2328 58.9219L84.2324 58.9192L84.2309 58.9085L84.2252 58.8674L84.2045 58.7166C84.1872 58.5897 84.1639 58.4155 84.1398 58.2262C84.0911 57.8448 84.0401 57.4112 84.0265 57.1766L84.026 57.1692L84.0251 57.1619L83.9766 56.7926L83.9766 56.7923C83.8334 55.7148 83.6725 54.4885 83.9061 53.4071L83.9064 53.4056C84.4201 50.9425 86.3114 48.6905 89.2967 46.979L89.2976 46.9784C91.0624 45.9622 93.1598 45.1526 95.4852 44.5905L95.4799 44.5918L95.2538 44.2651M83.6215 58.9522C83.6215 58.9522 83.4416 57.6753 83.4135 57.1894L83.365 56.8202C83.2228 55.7504 83.0549 54.4876 83.2974 53.365C83.8271 50.8252 85.7784 48.4995 88.8638 46.7305C90.6869 45.6807 92.8532 44.8449 95.2538 44.2651M83.6215 58.9522L119.375 47.4422M95.2538 44.2651L95.4903 44.5893L96.4585 44.3674M95.2538 44.2651L96.2457 44.0377M96.4585 44.3674C98.2312 44.0152 100.096 43.807 102.001 43.7491L101.997 43.7492L101.975 43.3976M96.4585 44.3674L96.4718 44.3643L96.2457 44.0377M96.4585 44.3674C96.454 44.3682 96.4496 44.3691 96.4452 44.37L96.2457 44.0377M101.975 43.3976L102.005 43.7489L102.393 43.7401L102.635 43.7346L102.657 43.7218M101.975 43.3976L102.371 43.3885L102.396 43.3737M101.975 43.3976C100.007 43.4572 98.0792 43.6726 96.2457 44.0377M102.657 43.7218C105.486 43.689 108.336 43.9911 111.028 44.6112C113.798 45.2491 116.337 46.2087 118.477 47.4274M102.657 43.7218L102.805 43.6361L102.831 43.6213L102.396 43.3737M102.657 43.7218C102.576 43.7227 102.495 43.7239 102.414 43.7254L102.398 43.404L102.396 43.3737M118.477 47.4274L118.937 47.6892M118.477 47.4274L118.91 47.1772M118.477 47.4274L118.477 47.4272L118.91 47.1772M118.937 47.6892L118.942 47.6922L119.375 47.4422M118.937 47.6892C118.935 47.6881 118.933 47.687 118.931 47.6859L119.375 47.4422M119.375 47.4422L118.91 47.1772M118.91 47.1772C116.712 45.926 114.104 44.9402 111.258 44.2846C108.412 43.6291 105.392 43.3187 102.396 43.3737M61.5501 36.0092L61.5508 36.0088C87.2137 21.1923 128.886 21.076 154.631 35.7489L154.632 35.7493C163.923 41.0277 170.228 47.7842 172.744 55.1434L135.078 47.536L146.119 41.1619L146.552 40.9119L146.117 40.6643C138.547 36.3497 128.9 33.4319 118.407 32.2834C107.914 31.1349 97.0516 31.808 87.2085 34.2166C77.3653 36.6253 68.9877 40.6601 63.1459 45.8058C57.4644 50.8102 54.4322 56.6443 54.4067 62.6003L42.4869 60.1898C43.5226 51.0823 50.295 42.487 61.5501 36.0092ZM161.924 62.5513L173.844 64.9618C172.808 74.0693 166.036 82.6646 154.781 89.1424L154.78 89.1428C129.117 103.959 87.4452 104.076 61.6999 89.4027C52.0634 83.9106 46.0269 77.1259 43.5873 70.0083L81.2526 77.6156L70.2122 83.9898L69.7792 84.2397L70.2136 84.4873C77.7836 88.8019 87.4314 91.7197 97.9244 92.8682C108.417 94.0167 119.279 93.3436 129.122 90.935C138.966 88.5263 147.343 84.4915 153.185 79.3458C158.867 74.3414 161.899 68.5074 161.924 62.5513Z" stroke="url(#paint10_radial_1043_8265)" stroke-opacity="0.64"/>
</g>
</g>
</g>
<defs>
<linearGradient id="paint0_linear_1043_8265" x1="107.757" y1="47.4678" x2="80.2592" y2="145.698" gradientUnits="userSpaceOnUse">
<stop stop-color="#FCCD6A"/>
<stop offset="1" stop-color="#AB8B48"/>
</linearGradient>
<linearGradient id="paint1_linear_1043_8265" x1="107.756" y1="-26.0939" x2="39.2228" y2="119.635" gradientUnits="userSpaceOnUse">
<stop stop-color="#FCCD6A"/>
<stop offset="1" stop-color="#AB8B48"/>
</linearGradient>
<linearGradient id="paint2_linear_1043_8265" x1="108.223" y1="142.902" x2="168.826" y2="11.1872" gradientUnits="userSpaceOnUse">
<stop stop-color="#FCCD6A"/>
<stop offset="1" stop-color="#AB8B48"/>
</linearGradient>
<radialGradient id="paint3_radial_1043_8265" cx="0" cy="0" r="1" gradientUnits="userSpaceOnUse" gradientTransform="translate(-34.4 151.375) rotate(-29.0453) scale(239.237 203.132)">
<stop stop-color="#FFEDC7"/>
<stop offset="0.29324" stop-color="#EBB03E"/>
<stop offset="0.65662" stop-color="#F8DB9E"/>
<stop offset="0.802043" stop-color="#FBCC69"/>
<stop offset="1" stop-color="#FBCC69"/>
</radialGradient>
<linearGradient id="paint4_linear_1043_8265" x1="15.9229" y1="66.1116" x2="196.044" y2="48.631" gradientUnits="userSpaceOnUse">
<stop stop-color="#00E599"/>
<stop offset="1" stop-color="#00AF92"/>
</linearGradient>
<radialGradient id="paint5_radial_1043_8265" cx="0" cy="0" r="1" gradientUnits="userSpaceOnUse" gradientTransform="translate(-38.4 176) rotate(-44.3839) scale(210.447)">
<stop stop-color="#FFEDC7"/>
<stop offset="0.29324" stop-color="#EBB03E"/>
<stop offset="0.65662" stop-color="#F8DB9E"/>
<stop offset="0.802043" stop-color="#FBCC69"/>
<stop offset="1" stop-color="#FBCC69"/>
</radialGradient>
<radialGradient id="paint6_radial_1043_8265" cx="0" cy="0" r="1" gradientUnits="userSpaceOnUse" gradientTransform="translate(-38.4 176) rotate(-44.3839) scale(210.447)">
<stop stop-color="#FFEDC7"/>
<stop offset="0.29324" stop-color="#EBB03E"/>
<stop offset="0.65662" stop-color="#F8DB9E"/>
<stop offset="0.802043" stop-color="#FBCC69"/>
<stop offset="1" stop-color="#FBCC69"/>
</radialGradient>
<radialGradient id="paint7_radial_1043_8265" cx="0" cy="0" r="1" gradientUnits="userSpaceOnUse" gradientTransform="translate(115.464 152.824) rotate(-89.0861) scale(125.32 218.416)">
<stop stop-color="#FFEDC7"/>
<stop offset="0.29324" stop-color="#EBB03E"/>
<stop offset="0.65662" stop-color="#F8DB9E"/>
<stop offset="0.802043" stop-color="#FBCC69"/>
<stop offset="1" stop-color="#FBCC69"/>
</radialGradient>
<radialGradient id="paint8_radial_1043_8265" cx="0" cy="0" r="1" gradientUnits="userSpaceOnUse" gradientTransform="translate(115.464 152.824) rotate(-89.0861) scale(125.32 218.416)">
<stop stop-color="#FFEDC7"/>
<stop offset="0.29324" stop-color="#EBB03E"/>
<stop offset="0.65662" stop-color="#F8DB9E"/>
<stop offset="0.802043" stop-color="#FBCC69"/>
<stop offset="1" stop-color="#FBCC69"/>
</radialGradient>
<radialGradient id="paint9_radial_1043_8265" cx="0" cy="0" r="1" gradientUnits="userSpaceOnUse" gradientTransform="translate(115.464 152.824) rotate(-89.0861) scale(125.32 218.416)">
<stop stop-color="#FFEDC7"/>
<stop offset="0.29324" stop-color="#EBB03E"/>
<stop offset="0.65662" stop-color="#F8DB9E"/>
<stop offset="0.802043" stop-color="#FBCC69"/>
<stop offset="1" stop-color="#FBCC69"/>
</radialGradient>
<radialGradient id="paint10_radial_1043_8265" cx="0" cy="0" r="1" gradientUnits="userSpaceOnUse" gradientTransform="translate(115.464 152.824) rotate(-89.0861) scale(125.32 218.416)">
<stop stop-color="#FFEDC7"/>
<stop offset="0.29324" stop-color="#EBB03E"/>
<stop offset="0.65662" stop-color="#F8DB9E"/>
<stop offset="0.802043" stop-color="#FBCC69"/>
<stop offset="1" stop-color="#FBCC69"/>
</radialGradient>
<clipPath id="clip0_1043_8265">
<rect width="216" height="138" fill="white"/>
</clipPath>
<clipPath id="clip1_1043_8265">
<rect width="128" height="128" fill="white" transform="matrix(0.866025 -0.5 0.868804 0.495155 -2.86328 62.8859)"/>
</clipPath>
</defs>
</svg>
