<svg width="160" height="160" viewBox="0 0 160 160" fill="none" xmlns="http://www.w3.org/2000/svg">
<rect y="0.00434875" width="160" height="160" rx="80" fill="white"/>
<path d="M160 80C160 35.8164 124.183 0 79.9987 0C35.8167 0 0 35.8164 0 80C0 124.181 35.8167 160 79.9987 160C124.183 160 160 124.181 160 80Z" fill="white"/>
<path d="M160 80C160 35.8164 124.183 0 79.9987 0C35.8167 0 0 35.8164 0 80C0 124.181 35.8167 160 79.9987 160C124.183 160 160 124.181 160 80Z" fill="url(#paint0_radial_1043_22651)"/>
<mask id="mask0_1043_22651" style="mask-type:alpha" maskUnits="userSpaceOnUse" x="8" y="8" width="144" height="144">
<path d="M151.111 80C151.111 40.7281 119.272 8.88889 79.9984 8.88889C40.7278 8.88889 8.88867 40.7281 8.88867 80C8.88867 119.272 40.7278 151.111 79.9984 151.111C119.272 151.111 151.111 119.272 151.111 80Z" fill="url(#paint1_linear_1043_22651)"/>
<path d="M151.111 80C151.111 40.7281 119.272 8.88889 79.9984 8.88889C40.7278 8.88889 8.88867 40.7281 8.88867 80C8.88867 119.272 40.7278 151.111 79.9984 151.111C119.272 151.111 151.111 119.272 151.111 80Z" fill="white"/>
</mask>
<g mask="url(#mask0_1043_22651)">
<g clip-path="url(#clip0_1043_22651)">
<rect width="142.222" height="142.222" transform="translate(8.88867 8.88889)" fill="white"/>
<rect width="142.222" height="142.222" transform="translate(8.88867 8.88889)" fill="url(#paint2_radial_1043_22651)"/>
<rect x="8.88867" y="8.88889" width="142.222" height="142.222" rx="71.1111" fill="white"/>
<rect x="8.88867" y="8.88889" width="142.222" height="142.222" rx="71.1111" fill="url(#paint3_radial_1043_22651)"/>
<path d="M79.999 19.8291C65.3055 19.806 51.1152 25.1806 40.1238 34.932L40.1298 34.9381L45.5452 46.3826C52.2292 39.5321 60.8036 34.8296 70.1731 32.876C79.5427 30.9223 89.2819 31.806 98.1467 35.4143C107.012 39.0227 114.599 45.1917 119.941 53.1334C125.283 61.0751 128.136 70.429 128.136 80H113.093L129.381 114.388C136.423 104.305 140.189 92.2984 140.17 80C140.17 46.7676 113.231 19.8291 79.999 19.8291Z" fill="url(#paint4_radial_1043_22651)"/>
<path d="M79.999 19.8291C65.3055 19.806 51.1152 25.1806 40.1238 34.932L40.1298 34.9381L45.5452 46.3826C52.2292 39.5321 60.8036 34.8296 70.1731 32.876C79.5427 30.9223 89.2819 31.806 98.1467 35.4143C107.012 39.0227 114.599 45.1917 119.941 53.1334C125.283 61.0751 128.136 70.429 128.136 80H113.093L129.381 114.388C136.423 104.305 140.189 92.2984 140.17 80C140.17 46.7676 113.231 19.8291 79.999 19.8291Z" fill="black" fill-opacity="0.4"/>
<path d="M79.999 140.171C94.6926 140.194 108.883 134.819 119.874 125.068L119.868 125.062L114.453 113.617C107.769 120.468 99.1944 125.17 89.8249 127.124C80.4554 129.078 70.7161 128.194 61.8513 124.586C52.9865 120.977 45.3986 114.808 40.0569 106.867C34.7151 98.9249 31.8621 89.5711 31.8623 80H46.905L30.6168 45.6124C23.8175 55.36 19.8281 67.2137 19.8281 80C19.8281 113.232 46.7666 140.171 79.999 140.171Z" fill="url(#paint5_radial_1043_22651)"/>
<path d="M79.999 140.171C94.6926 140.194 108.883 134.819 119.874 125.068L119.868 125.062L114.453 113.617C107.769 120.468 99.1944 125.17 89.8249 127.124C80.4554 129.078 70.7161 128.194 61.8513 124.586C52.9865 120.977 45.3986 114.808 40.0569 106.867C34.7151 98.9249 31.8621 89.5711 31.8623 80H46.905L30.6168 45.6124C23.8175 55.36 19.8281 67.2137 19.8281 80C19.8281 113.232 46.7666 140.171 79.999 140.171Z" fill="black" fill-opacity="0.4"/>
<path d="M99.2077 83.1485C102.222 79.6435 103.948 75.0969 104.067 70.3447V69.75C104.066 66.9406 103.506 64.1634 102.425 61.6009C101.344 59.0384 99.7666 56.7487 97.7958 54.8822H97.763L97.5003 54.6373C96.1795 53.4374 94.71 52.4368 93.1332 51.6638L92.2467 51.279C90.0683 50.3802 87.7529 49.9177 85.4169 49.9146C81.4722 49.9008 77.6276 51.2376 74.4499 53.7278C73.0398 54.8232 71.7347 56.3388 70.629 57.6229L70.247 58.0657C69.7216 58.6254 68.4082 60.1646 68.4082 60.1646L63.2558 60.1646C61.4107 60.1633 59.4373 60.9247 58.1084 62.2884C56.7794 63.6521 55.9988 65.5118 55.9308 67.4763V75.8372C55.9265 76.1904 56.0226 76.5368 56.2066 76.8307C56.4506 77.2258 56.8318 77.5015 57.2665 77.5973C57.7012 77.6931 58.1538 77.6011 58.5248 77.3415C58.7187 77.2014 58.8858 77.0233 59.0173 76.8167L65.0919 70.3449L86.2049 70.3447C87.3719 70.3447 88.491 70.8386 89.3162 71.7177C90.1413 72.5968 90.6049 73.7892 90.6049 75.0324C90.6121 75.1849 90.601 75.3377 90.5721 75.4872C90.5556 75.7227 90.5226 75.9566 90.4735 76.1868C90.3754 76.5498 90.2434 76.9014 90.0795 77.2363C89.9894 77.4134 89.8791 77.5779 89.7512 77.7261L63.4172 105.817C63.286 106.011 63.2169 106.244 63.2202 106.482C63.215 106.651 63.2481 106.819 63.3167 106.971C63.3853 107.123 63.4873 107.255 63.6142 107.357L63.9097 107.532C65.299 108.29 66.7363 108.945 68.2112 109.491L69.5903 109.945C70.0571 110.029 70.529 110.076 71.0022 110.085C72.7466 110.085 74.4298 109.4 75.7305 108.161L99.2077 83.1485Z" fill="url(#paint6_radial_1043_22651)"/>
<path d="M99.2077 83.1485C102.222 79.6435 103.948 75.0969 104.067 70.3447V69.75C104.066 66.9406 103.506 64.1634 102.425 61.6009C101.344 59.0384 99.7666 56.7487 97.7958 54.8822H97.763L97.5003 54.6373C96.1795 53.4374 94.71 52.4368 93.1332 51.6638L92.2467 51.279C90.0683 50.3802 87.7529 49.9177 85.4169 49.9146C81.4722 49.9008 77.6276 51.2376 74.4499 53.7278C73.0398 54.8232 71.7347 56.3388 70.629 57.6229L70.247 58.0657C69.7216 58.6254 68.4082 60.1646 68.4082 60.1646L63.2558 60.1646C61.4107 60.1633 59.4373 60.9247 58.1084 62.2884C56.7794 63.6521 55.9988 65.5118 55.9308 67.4763V75.8372C55.9265 76.1904 56.0226 76.5368 56.2066 76.8307C56.4506 77.2258 56.8318 77.5015 57.2665 77.5973C57.7012 77.6931 58.1538 77.6011 58.5248 77.3415C58.7187 77.2014 58.8858 77.0233 59.0173 76.8167L65.0919 70.3449L86.2049 70.3447C87.3719 70.3447 88.491 70.8386 89.3162 71.7177C90.1413 72.5968 90.6049 73.7892 90.6049 75.0324C90.6121 75.1849 90.601 75.3377 90.5721 75.4872C90.5556 75.7227 90.5226 75.9566 90.4735 76.1868C90.3754 76.5498 90.2434 76.9014 90.0795 77.2363C89.9894 77.4134 89.8791 77.5779 89.7512 77.7261L63.4172 105.817C63.286 106.011 63.2169 106.244 63.2202 106.482C63.215 106.651 63.2481 106.819 63.3167 106.971C63.3853 107.123 63.4873 107.255 63.6142 107.357L63.9097 107.532C65.299 108.29 66.7363 108.945 68.2112 109.491L69.5903 109.945C70.0571 110.029 70.529 110.076 71.0022 110.085C72.7466 110.085 74.4298 109.4 75.7305 108.161L99.2077 83.1485Z" fill="black" fill-opacity="0.4"/>
<path d="M68.4082 60.1646L63.2558 60.1646C61.4107 60.1633 59.4373 60.9247 58.1084 62.2884C56.7794 63.6521 55.9988 65.5118 55.9308 67.4763V75.8372C55.9265 76.1904 56.0226 76.5368 56.2066 76.8307L68.4082 60.1646ZM68.4082 60.1646L68.8308 60.5252L68.6645 60.7202H68.4082L63.2558 60.7202H63.2554C61.549 60.7189 59.7229 61.4277 58.5063 62.6762C57.2793 63.9352 56.552 65.6583 56.4864 67.486V75.8372V75.844H56.4863C56.4833 76.0928 56.5512 76.3342 56.6775 76.5359L56.6793 76.5388C56.8481 76.8122 57.1051 76.9929 57.386 77.0548C57.6647 77.1161 57.9574 77.059 58.2029 76.8886C58.3371 76.791 58.4548 76.6659 58.5487 76.5184L58.5766 76.4745L58.6123 76.4365L64.6868 69.9647L64.8514 69.7893L65.0919 69.7893L86.2049 69.7891C87.531 69.7891 88.795 70.3507 89.7212 71.3375C90.6436 72.3201 91.1573 73.6447 91.1604 75.0199C91.1679 75.2002 91.1557 75.381 91.1239 75.5585C91.1049 75.8089 91.0691 76.0575 91.0169 76.3027L91.0138 76.3174L91.0098 76.3319C90.9025 76.7287 90.7581 77.1135 90.5786 77.4804L90.5747 77.4884L90.5746 77.4884C90.4645 77.7047 90.3293 77.9065 90.1718 78.0891L90.1643 78.0977L90.1565 78.1061L63.8574 106.16C63.8038 106.251 63.7741 106.36 63.7757 106.474L63.7759 106.487L63.7755 106.499C63.7728 106.585 63.7897 106.668 63.8232 106.743C63.8519 106.806 63.8913 106.86 63.9372 106.902L64.1844 107.049C65.5446 107.791 66.9514 108.432 68.3946 108.966L69.7262 109.405C70.1501 109.479 70.5784 109.521 71.0077 109.53C72.5981 109.528 74.1385 108.905 75.3363 107.769L98.7944 82.7771C101.717 79.3751 103.394 74.9591 103.512 70.3377M68.4082 60.1646L68.8308 60.5252L68.8308 60.5252L68.831 60.525L68.8317 60.5242L68.8345 60.5209L68.8455 60.5081L68.8878 60.4585L69.0432 60.2772C69.1742 60.1246 69.3542 59.9154 69.5504 59.6888C69.9459 59.2324 70.3983 58.7162 70.652 58.4459L70.66 58.4374L70.6676 58.4286L71.0496 57.9858L71.05 57.9854C72.1636 56.6922 73.4325 55.2216 74.7907 54.1665L74.7926 54.165C77.8745 51.7499 81.5983 50.4568 85.415 50.4702L85.4162 50.4702C87.6774 50.4732 89.9194 50.9205 92.0301 51.7906L92.0255 51.7886L92.2467 51.279M68.4082 60.1646C68.4082 60.1646 69.7216 58.6254 70.247 58.0657L70.629 57.6229C71.7347 56.3388 73.0398 54.8232 74.4499 53.7278C77.6276 51.2376 81.4722 49.9008 85.4169 49.9146C87.7529 49.9177 90.0683 50.3802 92.2467 51.279M68.4082 60.1646L104.067 70.3447M92.2467 51.279L92.0348 51.7925L92.9001 52.1682M92.2467 51.279L93.1332 51.6638M92.9001 52.1682C94.4239 52.9166 95.8453 53.8848 97.1242 55.0462L97.1215 55.0437L97.5003 54.6373M92.9001 52.1682L92.912 52.1734L93.1332 51.6638M92.9001 52.1682C92.8963 52.1663 92.8925 52.1645 92.8886 52.1626L93.1332 51.6638M97.5003 54.6373L97.1267 55.0485L97.3842 55.2886L97.5442 55.4378H97.5726M97.5003 54.6373L97.763 54.8822H97.7958M97.5003 54.6373C96.1795 53.4374 94.71 52.4368 93.1332 51.6638M97.5726 55.4378C99.4124 57.2219 100.891 59.3927 101.913 61.8168C102.965 64.3104 103.51 67.0142 103.512 69.7503M97.5726 55.4378H97.763H97.7958V54.8822M97.5726 55.4378C97.52 55.3867 97.467 55.336 97.4138 55.2856L97.763 54.9169L97.7958 54.8822M103.512 69.7503V70.3377M103.512 69.7503L104.067 69.75M103.512 69.7503V69.75H104.067M103.512 70.3377V70.3447H104.067M103.512 70.3377C103.512 70.3354 103.512 70.333 103.512 70.3307L104.067 70.3447M104.067 70.3447V69.75M104.067 69.75C104.066 66.9406 103.506 64.1634 102.425 61.6009C101.344 59.0384 99.7666 56.7487 97.7958 54.8822M79.9982 20.3847H79.999C112.925 20.3847 139.614 47.0745 139.614 80V80.0009C139.633 91.8645 136.096 103.454 129.47 113.277L113.971 80.5556H128.136H128.691L128.691 80C128.691 70.3185 125.806 60.8567 120.402 52.8234C114.999 44.79 107.323 38.5497 98.3562 34.8998C89.389 31.2498 79.5374 30.3559 70.0597 32.3321C60.8422 34.2541 52.3854 38.806 45.7085 45.4289L40.8071 35.0705C51.6521 25.5848 65.5806 20.362 79.9982 20.3847ZM114.29 114.571L119.191 124.93C108.346 134.415 94.4175 139.638 79.9999 139.615H79.999C47.0735 139.615 20.3837 112.926 20.3837 80C20.3837 67.676 24.1237 56.2279 30.5284 46.7236L46.0272 79.4445H31.8623H31.3068L31.3068 80C31.3066 89.6815 34.1925 99.1433 39.5959 107.177C44.9993 115.21 52.6748 121.45 61.6419 125.1C70.609 128.75 80.4607 129.644 89.9383 127.668C99.1558 125.746 107.613 121.194 114.29 114.571Z" stroke="url(#paint7_radial_1043_22651)" stroke-opacity="0.64" stroke-width="1.11111"/>
</g>
</g>
<defs>
<radialGradient id="paint0_radial_1043_22651" cx="0" cy="0" r="1" gradientUnits="userSpaceOnUse" gradientTransform="translate(-48 220) rotate(-44.3839) scale(263.059)">
<stop stop-color="#FFEDC7"/>
<stop offset="0.29324" stop-color="#EBB03E"/>
<stop offset="0.65662" stop-color="#F8DB9E"/>
<stop offset="0.802043" stop-color="#FBCC69"/>
<stop offset="1" stop-color="#FBCC69"/>
</radialGradient>
<linearGradient id="paint1_linear_1043_22651" x1="17.2547" y1="24.5752" x2="139.608" y2="134.379" gradientUnits="userSpaceOnUse">
<stop stop-color="#00E599"/>
<stop offset="1" stop-color="#00AF92"/>
</linearGradient>
<radialGradient id="paint2_radial_1043_22651" cx="0" cy="0" r="1" gradientUnits="userSpaceOnUse" gradientTransform="translate(-42.6667 195.556) rotate(-44.3839) scale(233.83)">
<stop stop-color="#FFEDC7"/>
<stop offset="0.29324" stop-color="#EBB03E"/>
<stop offset="0.65662" stop-color="#F8DB9E"/>
<stop offset="0.802043" stop-color="#FBCC69"/>
<stop offset="1" stop-color="#FBCC69"/>
</radialGradient>
<radialGradient id="paint3_radial_1043_22651" cx="0" cy="0" r="1" gradientUnits="userSpaceOnUse" gradientTransform="translate(-33.778 204.444) rotate(-44.3839) scale(233.83)">
<stop stop-color="#FFEDC7"/>
<stop offset="0.29324" stop-color="#EBB03E"/>
<stop offset="0.65662" stop-color="#F8DB9E"/>
<stop offset="0.802043" stop-color="#FBCC69"/>
<stop offset="1" stop-color="#FBCC69"/>
</radialGradient>
<radialGradient id="paint4_radial_1043_22651" cx="0" cy="0" r="1" gradientUnits="userSpaceOnUse" gradientTransform="translate(-16.2744 185.299) rotate(-44.3839) scale(197.856)">
<stop stop-color="#FFEDC7"/>
<stop offset="0.29324" stop-color="#EBB03E"/>
<stop offset="0.65662" stop-color="#F8DB9E"/>
<stop offset="0.802043" stop-color="#FBCC69"/>
<stop offset="1" stop-color="#FBCC69"/>
</radialGradient>
<radialGradient id="paint5_radial_1043_22651" cx="0" cy="0" r="1" gradientUnits="userSpaceOnUse" gradientTransform="translate(-16.2744 185.299) rotate(-44.3839) scale(197.856)">
<stop stop-color="#FFEDC7"/>
<stop offset="0.29324" stop-color="#EBB03E"/>
<stop offset="0.65662" stop-color="#F8DB9E"/>
<stop offset="0.802043" stop-color="#FBCC69"/>
<stop offset="1" stop-color="#FBCC69"/>
</radialGradient>
<radialGradient id="paint6_radial_1043_22651" cx="0" cy="0" r="1" gradientUnits="userSpaceOnUse" gradientTransform="translate(-16.2744 185.299) rotate(-44.3839) scale(197.856)">
<stop stop-color="#FFEDC7"/>
<stop offset="0.29324" stop-color="#EBB03E"/>
<stop offset="0.65662" stop-color="#F8DB9E"/>
<stop offset="0.802043" stop-color="#FBCC69"/>
<stop offset="1" stop-color="#FBCC69"/>
</radialGradient>
<radialGradient id="paint7_radial_1043_22651" cx="0" cy="0" r="1" gradientUnits="userSpaceOnUse" gradientTransform="translate(-16.2744 185.299) rotate(-44.3839) scale(197.856)">
<stop stop-color="#FFEDC7"/>
<stop offset="0.29324" stop-color="#EBB03E"/>
<stop offset="0.65662" stop-color="#F8DB9E"/>
<stop offset="0.802043" stop-color="#FBCC69"/>
<stop offset="1" stop-color="#FBCC69"/>
</radialGradient>
<clipPath id="clip0_1043_22651">
<rect width="142.222" height="142.222" fill="white" transform="translate(8.88867 8.88889)"/>
</clipPath>
</defs>
</svg>
