<svg width="160" height="160" viewBox="0 0 160 160" fill="none" xmlns="http://www.w3.org/2000/svg">
<path d="M160 80C160 35.8164 124.183 0 79.9987 0C35.8167 0 0 35.8164 0 80C0 124.181 35.8167 160 79.9987 160C124.183 160 160 124.181 160 80Z" fill="url(#paint0_linear_1043_21823)"/>
<path d="M7.99999 80C8 119.765 40.2363 152 80.0013 152C119.766 152 152 119.765 152 80C152 40.2346 119.766 8 80.0013 8.00001C40.2363 8.00001 7.99999 40.2346 7.99999 80Z" fill="url(#paint1_linear_1043_21823)"/>
<path d="M144 80C144 44.6531 115.347 16 79.999 16C44.6534 16 16 44.6531 16 80C16 115.345 44.6534 144 79.999 144C115.347 144 144 115.345 144 80Z" fill="url(#paint2_linear_1043_21823)"/>
<path d="M144 80C144 44.6531 115.347 16 79.999 16C44.6534 16 16 44.6531 16 80C16 115.345 44.6534 144 79.999 144C115.347 144 144 115.345 144 80Z" fill="white" fill-opacity="0.08"/>
<mask id="mask0_1043_21823" style="mask-type:alpha" maskUnits="userSpaceOnUse" x="24" y="24" width="112" height="112">
<path d="M136 80C136 49.0734 110.927 24 79.9989 24C49.0733 24 24 49.0734 24 80C24 110.927 49.0733 136 79.9989 136C110.927 136 136 110.927 136 80Z" fill="url(#paint3_linear_1043_21823)"/>
<path d="M136 80C136 49.0734 110.927 24 79.9989 24C49.0733 24 24 49.0734 24 80C24 110.927 49.0733 136 79.9989 136C110.927 136 136 110.927 136 80Z" fill="white"/>
</mask>
<g mask="url(#mask0_1043_21823)">
<g clip-path="url(#clip0_1043_21823)">
<rect width="112" height="112" transform="translate(24 24)" fill="white"/>
<rect width="112" height="112" transform="translate(24 24)" fill="url(#paint4_radial_1043_21823)"/>
<rect x="24" y="24" width="112" height="112" rx="56" fill="white"/>
<rect x="24" y="24" width="112" height="112" rx="56" fill="url(#paint5_radial_1043_21823)"/>
<path d="M79.9998 32.6154C68.4286 32.5972 57.2538 36.8297 48.5981 44.5089L48.6028 44.5137L52.8674 53.5262C58.1311 48.1315 64.8834 44.4283 72.2619 42.8898C79.6404 41.3513 87.3101 42.0472 94.2911 44.8888C101.272 47.7303 107.248 52.5884 111.454 58.8425C115.661 65.0966 117.908 72.4628 117.907 80H106.061L118.888 107.08C124.433 99.1398 127.4 89.6849 127.384 80C127.384 53.8295 106.17 32.6154 79.9998 32.6154Z" fill="url(#paint6_radial_1043_21823)"/>
<path d="M79.9998 32.6154C68.4286 32.5972 57.2538 36.8297 48.5981 44.5089L48.6028 44.5137L52.8674 53.5262C58.1311 48.1315 64.8834 44.4283 72.2619 42.8898C79.6404 41.3513 87.3101 42.0472 94.2911 44.8888C101.272 47.7303 107.248 52.5884 111.454 58.8425C115.661 65.0966 117.908 72.4628 117.907 80H106.061L118.888 107.08C124.433 99.1398 127.4 89.6849 127.384 80C127.384 53.8295 106.17 32.6154 79.9998 32.6154Z" fill="black" fill-opacity="0.4"/>
<path d="M79.9998 127.385C91.571 127.403 102.746 123.17 111.402 115.491L111.397 115.486L107.132 106.474C101.869 111.868 95.1162 115.572 87.7377 117.11C80.3592 118.649 72.6896 117.953 65.7085 115.111C58.7275 112.27 52.752 107.412 48.5454 101.157C44.3388 94.9033 42.092 87.5372 42.0922 80H53.9383L41.1113 52.9197C35.7568 60.596 32.6152 69.9308 32.6152 80C32.6152 106.17 53.8293 127.385 79.9998 127.385Z" fill="url(#paint7_radial_1043_21823)"/>
<path d="M79.9998 127.385C91.571 127.403 102.746 123.17 111.402 115.491L111.397 115.486L107.132 106.474C101.869 111.868 95.1162 115.572 87.7377 117.11C80.3592 118.649 72.6896 117.953 65.7085 115.111C58.7275 112.27 52.752 107.412 48.5454 101.157C44.3388 94.9033 42.092 87.5372 42.0922 80H53.9383L41.1113 52.9197C35.7568 60.596 32.6152 69.9308 32.6152 80C32.6152 106.17 53.8293 127.385 79.9998 127.385Z" fill="black" fill-opacity="0.4"/>
<path d="M95.1267 82.4794C97.5006 79.7192 98.8596 76.1388 98.9537 72.3964V71.9281C98.9524 69.7157 98.5117 67.5286 97.6605 65.5107C96.8092 63.4927 95.5668 61.6896 94.0148 60.2197H93.9889L93.7821 60.0268C92.742 59.0819 91.5847 58.294 90.343 57.6852L89.6448 57.3821C87.9294 56.6744 86.106 56.3102 84.2664 56.3077C81.1599 56.2969 78.1323 57.3495 75.6299 59.3106C74.5195 60.1732 73.4917 61.3668 72.6209 62.378L72.3201 62.7267C71.9063 63.1675 70.872 64.3796 70.872 64.3796L66.8145 64.3796C65.3615 64.3786 63.8075 64.9782 62.7609 66.0521C61.7144 67.126 61.0997 68.5905 61.0461 70.1375V76.7218C61.0427 76.9999 61.1184 77.2727 61.2633 77.5042C61.4554 77.8153 61.7556 78.0324 62.0979 78.1078C62.4403 78.1833 62.7967 78.1108 63.0889 77.9064C63.2416 77.7961 63.3732 77.6558 63.4767 77.4931L68.2604 72.3965L84.887 72.3964C85.8059 72.3964 86.6873 72.7853 87.3371 73.4776C87.9869 74.1699 88.3519 75.1089 88.3519 76.088C88.3576 76.208 88.3489 76.3284 88.3261 76.4461C88.3131 76.6316 88.2872 76.8158 88.2485 76.9971C88.1712 77.2829 88.0672 77.5598 87.9382 77.8236C87.8672 77.963 87.7804 78.0925 87.6796 78.2093L66.9416 100.331C66.8383 100.483 66.7839 100.667 66.7865 100.855C66.7824 100.988 66.8084 101.12 66.8625 101.239C66.9165 101.359 66.9969 101.464 67.0968 101.543L67.3295 101.681C68.4236 102.279 69.5554 102.794 70.7169 103.224L71.8029 103.582C72.1705 103.648 72.5421 103.684 72.9148 103.692C74.2886 103.692 75.614 103.152 76.6383 102.177L95.1267 82.4794Z" fill="url(#paint8_radial_1043_21823)"/>
<path d="M95.1267 82.4794C97.5006 79.7192 98.8596 76.1388 98.9537 72.3964V71.9281C98.9524 69.7157 98.5117 67.5286 97.6605 65.5107C96.8092 63.4927 95.5668 61.6896 94.0148 60.2197H93.9889L93.7821 60.0268C92.742 59.0819 91.5847 58.294 90.343 57.6852L89.6448 57.3821C87.9294 56.6744 86.106 56.3102 84.2664 56.3077C81.1599 56.2969 78.1323 57.3495 75.6299 59.3106C74.5195 60.1732 73.4917 61.3668 72.6209 62.378L72.3201 62.7267C71.9063 63.1675 70.872 64.3796 70.872 64.3796L66.8145 64.3796C65.3615 64.3786 63.8075 64.9782 62.7609 66.0521C61.7144 67.126 61.0997 68.5905 61.0461 70.1375V76.7218C61.0427 76.9999 61.1184 77.2727 61.2633 77.5042C61.4554 77.8153 61.7556 78.0324 62.0979 78.1078C62.4403 78.1833 62.7967 78.1108 63.0889 77.9064C63.2416 77.7961 63.3732 77.6558 63.4767 77.4931L68.2604 72.3965L84.887 72.3964C85.8059 72.3964 86.6873 72.7853 87.3371 73.4776C87.9869 74.1699 88.3519 75.1089 88.3519 76.088C88.3576 76.208 88.3489 76.3284 88.3261 76.4461C88.3131 76.6316 88.2872 76.8158 88.2485 76.9971C88.1712 77.2829 88.0672 77.5598 87.9382 77.8236C87.8672 77.963 87.7804 78.0925 87.6796 78.2093L66.9416 100.331C66.8383 100.483 66.7839 100.667 66.7865 100.855C66.7824 100.988 66.8084 101.12 66.8625 101.239C66.9165 101.359 66.9969 101.464 67.0968 101.543L67.3295 101.681C68.4236 102.279 69.5554 102.794 70.7169 103.224L71.8029 103.582C72.1705 103.648 72.5421 103.684 72.9148 103.692C74.2886 103.692 75.614 103.152 76.6383 102.177L95.1267 82.4794Z" fill="black" fill-opacity="0.4"/>
<path d="M70.872 64.3796C70.872 64.3796 71.9063 63.1675 72.3201 62.7267L72.6209 62.378C73.4917 61.3668 74.5195 60.1732 75.6299 59.3106C78.1323 57.3495 81.1599 56.2969 84.2664 56.3077L70.872 64.3796ZM70.872 64.3796L71.2048 64.6636L71.2049 64.6635L71.205 64.6634L71.2055 64.6628L71.2077 64.6602L71.2164 64.6501L71.2497 64.6111L71.3721 64.4682C71.4752 64.3481 71.617 64.1833 71.7716 64.0049C72.083 63.6455 72.4392 63.239 72.6391 63.0261L72.6453 63.0194L72.6513 63.0125L72.9522 62.6638L72.9524 62.6635C73.8294 61.645 74.8287 60.487 75.8983 59.6561L75.8997 59.6549C78.3267 57.753 81.2592 56.7347 84.2649 56.7452L84.2658 56.7452C86.0465 56.7476 87.8121 57.0999 89.4743 57.785L90.1595 58.0824C91.3594 58.6718 92.4788 59.4342 93.4859 60.3489C93.4866 60.3495 93.4872 60.3501 93.4879 60.3507L93.6906 60.5397L93.8166 60.6572M70.872 64.3796L71.2048 64.6636L71.0738 64.8171L70.872 64.8171L66.8145 64.8171H66.8142C65.4704 64.8161 64.0324 65.3743 63.0743 66.3574C62.108 67.3489 61.5352 68.7059 61.4836 70.1452M70.872 64.3796L66.8145 64.3796C65.3615 64.3786 63.8075 64.9782 62.7609 66.0521C61.7144 67.126 61.0997 68.5905 61.0461 70.1375M70.872 64.3796L93.8166 60.6572M93.8166 60.6572H93.839C95.2879 62.0622 96.4521 63.7717 97.2574 65.6807C98.0857 67.6444 98.5149 69.7737 98.5162 71.9283V72.3908C98.4235 76.0302 97.1024 79.5079 94.8012 82.1869L76.3279 101.868C75.3847 102.763 74.1717 103.253 72.9194 103.255C72.5812 103.247 72.2438 103.215 71.9099 103.157L70.8614 102.811C69.7248 102.39 68.617 101.885 67.5457 101.301L67.3511 101.186C67.315 101.152 67.2839 101.11 67.2613 101.06C67.235 101.001 67.2217 100.935 67.2238 100.868L67.2241 100.858L67.2239 100.849C67.2227 100.759 67.2461 100.673 67.2883 100.601L87.9988 78.5085L88.005 78.5019L88.0108 78.4951C88.1349 78.3513 88.2414 78.1924 88.3281 78.0221L88.3281 78.0221L88.3312 78.0158C88.4726 77.7268 88.5863 77.4238 88.6708 77.1114L88.6739 77.0999L88.6764 77.0883C88.7175 76.8953 88.7457 76.6994 88.7606 76.5022C88.7857 76.3624 88.7953 76.2201 88.7894 76.0781C88.787 74.9952 88.3824 73.952 87.6561 73.1782C86.9267 72.4011 85.9312 71.9589 84.887 71.9589L68.2604 71.959H68.0711L67.9414 72.0971L63.1577 77.1937L63.1297 77.2236L63.1077 77.2582C63.0337 77.3744 62.941 77.4729 62.8354 77.5498M93.8166 60.6572L62.8354 77.5498M61.4836 70.1452V70.1375H61.0461M61.4836 70.1452V76.7218V76.7271H61.4836C61.4812 76.9231 61.5346 77.1131 61.6341 77.272L61.6356 77.2743C61.7685 77.4896 61.9708 77.6318 62.1921 77.6806C62.4115 77.7289 62.642 77.684 62.8354 77.5498M61.4836 70.1452C61.4835 70.1477 61.4834 70.1502 61.4833 70.1527L61.0461 70.1375M61.0461 70.1375L62.8354 77.5498M79.9991 33.0529H79.9998C105.929 33.0529 126.947 54.0711 126.947 80V80.0007C126.962 89.3432 124.176 98.4698 118.958 106.206L106.753 80.4375H117.907H118.345L118.345 80C118.345 72.3758 116.072 64.9246 111.817 58.5984C107.562 52.2721 101.518 47.3579 94.4561 44.4835C87.3945 41.6092 79.6363 40.9052 72.1726 42.4615C64.9138 43.9751 58.2541 47.5597 52.9961 52.7752L49.1361 44.618C57.6766 37.148 68.6453 33.035 79.9991 33.0529ZM107.004 107.225L110.863 115.382C102.323 122.852 91.3544 126.965 80.0005 126.947H79.9998C54.0709 126.947 33.0527 105.929 33.0527 80C33.0527 70.2948 35.998 61.2794 41.0417 53.7948L53.247 79.5625H42.0922H41.6547L41.6547 80C41.6545 87.6242 43.9272 95.0753 48.1823 101.402C52.4375 107.728 58.482 112.642 65.5436 115.516C72.6052 118.391 80.3633 119.095 87.827 117.538C95.0858 116.025 101.746 112.44 107.004 107.225Z" stroke="url(#paint9_radial_1043_21823)" stroke-opacity="0.64" stroke-width="0.875"/>
</g>
</g>
<defs>
<linearGradient id="paint0_linear_1043_21823" x1="160" y1="-0.00063818" x2="-14.7107" y2="18.113" gradientUnits="userSpaceOnUse">
<stop stop-color="#FCCD6A"/>
<stop offset="1" stop-color="#AB8B48"/>
</linearGradient>
<linearGradient id="paint1_linear_1043_21823" x1="8.00006" y1="152.001" x2="165.24" y2="135.698" gradientUnits="userSpaceOnUse">
<stop stop-color="#FCCD6A"/>
<stop offset="1" stop-color="#AB8B48"/>
</linearGradient>
<linearGradient id="paint2_linear_1043_21823" x1="144" y1="15.9995" x2="4.23144" y2="30.4904" gradientUnits="userSpaceOnUse">
<stop stop-color="#FCCD6A"/>
<stop offset="1" stop-color="#AB8B48"/>
</linearGradient>
<linearGradient id="paint3_linear_1043_21823" x1="30.5882" y1="36.3529" x2="126.941" y2="122.824" gradientUnits="userSpaceOnUse">
<stop stop-color="#00E599"/>
<stop offset="1" stop-color="#00AF92"/>
</linearGradient>
<radialGradient id="paint4_radial_1043_21823" cx="0" cy="0" r="1" gradientUnits="userSpaceOnUse" gradientTransform="translate(-33.6 154) rotate(-44.3839) scale(184.141)">
<stop stop-color="#FFEDC7"/>
<stop offset="0.29324" stop-color="#EBB03E"/>
<stop offset="0.65662" stop-color="#F8DB9E"/>
<stop offset="0.802043" stop-color="#FBCC69"/>
<stop offset="1" stop-color="#FBCC69"/>
</radialGradient>
<radialGradient id="paint5_radial_1043_21823" cx="0" cy="0" r="1" gradientUnits="userSpaceOnUse" gradientTransform="translate(-9.59999 178) rotate(-44.3839) scale(184.141)">
<stop stop-color="#FFEDC7"/>
<stop offset="0.29324" stop-color="#EBB03E"/>
<stop offset="0.65662" stop-color="#F8DB9E"/>
<stop offset="0.802043" stop-color="#FBCC69"/>
<stop offset="1" stop-color="#FBCC69"/>
</radialGradient>
<radialGradient id="paint6_radial_1043_21823" cx="0" cy="0" r="1" gradientUnits="userSpaceOnUse" gradientTransform="translate(4.18447 162.923) rotate(-44.3839) scale(155.812)">
<stop stop-color="#FFEDC7"/>
<stop offset="0.29324" stop-color="#EBB03E"/>
<stop offset="0.65662" stop-color="#F8DB9E"/>
<stop offset="0.802043" stop-color="#FBCC69"/>
<stop offset="1" stop-color="#FBCC69"/>
</radialGradient>
<radialGradient id="paint7_radial_1043_21823" cx="0" cy="0" r="1" gradientUnits="userSpaceOnUse" gradientTransform="translate(4.18447 162.923) rotate(-44.3839) scale(155.812)">
<stop stop-color="#FFEDC7"/>
<stop offset="0.29324" stop-color="#EBB03E"/>
<stop offset="0.65662" stop-color="#F8DB9E"/>
<stop offset="0.802043" stop-color="#FBCC69"/>
<stop offset="1" stop-color="#FBCC69"/>
</radialGradient>
<radialGradient id="paint8_radial_1043_21823" cx="0" cy="0" r="1" gradientUnits="userSpaceOnUse" gradientTransform="translate(4.18447 162.923) rotate(-44.3839) scale(155.812)">
<stop stop-color="#FFEDC7"/>
<stop offset="0.29324" stop-color="#EBB03E"/>
<stop offset="0.65662" stop-color="#F8DB9E"/>
<stop offset="0.802043" stop-color="#FBCC69"/>
<stop offset="1" stop-color="#FBCC69"/>
</radialGradient>
<radialGradient id="paint9_radial_1043_21823" cx="0" cy="0" r="1" gradientUnits="userSpaceOnUse" gradientTransform="translate(4.18447 162.923) rotate(-44.3839) scale(155.812)">
<stop stop-color="#FFEDC7"/>
<stop offset="0.29324" stop-color="#EBB03E"/>
<stop offset="0.65662" stop-color="#F8DB9E"/>
<stop offset="0.802043" stop-color="#FBCC69"/>
<stop offset="1" stop-color="#FBCC69"/>
</radialGradient>
<clipPath id="clip0_1043_21823">
<rect width="112" height="112" fill="white" transform="translate(24 24)"/>
</clipPath>
</defs>
</svg>
