<svg width="216" height="138" viewBox="0 0 216 138" fill="none" xmlns="http://www.w3.org/2000/svg">
<g clip-path="url(#clip0_1043_8095)">
<path d="M216.001 63L216.001 74.8733L216.001 75C215.912 91.021 205.412 107.048 184.49 119.331C142.382 144.053 73.9983 144.246 31.7561 119.764C10.4997 107.445 -0.0893974 91.2253 0.000568442 75V63H216.001Z" fill="url(#paint0_linear_1043_8095)"/>
<path d="M216.001 63L216.001 74.8733L216.001 75C215.912 91.021 205.412 107.048 184.49 119.331C142.382 144.053 73.9983 144.246 31.7561 119.764C10.4997 107.445 -0.0893974 91.2253 0.000568442 75V63H216.001Z" fill="black" fill-opacity="0.2"/>
<path d="M184.246 18.2363C142.001 -6.24717 73.6204 -6.05281 31.5097 18.6707C-10.5986 43.3928 -10.4894 83.281 31.7555 107.764C73.9977 132.246 142.381 132.053 184.489 107.331C226.6 82.6079 226.488 42.7181 184.246 18.2363Z" fill="url(#paint1_linear_1043_8095)"/>
<path d="M38.1084 103.146C76.8329 125.103 139.516 124.928 178.116 102.756C216.716 80.5842 216.615 44.8125 177.89 22.8551C139.166 0.8978 76.4855 1.0715 37.8854 23.2434C-0.71482 45.4153 -0.616108 81.1885 38.1084 103.146Z" fill="url(#paint2_linear_1043_8095)"/>
<path d="M170.832 27.1179C136.019 7.49225 79.6686 7.64805 44.9663 27.4661C10.2659 47.283 10.356 79.2569 45.1689 98.8825C79.9796 118.507 136.332 118.352 171.033 98.5354C205.735 78.7173 205.643 46.7422 170.832 27.1179Z" fill="url(#paint3_linear_1043_8095)"/>
<path d="M170.832 27.1179C136.019 7.49225 79.6686 7.64805 44.9663 27.4661C10.2659 47.283 10.356 79.2569 45.1689 98.8825C79.9796 118.507 136.332 118.352 171.033 98.5354C205.735 78.7173 205.643 46.7422 170.832 27.1179Z" fill="white" fill-opacity="0.64"/>
<mask id="mask0_1043_8095" style="mask-type:alpha" maskUnits="userSpaceOnUse" x="29" y="17" width="158" height="91">
<path d="M163.591 30.5758C132.883 13.0747 83.1714 13.2135 52.5608 30.8865C21.9523 48.5583 22.0321 77.0747 52.7397 94.5758C83.4473 112.077 133.159 111.938 163.768 94.2664C194.378 76.5933 194.299 48.0769 163.591 30.5758Z" fill="url(#paint4_linear_1043_8095)"/>
<path d="M163.591 30.5758C132.883 13.0747 83.1714 13.2135 52.5608 30.8865C21.9523 48.5583 22.0321 77.0747 52.7397 94.5758C83.4473 112.077 133.159 111.938 163.768 94.2664C194.378 76.5933 194.299 48.0769 163.591 30.5758Z" fill="white"/>
</mask>
<g mask="url(#mask0_1043_8095)">
<g clip-path="url(#clip1_1043_8095)">
<rect width="128" height="128" transform="matrix(0.866025 -0.5 0.868804 0.495155 -2.86377 62.8859)" fill="white"/>
<rect width="128" height="128" rx="64" transform="matrix(0.866025 -0.5 0.868804 0.495155 -2.86377 62.8859)" fill="white"/>
<path d="M61.1162 35.7613C49.6455 42.3631 42.7879 51.1438 41.8458 60.4356L41.8552 60.4356L55.0248 63.0988C54.8779 57.0381 57.8841 51.084 63.6593 45.9971C69.4344 40.9102 77.7165 36.9213 87.4473 34.5402C97.1782 32.159 107.916 31.4936 118.289 32.629C128.663 33.7644 138.2 36.649 145.684 40.9143L133.959 47.6835L173.543 55.6783C171.147 48.0162 164.695 40.9707 155.064 35.4989C129.079 20.6892 87.0182 20.8067 61.1162 35.7613Z" fill="#F936B4"/>
<path d="M61.1162 35.7613C49.6455 42.3631 42.7879 51.1438 41.8458 60.4356L41.8552 60.4356L55.0248 63.0988C54.8779 57.0381 57.8841 51.084 63.6593 45.9971C69.4344 40.9102 77.7165 36.9213 87.4473 34.5402C97.1782 32.159 107.916 31.4936 118.289 32.629C128.663 33.7644 138.2 36.649 145.684 40.9143L133.959 47.6835L173.543 55.6783C171.147 48.0162 164.695 40.9707 155.064 35.4989C129.079 20.6892 87.0182 20.8067 61.1162 35.7613Z" fill="url(#paint5_linear_1043_8095)"/>
<path d="M61.1162 35.7613C49.6455 42.3631 42.7879 51.1438 41.8458 60.4356L41.8552 60.4356L55.0248 63.0988C54.8779 57.0381 57.8841 51.084 63.6593 45.9971C69.4344 40.9102 77.7165 36.9213 87.4473 34.5402C97.1782 32.159 107.916 31.4936 118.289 32.629C128.663 33.7644 138.2 36.649 145.684 40.9143L133.959 47.6835L173.543 55.6783C171.147 48.0162 164.695 40.9707 155.064 35.4989C129.079 20.6892 87.0182 20.8067 61.1162 35.7613Z" fill="url(#paint6_linear_1043_8095)"/>
<path d="M155.214 89.3903C166.685 82.7885 173.543 74.0078 174.485 64.716L174.475 64.7161L161.306 62.0529C161.453 68.1135 158.446 74.0676 152.671 79.1545C146.896 84.2414 138.614 88.2303 128.883 90.6114C119.152 92.9926 108.414 93.658 98.041 92.5226C87.6677 91.3872 78.13 88.5026 70.6464 84.2373L82.371 77.4681L42.787 69.4733C45.1094 76.877 51.2687 83.9546 61.2666 89.6527C87.2518 104.462 129.312 104.345 155.214 89.3903Z" fill="#F936B4"/>
<path d="M155.214 89.3903C166.685 82.7885 173.543 74.0078 174.485 64.716L174.475 64.7161L161.306 62.0529C161.453 68.1135 158.446 74.0676 152.671 79.1545C146.896 84.2414 138.614 88.2303 128.883 90.6114C119.152 92.9926 108.414 93.658 98.041 92.5226C87.6677 91.3872 78.13 88.5026 70.6464 84.2373L82.371 77.4681L42.787 69.4733C45.1094 76.877 51.2687 83.9546 61.2666 89.6527C87.2518 104.462 129.312 104.345 155.214 89.3903Z" fill="url(#paint7_linear_1043_8095)"/>
<path d="M155.214 89.3903C166.685 82.7885 173.543 74.0078 174.485 64.716L174.475 64.7161L161.306 62.0529C161.453 68.1135 158.446 74.0676 152.671 79.1545C146.896 84.2414 138.614 88.2303 128.883 90.6114C119.152 92.9926 108.414 93.658 98.041 92.5226C87.6677 91.3872 78.13 88.5026 70.6464 84.2373L82.371 77.4681L42.787 69.4733C45.1094 76.877 51.2687 83.9546 61.2666 89.6527C87.2518 104.462 129.312 104.345 155.214 89.3903Z" fill="url(#paint8_linear_1043_8095)"/>
<path d="M125.599 55.335C125.208 52.4165 122.998 49.6138 119.375 47.4422L118.91 47.1772C116.712 45.926 114.104 44.9402 111.258 44.2846C108.412 43.6291 105.392 43.3187 102.396 43.3737L102.371 43.3885L101.974 43.3976C100.007 43.4572 98.079 43.6726 96.2455 44.0377L95.2536 44.2651C92.853 44.8449 90.6867 45.6807 88.8635 46.7305C85.7781 48.4995 83.8268 50.8252 83.2972 53.365C83.0547 54.4876 83.2225 55.7504 83.3648 56.8202L83.4132 57.1894C83.4414 57.6753 83.6213 58.9522 83.6213 58.9522L79.6054 61.2708C78.1662 62.1005 77.2235 63.3279 77.254 64.5336C77.2845 65.7393 78.1302 66.9194 79.6133 67.8254L86.1509 71.5514C86.4237 71.7108 86.7695 71.8218 87.1427 71.87C87.6418 71.9363 88.1545 71.8876 88.5682 71.7347C88.9819 71.5818 89.2627 71.3371 89.3489 71.0544C89.3905 70.9048 89.3816 70.7502 89.3225 70.599L88.9966 64.9813L105.453 55.4803C106.362 54.9552 107.621 54.6717 108.951 54.6922C110.282 54.7126 111.575 55.0354 112.547 55.5894C112.672 55.6541 112.783 55.7272 112.877 55.8068C113.049 55.9192 113.206 56.0383 113.348 56.163C113.555 56.3689 113.727 56.585 113.861 56.808C113.929 56.9274 113.972 57.0504 113.988 57.174L115.428 81.5429C115.477 81.688 115.605 81.823 115.794 81.9278C115.922 82.0053 116.079 82.0652 116.252 82.1021C116.424 82.1391 116.607 82.1522 116.785 82.1402L117.152 82.0852C118.829 81.7982 120.461 81.4431 122.037 81.0226L123.467 80.6046C123.896 80.4317 124.301 80.2402 124.677 80.0316C126.036 79.2463 126.813 78.1837 126.858 77.0465L125.599 55.335Z" fill="#F936B4"/>
<path d="M125.599 55.335C125.208 52.4165 122.998 49.6138 119.375 47.4422L118.91 47.1772C116.712 45.926 114.104 44.9402 111.258 44.2846C108.412 43.6291 105.392 43.3187 102.396 43.3737L102.371 43.3885L101.974 43.3976C100.007 43.4572 98.079 43.6726 96.2455 44.0377L95.2536 44.2651C92.853 44.8449 90.6867 45.6807 88.8635 46.7305C85.7781 48.4995 83.8268 50.8252 83.2972 53.365C83.0547 54.4876 83.2225 55.7504 83.3648 56.8202L83.4132 57.1894C83.4414 57.6753 83.6213 58.9522 83.6213 58.9522L79.6054 61.2708C78.1662 62.1005 77.2235 63.3279 77.254 64.5336C77.2845 65.7393 78.1302 66.9194 79.6133 67.8254L86.1509 71.5514C86.4237 71.7108 86.7695 71.8218 87.1427 71.87C87.6418 71.9363 88.1545 71.8876 88.5682 71.7347C88.9819 71.5818 89.2627 71.3371 89.3489 71.0544C89.3905 70.9048 89.3816 70.7502 89.3225 70.599L88.9966 64.9813L105.453 55.4803C106.362 54.9552 107.621 54.6717 108.951 54.6922C110.282 54.7126 111.575 55.0354 112.547 55.5894C112.672 55.6541 112.783 55.7272 112.877 55.8068C113.049 55.9192 113.206 56.0383 113.348 56.163C113.555 56.3689 113.727 56.585 113.861 56.808C113.929 56.9274 113.972 57.0504 113.988 57.174L115.428 81.5429C115.477 81.688 115.605 81.823 115.794 81.9278C115.922 82.0053 116.079 82.0652 116.252 82.1021C116.424 82.1391 116.607 82.1522 116.785 82.1402L117.152 82.0852C118.829 81.7982 120.461 81.4431 122.037 81.0226L123.467 80.6046C123.896 80.4317 124.301 80.2402 124.677 80.0316C126.036 79.2463 126.813 78.1837 126.858 77.0465L125.599 55.335Z" fill="url(#paint9_linear_1043_8095)"/>
<path d="M125.599 55.335C125.208 52.4165 122.998 49.6138 119.375 47.4422L118.91 47.1772C116.712 45.926 114.104 44.9402 111.258 44.2846C108.412 43.6291 105.392 43.3187 102.396 43.3737L102.371 43.3885L101.974 43.3976C100.007 43.4572 98.079 43.6726 96.2455 44.0377L95.2536 44.2651C92.853 44.8449 90.6867 45.6807 88.8635 46.7305C85.7781 48.4995 83.8268 50.8252 83.2972 53.365C83.0547 54.4876 83.2225 55.7504 83.3648 56.8202L83.4132 57.1894C83.4414 57.6753 83.6213 58.9522 83.6213 58.9522L79.6054 61.2708C78.1662 62.1005 77.2235 63.3279 77.254 64.5336C77.2845 65.7393 78.1302 66.9194 79.6133 67.8254L86.1509 71.5514C86.4237 71.7108 86.7695 71.8218 87.1427 71.87C87.6418 71.9363 88.1545 71.8876 88.5682 71.7347C88.9819 71.5818 89.2627 71.3371 89.3489 71.0544C89.3905 70.9048 89.3816 70.7502 89.3225 70.599L88.9966 64.9813L105.453 55.4803C106.362 54.9552 107.621 54.6717 108.951 54.6922C110.282 54.7126 111.575 55.0354 112.547 55.5894C112.672 55.6541 112.783 55.7272 112.877 55.8068C113.049 55.9192 113.206 56.0383 113.348 56.163C113.555 56.3689 113.727 56.585 113.861 56.808C113.929 56.9274 113.972 57.0504 113.988 57.174L115.428 81.5429C115.477 81.688 115.605 81.823 115.794 81.9278C115.922 82.0053 116.079 82.0652 116.252 82.1021C116.424 82.1391 116.607 82.1522 116.785 82.1402L117.152 82.0852C118.829 81.7982 120.461 81.4431 122.037 81.0226L123.467 80.6046C123.896 80.4317 124.301 80.2402 124.677 80.0316C126.036 79.2463 126.813 78.1837 126.858 77.0465L125.599 55.335Z" fill="url(#paint10_linear_1043_8095)"/>
</g>
</g>
</g>
<defs>
<linearGradient id="paint0_linear_1043_8095" x1="107.757" y1="47.4678" x2="80.2592" y2="145.698" gradientUnits="userSpaceOnUse">
<stop stop-color="#DC42C9"/>
<stop offset="1" stop-color="#952D88"/>
</linearGradient>
<linearGradient id="paint1_linear_1043_8095" x1="107.756" y1="-26.0939" x2="39.2228" y2="119.635" gradientUnits="userSpaceOnUse">
<stop stop-color="#DC42C9"/>
<stop offset="1" stop-color="#952D88"/>
</linearGradient>
<linearGradient id="paint2_linear_1043_8095" x1="108.223" y1="142.902" x2="168.826" y2="11.1872" gradientUnits="userSpaceOnUse">
<stop stop-color="#DC42C9"/>
<stop offset="1" stop-color="#952D88"/>
</linearGradient>
<linearGradient id="paint3_linear_1043_8095" x1="107.799" y1="-8.41665" x2="53.8366" y2="109.548" gradientUnits="userSpaceOnUse">
<stop stop-color="#DC42C9"/>
<stop offset="1" stop-color="#952D88"/>
</linearGradient>
<linearGradient id="paint4_linear_1043_8095" x1="15.9224" y1="66.1116" x2="196.043" y2="48.631" gradientUnits="userSpaceOnUse">
<stop stop-color="#00E599"/>
<stop offset="1" stop-color="#00AF92"/>
</linearGradient>
<linearGradient id="paint5_linear_1043_8095" x1="140.179" y1="129.558" x2="181.161" y2="49.2763" gradientUnits="userSpaceOnUse">
<stop stop-color="#D82699"/>
<stop offset="1" stop-color="#86009C"/>
</linearGradient>
<linearGradient id="paint6_linear_1043_8095" x1="61.2679" y1="89.652" x2="107.561" y2="8.42572" gradientUnits="userSpaceOnUse">
<stop stop-color="#E96161"/>
<stop offset="0.2" stop-color="#E65B76"/>
<stop offset="0.61" stop-color="#DF4AAC"/>
<stop offset="1" stop-color="#D739E6"/>
</linearGradient>
<linearGradient id="paint7_linear_1043_8095" x1="140.179" y1="129.558" x2="181.161" y2="49.2763" gradientUnits="userSpaceOnUse">
<stop stop-color="#D82699"/>
<stop offset="1" stop-color="#86009C"/>
</linearGradient>
<linearGradient id="paint8_linear_1043_8095" x1="61.2679" y1="89.652" x2="107.561" y2="8.42572" gradientUnits="userSpaceOnUse">
<stop stop-color="#E96161"/>
<stop offset="0.2" stop-color="#E65B76"/>
<stop offset="0.61" stop-color="#DF4AAC"/>
<stop offset="1" stop-color="#D739E6"/>
</linearGradient>
<linearGradient id="paint9_linear_1043_8095" x1="140.179" y1="129.558" x2="181.161" y2="49.2763" gradientUnits="userSpaceOnUse">
<stop stop-color="#D82699"/>
<stop offset="1" stop-color="#86009C"/>
</linearGradient>
<linearGradient id="paint10_linear_1043_8095" x1="61.2679" y1="89.652" x2="107.561" y2="8.42572" gradientUnits="userSpaceOnUse">
<stop stop-color="#E96161"/>
<stop offset="0.2" stop-color="#E65B76"/>
<stop offset="0.61" stop-color="#DF4AAC"/>
<stop offset="1" stop-color="#D739E6"/>
</linearGradient>
<clipPath id="clip0_1043_8095">
<rect width="216" height="138" fill="white"/>
</clipPath>
<clipPath id="clip1_1043_8095">
<rect width="128" height="128" fill="white" transform="matrix(0.866025 -0.5 0.868804 0.495155 -2.86377 62.8859)"/>
</clipPath>
</defs>
</svg>
