<svg width="160" height="160" viewBox="0 0 160 160" fill="none" xmlns="http://www.w3.org/2000/svg">
<rect y="0.00434875" width="160" height="160" rx="80" fill="white"/>
<path d="M160 80C160 35.8164 124.183 0 79.9987 0C35.8167 0 0 35.8164 0 80C0 124.181 35.8167 160 79.9987 160C124.183 160 160 124.181 160 80Z" fill="white"/>
<mask id="mask0_1043_21902" style="mask-type:alpha" maskUnits="userSpaceOnUse" x="8" y="8" width="144" height="144">
<path d="M151.111 80C151.111 40.7281 119.272 8.88889 79.9986 8.88889C40.728 8.88889 8.88892 40.7281 8.88892 80C8.88892 119.272 40.728 151.111 79.9986 151.111C119.272 151.111 151.111 119.272 151.111 80Z" fill="url(#paint0_linear_1043_21902)"/>
<path d="M151.111 80C151.111 40.7281 119.272 8.88889 79.9986 8.88889C40.728 8.88889 8.88892 40.7281 8.88892 80C8.88892 119.272 40.728 151.111 79.9986 151.111C119.272 151.111 151.111 119.272 151.111 80Z" fill="white"/>
</mask>
<g mask="url(#mask0_1043_21902)">
<g clip-path="url(#clip0_1043_21902)">
<rect width="142.222" height="142.222" transform="translate(8.88892 8.88889)" fill="white"/>
<rect x="8.88892" y="8.88889" width="142.222" height="142.222" rx="71.1111" fill="white"/>
<path d="M80 19.8291C65.3064 19.806 51.1162 25.1806 40.1247 34.932L40.1308 34.9381L45.5461 46.3826C52.2302 39.5321 60.8046 34.8296 70.1741 32.876C79.5436 30.9223 89.2829 31.806 98.1477 35.4143C107.013 39.0227 114.6 45.1917 119.942 53.1334C125.284 61.0751 128.137 70.429 128.137 80H113.094L129.382 114.388C136.424 104.305 140.19 92.2984 140.171 80C140.171 46.7676 113.232 19.8291 80 19.8291Z" fill="#F936B4"/>
<path d="M80 19.8291C65.3064 19.806 51.1162 25.1806 40.1247 34.932L40.1308 34.9381L45.5461 46.3826C52.2302 39.5321 60.8046 34.8296 70.1741 32.876C79.5436 30.9223 89.2829 31.806 98.1477 35.4143C107.013 39.0227 114.6 45.1917 119.942 53.1334C125.284 61.0751 128.137 70.429 128.137 80H113.094L129.382 114.388C136.424 104.305 140.19 92.2984 140.171 80C140.171 46.7676 113.232 19.8291 80 19.8291Z" fill="url(#paint1_linear_1043_21902)"/>
<path d="M80 19.8291C65.3064 19.806 51.1162 25.1806 40.1247 34.932L40.1308 34.9381L45.5461 46.3826C52.2302 39.5321 60.8046 34.8296 70.1741 32.876C79.5436 30.9223 89.2829 31.806 98.1477 35.4143C107.013 39.0227 114.6 45.1917 119.942 53.1334C125.284 61.0751 128.137 70.429 128.137 80H113.094L129.382 114.388C136.424 104.305 140.19 92.2984 140.171 80C140.171 46.7676 113.232 19.8291 80 19.8291Z" fill="url(#paint2_linear_1043_21902)"/>
<path d="M80 140.171C94.6936 140.194 108.884 134.819 119.875 125.068L119.869 125.062L114.454 113.617C107.77 120.468 99.1954 125.17 89.8259 127.124C80.4564 129.078 70.7171 128.194 61.8523 124.586C52.9875 120.977 45.3996 114.808 40.0578 106.867C34.7161 98.9249 31.8631 89.5711 31.8633 80H46.906L30.6177 45.6124C23.8184 55.36 19.8291 67.2137 19.8291 80C19.8291 113.232 46.7676 140.171 80 140.171Z" fill="#F936B4"/>
<path d="M80 140.171C94.6936 140.194 108.884 134.819 119.875 125.068L119.869 125.062L114.454 113.617C107.77 120.468 99.1954 125.17 89.8259 127.124C80.4564 129.078 70.7171 128.194 61.8523 124.586C52.9875 120.977 45.3996 114.808 40.0578 106.867C34.7161 98.9249 31.8631 89.5711 31.8633 80H46.906L30.6177 45.6124C23.8184 55.36 19.8291 67.2137 19.8291 80C19.8291 113.232 46.7676 140.171 80 140.171Z" fill="url(#paint3_linear_1043_21902)"/>
<path d="M80 140.171C94.6936 140.194 108.884 134.819 119.875 125.068L119.869 125.062L114.454 113.617C107.77 120.468 99.1954 125.17 89.8259 127.124C80.4564 129.078 70.7171 128.194 61.8523 124.586C52.9875 120.977 45.3996 114.808 40.0578 106.867C34.7161 98.9249 31.8631 89.5711 31.8633 80H46.906L30.6177 45.6124C23.8184 55.36 19.8291 67.2137 19.8291 80C19.8291 113.232 46.7676 140.171 80 140.171Z" fill="url(#paint4_linear_1043_21902)"/>
<path d="M99.2087 83.1485C102.223 79.6435 103.949 75.0969 104.068 70.3447V69.75C104.067 66.9406 103.507 64.1634 102.426 61.6009C101.345 59.0384 99.7676 56.7487 97.7968 54.8822H97.764L97.5013 54.6373C96.1805 53.4374 94.711 52.4368 93.1342 51.6638L92.2476 51.279C90.0693 50.3802 87.7539 49.9177 85.4179 49.9146C81.4731 49.9008 77.6286 51.2376 74.4509 53.7278C73.0408 54.8232 71.7357 56.3388 70.63 57.6229L70.2479 58.0657C69.7226 58.6254 68.4092 60.1646 68.4092 60.1646L63.2568 60.1646C61.4117 60.1633 59.4383 60.9247 58.1094 62.2884C56.7804 63.6521 55.9998 65.5118 55.9318 67.4763V75.8372C55.9274 76.1904 56.0236 76.5368 56.2076 76.8307C56.4516 77.2258 56.8328 77.5015 57.2675 77.5973C57.7021 77.6931 58.1547 77.6011 58.5258 77.3415C58.7197 77.2014 58.8868 77.0233 59.0183 76.8167L65.0929 70.3449L86.2059 70.3447C87.3729 70.3447 88.492 70.8386 89.3171 71.7177C90.1423 72.5968 90.6059 73.7892 90.6059 75.0324C90.613 75.1849 90.602 75.3377 90.573 75.4872C90.5565 75.7227 90.5236 75.9566 90.4745 76.1868C90.3763 76.5498 90.2443 76.9014 90.0805 77.2363C89.9904 77.4134 89.8801 77.5779 89.7521 77.7261L63.4182 105.817C63.287 106.011 63.2178 106.244 63.2212 106.482C63.216 106.651 63.249 106.819 63.3176 106.971C63.3862 107.123 63.4883 107.255 63.6152 107.357L63.9107 107.532C65.3 108.29 66.7373 108.945 68.2121 109.491L69.5912 109.945C70.058 110.029 70.5299 110.076 71.0032 110.085C72.7476 110.085 74.4308 109.4 75.7314 108.161L99.2087 83.1485Z" fill="#F936B4"/>
<path d="M99.2087 83.1485C102.223 79.6435 103.949 75.0969 104.068 70.3447V69.75C104.067 66.9406 103.507 64.1634 102.426 61.6009C101.345 59.0384 99.7676 56.7487 97.7968 54.8822H97.764L97.5013 54.6373C96.1805 53.4374 94.711 52.4368 93.1342 51.6638L92.2476 51.279C90.0693 50.3802 87.7539 49.9177 85.4179 49.9146C81.4731 49.9008 77.6286 51.2376 74.4509 53.7278C73.0408 54.8232 71.7357 56.3388 70.63 57.6229L70.2479 58.0657C69.7226 58.6254 68.4092 60.1646 68.4092 60.1646L63.2568 60.1646C61.4117 60.1633 59.4383 60.9247 58.1094 62.2884C56.7804 63.6521 55.9998 65.5118 55.9318 67.4763V75.8372C55.9274 76.1904 56.0236 76.5368 56.2076 76.8307C56.4516 77.2258 56.8328 77.5015 57.2675 77.5973C57.7021 77.6931 58.1547 77.6011 58.5258 77.3415C58.7197 77.2014 58.8868 77.0233 59.0183 76.8167L65.0929 70.3449L86.2059 70.3447C87.3729 70.3447 88.492 70.8386 89.3171 71.7177C90.1423 72.5968 90.6059 73.7892 90.6059 75.0324C90.613 75.1849 90.602 75.3377 90.573 75.4872C90.5565 75.7227 90.5236 75.9566 90.4745 76.1868C90.3763 76.5498 90.2443 76.9014 90.0805 77.2363C89.9904 77.4134 89.8801 77.5779 89.7521 77.7261L63.4182 105.817C63.287 106.011 63.2178 106.244 63.2212 106.482C63.216 106.651 63.249 106.819 63.3176 106.971C63.3862 107.123 63.4883 107.255 63.6152 107.357L63.9107 107.532C65.3 108.29 66.7373 108.945 68.2121 109.491L69.5912 109.945C70.058 110.029 70.5299 110.076 71.0032 110.085C72.7476 110.085 74.4308 109.4 75.7314 108.161L99.2087 83.1485Z" fill="url(#paint5_linear_1043_21902)"/>
<path d="M99.2087 83.1485C102.223 79.6435 103.949 75.0969 104.068 70.3447V69.75C104.067 66.9406 103.507 64.1634 102.426 61.6009C101.345 59.0384 99.7676 56.7487 97.7968 54.8822H97.764L97.5013 54.6373C96.1805 53.4374 94.711 52.4368 93.1342 51.6638L92.2476 51.279C90.0693 50.3802 87.7539 49.9177 85.4179 49.9146C81.4731 49.9008 77.6286 51.2376 74.4509 53.7278C73.0408 54.8232 71.7357 56.3388 70.63 57.6229L70.2479 58.0657C69.7226 58.6254 68.4092 60.1646 68.4092 60.1646L63.2568 60.1646C61.4117 60.1633 59.4383 60.9247 58.1094 62.2884C56.7804 63.6521 55.9998 65.5118 55.9318 67.4763V75.8372C55.9274 76.1904 56.0236 76.5368 56.2076 76.8307C56.4516 77.2258 56.8328 77.5015 57.2675 77.5973C57.7021 77.6931 58.1547 77.6011 58.5258 77.3415C58.7197 77.2014 58.8868 77.0233 59.0183 76.8167L65.0929 70.3449L86.2059 70.3447C87.3729 70.3447 88.492 70.8386 89.3171 71.7177C90.1423 72.5968 90.6059 73.7892 90.6059 75.0324C90.613 75.1849 90.602 75.3377 90.573 75.4872C90.5565 75.7227 90.5236 75.9566 90.4745 76.1868C90.3763 76.5498 90.2443 76.9014 90.0805 77.2363C89.9904 77.4134 89.8801 77.5779 89.7521 77.7261L63.4182 105.817C63.287 106.011 63.2178 106.244 63.2212 106.482C63.216 106.651 63.249 106.819 63.3176 106.971C63.3862 107.123 63.4883 107.255 63.6152 107.357L63.9107 107.532C65.3 108.29 66.7373 108.945 68.2121 109.491L69.5912 109.945C70.058 110.029 70.5299 110.076 71.0032 110.085C72.7476 110.085 74.4308 109.4 75.7314 108.161L99.2087 83.1485Z" fill="url(#paint6_linear_1043_21902)"/>
</g>
</g>
<defs>
<linearGradient id="paint0_linear_1043_21902" x1="17.2549" y1="24.5752" x2="139.608" y2="134.379" gradientUnits="userSpaceOnUse">
<stop stop-color="#00E599"/>
<stop offset="1" stop-color="#00AF92"/>
</linearGradient>
<linearGradient id="paint1_linear_1043_21902" x1="25.4974" y1="175.271" x2="144.5" y2="168.746" gradientUnits="userSpaceOnUse">
<stop stop-color="#D82699"/>
<stop offset="1" stop-color="#86009C"/>
</linearGradient>
<linearGradient id="paint2_linear_1043_21902" x1="19.8307" y1="80.0001" x2="140.171" y2="80.0001" gradientUnits="userSpaceOnUse">
<stop stop-color="#E96161"/>
<stop offset="0.2" stop-color="#E65B76"/>
<stop offset="0.61" stop-color="#DF4AAC"/>
<stop offset="1" stop-color="#D739E6"/>
</linearGradient>
<linearGradient id="paint3_linear_1043_21902" x1="25.4974" y1="175.271" x2="144.5" y2="168.746" gradientUnits="userSpaceOnUse">
<stop stop-color="#D82699"/>
<stop offset="1" stop-color="#86009C"/>
</linearGradient>
<linearGradient id="paint4_linear_1043_21902" x1="19.8307" y1="80.0001" x2="140.171" y2="80.0001" gradientUnits="userSpaceOnUse">
<stop stop-color="#E96161"/>
<stop offset="0.2" stop-color="#E65B76"/>
<stop offset="0.61" stop-color="#DF4AAC"/>
<stop offset="1" stop-color="#D739E6"/>
</linearGradient>
<linearGradient id="paint5_linear_1043_21902" x1="25.4974" y1="175.271" x2="144.5" y2="168.746" gradientUnits="userSpaceOnUse">
<stop stop-color="#D82699"/>
<stop offset="1" stop-color="#86009C"/>
</linearGradient>
<linearGradient id="paint6_linear_1043_21902" x1="19.8307" y1="80.0001" x2="140.171" y2="80.0001" gradientUnits="userSpaceOnUse">
<stop stop-color="#E96161"/>
<stop offset="0.2" stop-color="#E65B76"/>
<stop offset="0.61" stop-color="#DF4AAC"/>
<stop offset="1" stop-color="#D739E6"/>
</linearGradient>
<clipPath id="clip0_1043_21902">
<rect width="142.222" height="142.222" fill="white" transform="translate(8.88892 8.88889)"/>
</clipPath>
</defs>
</svg>
