<svg width="160" height="160" viewBox="0 0 160 160" fill="none" xmlns="http://www.w3.org/2000/svg">
<path d="M160 80C160 35.8164 124.183 0 79.9987 0C35.8167 0 0 35.8164 0 80C0 124.181 35.8167 160 79.9987 160C124.183 160 160 124.181 160 80Z" fill="url(#paint0_linear_1043_21801)"/>
<path d="M8.00048 80C8.00049 119.765 40.2368 152 80.0018 152C119.767 152 152 119.765 152 80C152 40.2346 119.767 8 80.0018 8.00001C40.2368 8.00001 8.00048 40.2346 8.00048 80Z" fill="url(#paint1_linear_1043_21801)"/>
<path d="M144 80C144 44.6531 115.347 16 79.999 16C44.6534 16 16 44.6531 16 80C16 115.345 44.6534 144 79.999 144C115.347 144 144 115.345 144 80Z" fill="url(#paint2_linear_1043_21801)"/>
<path d="M144 80C144 44.6531 115.347 16 79.999 16C44.6534 16 16 44.6531 16 80C16 115.345 44.6534 144 79.999 144C115.347 144 144 115.345 144 80Z" fill="white" fill-opacity="0.64"/>
<mask id="mask0_1043_21801" style="mask-type:alpha" maskUnits="userSpaceOnUse" x="24" y="24" width="112" height="112">
<path d="M136 80C136 49.0734 110.927 24 79.9989 24C49.0733 24 24 49.0734 24 80C24 110.927 49.0733 136 79.9989 136C110.927 136 136 110.927 136 80Z" fill="url(#paint3_linear_1043_21801)"/>
<path d="M136 80C136 49.0734 110.927 24 79.9989 24C49.0733 24 24 49.0734 24 80C24 110.927 49.0733 136 79.9989 136C110.927 136 136 110.927 136 80Z" fill="white"/>
</mask>
<g mask="url(#mask0_1043_21801)">
<g clip-path="url(#clip0_1043_21801)">
<rect width="112" height="112" transform="translate(24 24)" fill="white"/>
<rect x="24" y="24" width="112" height="112" rx="56" fill="white"/>
<path d="M80.0001 32.6154C68.4289 32.5972 57.254 36.8297 48.5983 44.5089L48.603 44.5137L52.8677 53.5262C58.1313 48.1315 64.8837 44.4283 72.2622 42.8898C79.6407 41.3513 87.3103 42.0472 94.2914 44.8888C101.272 47.7303 107.248 52.5884 111.455 58.8425C115.661 65.0966 117.908 72.4628 117.908 80H106.062L118.889 107.08C124.434 99.1398 127.4 89.6849 127.385 80C127.385 53.8295 106.171 32.6154 80.0001 32.6154Z" fill="#F936B4"/>
<path d="M80.0001 32.6154C68.4289 32.5972 57.254 36.8297 48.5983 44.5089L48.603 44.5137L52.8677 53.5262C58.1313 48.1315 64.8837 44.4283 72.2622 42.8898C79.6407 41.3513 87.3103 42.0472 94.2914 44.8888C101.272 47.7303 107.248 52.5884 111.455 58.8425C115.661 65.0966 117.908 72.4628 117.908 80H106.062L118.889 107.08C124.434 99.1398 127.4 89.6849 127.385 80C127.385 53.8295 106.171 32.6154 80.0001 32.6154Z" fill="url(#paint4_linear_1043_21801)"/>
<path d="M80.0001 32.6154C68.4289 32.5972 57.254 36.8297 48.5983 44.5089L48.603 44.5137L52.8677 53.5262C58.1313 48.1315 64.8837 44.4283 72.2622 42.8898C79.6407 41.3513 87.3103 42.0472 94.2914 44.8888C101.272 47.7303 107.248 52.5884 111.455 58.8425C115.661 65.0966 117.908 72.4628 117.908 80H106.062L118.889 107.08C124.434 99.1398 127.4 89.6849 127.385 80C127.385 53.8295 106.171 32.6154 80.0001 32.6154Z" fill="url(#paint5_linear_1043_21801)"/>
<path d="M80.0001 127.385C91.5713 127.403 102.746 123.17 111.402 115.491L111.397 115.486L107.132 106.474C101.869 111.868 95.1165 115.572 87.738 117.11C80.3594 118.649 72.6898 117.953 65.7088 115.111C58.7277 112.27 52.7522 107.412 48.5456 101.157C44.339 94.9033 42.0923 87.5372 42.0924 80H53.9385L41.1115 52.9197C35.7571 60.596 32.6155 69.9308 32.6155 80C32.6155 106.17 53.8296 127.385 80.0001 127.385Z" fill="#F936B4"/>
<path d="M80.0001 127.385C91.5713 127.403 102.746 123.17 111.402 115.491L111.397 115.486L107.132 106.474C101.869 111.868 95.1165 115.572 87.738 117.11C80.3594 118.649 72.6898 117.953 65.7088 115.111C58.7277 112.27 52.7522 107.412 48.5456 101.157C44.339 94.9033 42.0923 87.5372 42.0924 80H53.9385L41.1115 52.9197C35.7571 60.596 32.6155 69.9308 32.6155 80C32.6155 106.17 53.8296 127.385 80.0001 127.385Z" fill="url(#paint6_linear_1043_21801)"/>
<path d="M80.0001 127.385C91.5713 127.403 102.746 123.17 111.402 115.491L111.397 115.486L107.132 106.474C101.869 111.868 95.1165 115.572 87.738 117.11C80.3594 118.649 72.6898 117.953 65.7088 115.111C58.7277 112.27 52.7522 107.412 48.5456 101.157C44.339 94.9033 42.0923 87.5372 42.0924 80H53.9385L41.1115 52.9197C35.7571 60.596 32.6155 69.9308 32.6155 80C32.6155 106.17 53.8296 127.385 80.0001 127.385Z" fill="url(#paint7_linear_1043_21801)"/>
<path d="M95.1269 82.4794C97.5009 79.7192 98.8598 76.1388 98.9539 72.3964V71.9281C98.9527 69.7157 98.5119 67.5286 97.6607 65.5107C96.8095 63.4927 95.5671 61.6896 94.015 60.2197H93.9892L93.7823 60.0268C92.7422 59.0819 91.585 58.294 90.3432 57.6852L89.6451 57.3821C87.9296 56.6744 86.1062 56.3102 84.2666 56.3077C81.1602 56.2969 78.1326 57.3495 75.6301 59.3106C74.5197 60.1732 73.4919 61.3668 72.6212 62.378L72.3203 62.7267C71.9066 63.1675 70.8723 64.3796 70.8723 64.3796L66.8148 64.3796C65.3618 64.3786 63.8077 64.9782 62.7612 66.0521C61.7146 67.126 61.0999 68.5905 61.0463 70.1375V76.7218C61.0429 76.9999 61.1186 77.2727 61.2635 77.5042C61.4557 77.8153 61.7559 78.0324 62.0982 78.1078C62.4405 78.1833 62.7969 78.1108 63.0891 77.9064C63.2418 77.7961 63.3734 77.6558 63.477 77.4931L68.2607 72.3965L84.8872 72.3964C85.8062 72.3964 86.6875 72.7853 87.3373 73.4776C87.9871 74.1699 88.3522 75.1089 88.3522 76.088C88.3578 76.208 88.3491 76.3284 88.3263 76.4461C88.3133 76.6316 88.2874 76.8158 88.2487 76.9971C88.1714 77.2829 88.0675 77.5598 87.9385 77.8236C87.8675 77.963 87.7806 78.0925 87.6799 78.2093L66.9419 100.331C66.8385 100.483 66.7841 100.667 66.7867 100.855C66.7826 100.988 66.8087 101.12 66.8627 101.239C66.9167 101.359 66.9971 101.464 67.097 101.543L67.3297 101.681C68.4238 102.279 69.5557 102.794 70.7171 103.224L71.8032 103.582C72.1708 103.648 72.5424 103.684 72.915 103.692C74.2888 103.692 75.6143 103.152 76.6386 102.177L95.1269 82.4794Z" fill="#F936B4"/>
<path d="M95.1269 82.4794C97.5009 79.7192 98.8598 76.1388 98.9539 72.3964V71.9281C98.9527 69.7157 98.5119 67.5286 97.6607 65.5107C96.8095 63.4927 95.5671 61.6896 94.015 60.2197H93.9892L93.7823 60.0268C92.7422 59.0819 91.585 58.294 90.3432 57.6852L89.6451 57.3821C87.9296 56.6744 86.1062 56.3102 84.2666 56.3077C81.1602 56.2969 78.1326 57.3495 75.6301 59.3106C74.5197 60.1732 73.4919 61.3668 72.6212 62.378L72.3203 62.7267C71.9066 63.1675 70.8723 64.3796 70.8723 64.3796L66.8148 64.3796C65.3618 64.3786 63.8077 64.9782 62.7612 66.0521C61.7146 67.126 61.0999 68.5905 61.0463 70.1375V76.7218C61.0429 76.9999 61.1186 77.2727 61.2635 77.5042C61.4557 77.8153 61.7559 78.0324 62.0982 78.1078C62.4405 78.1833 62.7969 78.1108 63.0891 77.9064C63.2418 77.7961 63.3734 77.6558 63.477 77.4931L68.2607 72.3965L84.8872 72.3964C85.8062 72.3964 86.6875 72.7853 87.3373 73.4776C87.9871 74.1699 88.3522 75.1089 88.3522 76.088C88.3578 76.208 88.3491 76.3284 88.3263 76.4461C88.3133 76.6316 88.2874 76.8158 88.2487 76.9971C88.1714 77.2829 88.0675 77.5598 87.9385 77.8236C87.8675 77.963 87.7806 78.0925 87.6799 78.2093L66.9419 100.331C66.8385 100.483 66.7841 100.667 66.7867 100.855C66.7826 100.988 66.8087 101.12 66.8627 101.239C66.9167 101.359 66.9971 101.464 67.097 101.543L67.3297 101.681C68.4238 102.279 69.5557 102.794 70.7171 103.224L71.8032 103.582C72.1708 103.648 72.5424 103.684 72.915 103.692C74.2888 103.692 75.6143 103.152 76.6386 102.177L95.1269 82.4794Z" fill="url(#paint8_linear_1043_21801)"/>
<path d="M95.1269 82.4794C97.5009 79.7192 98.8598 76.1388 98.9539 72.3964V71.9281C98.9527 69.7157 98.5119 67.5286 97.6607 65.5107C96.8095 63.4927 95.5671 61.6896 94.015 60.2197H93.9892L93.7823 60.0268C92.7422 59.0819 91.585 58.294 90.3432 57.6852L89.6451 57.3821C87.9296 56.6744 86.1062 56.3102 84.2666 56.3077C81.1602 56.2969 78.1326 57.3495 75.6301 59.3106C74.5197 60.1732 73.4919 61.3668 72.6212 62.378L72.3203 62.7267C71.9066 63.1675 70.8723 64.3796 70.8723 64.3796L66.8148 64.3796C65.3618 64.3786 63.8077 64.9782 62.7612 66.0521C61.7146 67.126 61.0999 68.5905 61.0463 70.1375V76.7218C61.0429 76.9999 61.1186 77.2727 61.2635 77.5042C61.4557 77.8153 61.7559 78.0324 62.0982 78.1078C62.4405 78.1833 62.7969 78.1108 63.0891 77.9064C63.2418 77.7961 63.3734 77.6558 63.477 77.4931L68.2607 72.3965L84.8872 72.3964C85.8062 72.3964 86.6875 72.7853 87.3373 73.4776C87.9871 74.1699 88.3522 75.1089 88.3522 76.088C88.3578 76.208 88.3491 76.3284 88.3263 76.4461C88.3133 76.6316 88.2874 76.8158 88.2487 76.9971C88.1714 77.2829 88.0675 77.5598 87.9385 77.8236C87.8675 77.963 87.7806 78.0925 87.6799 78.2093L66.9419 100.331C66.8385 100.483 66.7841 100.667 66.7867 100.855C66.7826 100.988 66.8087 101.12 66.8627 101.239C66.9167 101.359 66.9971 101.464 67.097 101.543L67.3297 101.681C68.4238 102.279 69.5557 102.794 70.7171 103.224L71.8032 103.582C72.1708 103.648 72.5424 103.684 72.915 103.692C74.2888 103.692 75.6143 103.152 76.6386 102.177L95.1269 82.4794Z" fill="url(#paint9_linear_1043_21801)"/>
</g>
</g>
<defs>
<linearGradient id="paint0_linear_1043_21801" x1="160" y1="-0.00063818" x2="-14.7107" y2="18.113" gradientUnits="userSpaceOnUse">
<stop stop-color="#DC42C9"/>
<stop offset="1" stop-color="#952D88"/>
</linearGradient>
<linearGradient id="paint1_linear_1043_21801" x1="8.00055" y1="152.001" x2="165.24" y2="135.698" gradientUnits="userSpaceOnUse">
<stop stop-color="#DC42C9"/>
<stop offset="1" stop-color="#952D88"/>
</linearGradient>
<linearGradient id="paint2_linear_1043_21801" x1="144" y1="15.9995" x2="4.23144" y2="30.4904" gradientUnits="userSpaceOnUse">
<stop stop-color="#DC42C9"/>
<stop offset="1" stop-color="#952D88"/>
</linearGradient>
<linearGradient id="paint3_linear_1043_21801" x1="30.5882" y1="36.3529" x2="126.941" y2="122.824" gradientUnits="userSpaceOnUse">
<stop stop-color="#00E599"/>
<stop offset="1" stop-color="#00AF92"/>
</linearGradient>
<linearGradient id="paint4_linear_1043_21801" x1="37.0792" y1="155.026" x2="130.794" y2="149.887" gradientUnits="userSpaceOnUse">
<stop stop-color="#D82699"/>
<stop offset="1" stop-color="#86009C"/>
</linearGradient>
<linearGradient id="paint5_linear_1043_21801" x1="32.6167" y1="80.0001" x2="127.385" y2="80.0001" gradientUnits="userSpaceOnUse">
<stop stop-color="#E96161"/>
<stop offset="0.2" stop-color="#E65B76"/>
<stop offset="0.61" stop-color="#DF4AAC"/>
<stop offset="1" stop-color="#D739E6"/>
</linearGradient>
<linearGradient id="paint6_linear_1043_21801" x1="37.0792" y1="155.026" x2="130.794" y2="149.887" gradientUnits="userSpaceOnUse">
<stop stop-color="#D82699"/>
<stop offset="1" stop-color="#86009C"/>
</linearGradient>
<linearGradient id="paint7_linear_1043_21801" x1="32.6167" y1="80.0001" x2="127.385" y2="80.0001" gradientUnits="userSpaceOnUse">
<stop stop-color="#E96161"/>
<stop offset="0.2" stop-color="#E65B76"/>
<stop offset="0.61" stop-color="#DF4AAC"/>
<stop offset="1" stop-color="#D739E6"/>
</linearGradient>
<linearGradient id="paint8_linear_1043_21801" x1="37.0792" y1="155.026" x2="130.794" y2="149.887" gradientUnits="userSpaceOnUse">
<stop stop-color="#D82699"/>
<stop offset="1" stop-color="#86009C"/>
</linearGradient>
<linearGradient id="paint9_linear_1043_21801" x1="32.6167" y1="80.0001" x2="127.385" y2="80.0001" gradientUnits="userSpaceOnUse">
<stop stop-color="#E96161"/>
<stop offset="0.2" stop-color="#E65B76"/>
<stop offset="0.61" stop-color="#DF4AAC"/>
<stop offset="1" stop-color="#D739E6"/>
</linearGradient>
<clipPath id="clip0_1043_21801">
<rect width="112" height="112" fill="white" transform="translate(24 24)"/>
</clipPath>
</defs>
</svg>
