<svg width="160" height="160" viewBox="0 0 160 160" fill="none" xmlns="http://www.w3.org/2000/svg">
<rect y="0.00434875" width="160" height="160" rx="80" fill="white"/>
<path d="M160 80C160 35.8164 124.183 0 79.9987 0C35.8167 0 0 35.8164 0 80C0 124.181 35.8167 160 79.9987 160C124.183 160 160 124.181 160 80Z" fill="white"/>
<mask id="mask0_1043_22584" style="mask-type:alpha" maskUnits="userSpaceOnUse" x="8" y="8" width="144" height="144">
<path d="M151.111 80C151.111 40.7281 119.272 8.88889 79.9984 8.88889C40.7278 8.88889 8.88867 40.7281 8.88867 80C8.88867 119.272 40.7278 151.111 79.9984 151.111C119.272 151.111 151.111 119.272 151.111 80Z" fill="url(#paint0_linear_1043_22584)"/>
<path d="M151.111 80C151.111 40.7281 119.272 8.88889 79.9984 8.88889C40.7278 8.88889 8.88867 40.7281 8.88867 80C8.88867 119.272 40.7278 151.111 79.9984 151.111C119.272 151.111 151.111 119.272 151.111 80Z" fill="white"/>
</mask>
<g mask="url(#mask0_1043_22584)">
<g clip-path="url(#clip0_1043_22584)">
<rect width="142.222" height="142.222" transform="translate(8.88867 8.88889)" fill="white"/>
<rect x="8.88867" y="8.88889" width="142.222" height="142.222" rx="71.1111" fill="white"/>
<path fill-rule="evenodd" clip-rule="evenodd" d="M79.9991 140.171C113.231 140.171 140.17 113.231 140.17 79.9999C140.17 46.7684 113.231 19.8289 79.9991 19.8289C46.7676 19.8289 19.8281 46.7684 19.8281 79.9999C19.8281 113.231 46.7676 140.171 79.9991 140.171ZM77.6613 41.8046V30.7697H86.5124V41.967C89.6599 42.3995 92.5186 43.2547 95.0886 44.5325C98.9736 46.4642 101.979 49.2581 104.105 52.9144C106.267 56.5363 107.348 60.9169 107.348 66.0564H90.8005C90.8005 62.0207 89.9209 59.037 88.1617 57.1054C86.4025 55.1393 84.0935 54.1562 81.2347 54.1562C79.1457 54.1562 77.4414 54.5356 76.122 55.2945C74.8026 56.0533 73.8313 57.0882 73.2083 58.3989C72.5852 59.7097 72.2737 61.1756 72.2737 62.7968C72.2737 64.4525 72.6035 65.9012 73.2633 67.143C73.923 68.3503 75.0591 69.4713 76.6718 70.5061C78.2844 71.5409 80.5017 72.593 83.3238 73.6623C88.0517 75.4559 92.2116 77.3703 95.8033 79.4054C99.4317 81.4405 102.254 83.924 104.27 86.856C106.322 89.7879 107.348 93.5132 107.348 98.0319C107.348 102.516 106.23 106.345 103.995 109.518C101.759 112.657 98.662 115.054 94.7038 116.71C91.9158 117.852 88.8005 118.592 85.3579 118.929V129.231H76.5068V118.916C74.5706 118.713 72.6465 118.375 70.7344 117.9C67.3992 117.038 64.3572 115.641 61.6084 113.709C58.8963 111.778 56.7156 109.225 55.0663 106.052C53.4537 102.844 52.6474 98.8942 52.6474 94.2031H69.25C69.25 96.5831 69.5799 98.5838 70.2396 100.205C70.8993 101.792 71.7789 103.068 72.8784 104.034C73.9779 104.965 75.2057 105.638 76.5618 106.052C77.9545 106.431 79.3839 106.621 80.8499 106.621C83.0489 106.621 84.8815 106.259 86.3475 105.534C87.8135 104.81 88.8947 103.81 89.591 102.533C90.3241 101.223 90.6906 99.7565 90.6906 98.1354C90.6906 96.2382 90.3241 94.6515 89.591 93.3753C88.8947 92.0645 87.7585 90.909 86.1826 89.9087C84.6066 88.8739 82.4809 87.8908 79.8054 86.9595C75.0042 85.2003 70.7893 83.3377 67.1609 81.3715C63.5326 79.3709 60.7105 76.9046 58.6947 73.9727C56.6789 71.0408 55.671 67.2982 55.671 62.7451C55.671 58.4334 56.7522 54.7081 58.9146 51.5692C61.077 48.3958 64.1006 45.9468 67.9856 44.2221C70.8761 42.9389 74.1013 42.1331 77.6613 41.8046Z" fill="#D9D9D9"/>
<path fill-rule="evenodd" clip-rule="evenodd" d="M79.9991 140.171C113.231 140.171 140.17 113.231 140.17 79.9999C140.17 46.7684 113.231 19.8289 79.9991 19.8289C46.7676 19.8289 19.8281 46.7684 19.8281 79.9999C19.8281 113.231 46.7676 140.171 79.9991 140.171ZM77.6613 41.8046V30.7697H86.5124V41.967C89.6599 42.3995 92.5186 43.2547 95.0886 44.5325C98.9736 46.4642 101.979 49.2581 104.105 52.9144C106.267 56.5363 107.348 60.9169 107.348 66.0564H90.8005C90.8005 62.0207 89.9209 59.037 88.1617 57.1054C86.4025 55.1393 84.0935 54.1562 81.2347 54.1562C79.1457 54.1562 77.4414 54.5356 76.122 55.2945C74.8026 56.0533 73.8313 57.0882 73.2083 58.3989C72.5852 59.7097 72.2737 61.1756 72.2737 62.7968C72.2737 64.4525 72.6035 65.9012 73.2633 67.143C73.923 68.3503 75.0591 69.4713 76.6718 70.5061C78.2844 71.5409 80.5017 72.593 83.3238 73.6623C88.0517 75.4559 92.2116 77.3703 95.8033 79.4054C99.4317 81.4405 102.254 83.924 104.27 86.856C106.322 89.7879 107.348 93.5132 107.348 98.0319C107.348 102.516 106.23 106.345 103.995 109.518C101.759 112.657 98.662 115.054 94.7038 116.71C91.9158 117.852 88.8005 118.592 85.3579 118.929V129.231H76.5068V118.916C74.5706 118.713 72.6465 118.375 70.7344 117.9C67.3992 117.038 64.3572 115.641 61.6084 113.709C58.8963 111.778 56.7156 109.225 55.0663 106.052C53.4537 102.844 52.6474 98.8942 52.6474 94.2031H69.25C69.25 96.5831 69.5799 98.5838 70.2396 100.205C70.8993 101.792 71.7789 103.068 72.8784 104.034C73.9779 104.965 75.2057 105.638 76.5618 106.052C77.9545 106.431 79.3839 106.621 80.8499 106.621C83.0489 106.621 84.8815 106.259 86.3475 105.534C87.8135 104.81 88.8947 103.81 89.591 102.533C90.3241 101.223 90.6906 99.7565 90.6906 98.1354C90.6906 96.2382 90.3241 94.6515 89.591 93.3753C88.8947 92.0645 87.7585 90.909 86.1826 89.9087C84.6066 88.8739 82.4809 87.8908 79.8054 86.9595C75.0042 85.2003 70.7893 83.3377 67.1609 81.3715C63.5326 79.3709 60.7105 76.9046 58.6947 73.9727C56.6789 71.0408 55.671 67.2982 55.671 62.7451C55.671 58.4334 56.7522 54.7081 58.9146 51.5692C61.077 48.3958 64.1006 45.9468 67.9856 44.2221C70.8761 42.9389 74.1013 42.1331 77.6613 41.8046Z" fill="url(#paint1_linear_1043_22584)"/>
</g>
</g>
<defs>
<linearGradient id="paint0_linear_1043_22584" x1="17.2547" y1="24.5752" x2="139.608" y2="134.379" gradientUnits="userSpaceOnUse">
<stop stop-color="#00E599"/>
<stop offset="1" stop-color="#00AF92"/>
</linearGradient>
<linearGradient id="paint1_linear_1043_22584" x1="30.7696" y1="79.9999" x2="129.23" y2="79.9999" gradientUnits="userSpaceOnUse">
<stop stop-color="#E96161"/>
<stop offset="0.2" stop-color="#E65B76"/>
<stop offset="0.61" stop-color="#DF4AAC"/>
<stop offset="1" stop-color="#D739E6"/>
</linearGradient>
<clipPath id="clip0_1043_22584">
<rect width="142.222" height="142.222" fill="white" transform="translate(8.88867 8.88889)"/>
</clipPath>
</defs>
</svg>
