<svg width="216" height="138" viewBox="0 0 216 138" fill="none" xmlns="http://www.w3.org/2000/svg">
<g clip-path="url(#clip0_1043_8145)">
<path d="M216.001 63L216.001 74.8733L216.001 75C215.912 91.021 205.412 107.048 184.49 119.331C142.382 144.053 73.9983 144.246 31.7561 119.764C10.4997 107.445 -0.0893974 91.2253 0.000568442 75V63H216.001Z" fill="url(#paint0_linear_1043_8145)"/>
<path d="M216.001 63L216.001 74.8733L216.001 75C215.912 91.021 205.412 107.048 184.49 119.331C142.382 144.053 73.9983 144.246 31.7561 119.764C10.4997 107.445 -0.0893974 91.2253 0.000568442 75V63H216.001Z" fill="black" fill-opacity="0.2"/>
<path d="M184.246 18.2363C142.001 -6.24717 73.6204 -6.05281 31.5097 18.6707C-10.5986 43.3928 -10.4894 83.281 31.7555 107.764C73.9977 132.246 142.381 132.053 184.489 107.331C226.6 82.6079 226.488 42.7181 184.246 18.2363Z" fill="url(#paint1_linear_1043_8145)"/>
<path d="M38.1084 103.146C76.8329 125.103 139.516 124.928 178.116 102.756C216.716 80.5842 216.615 44.8125 177.89 22.8551C139.166 0.8978 76.4855 1.0715 37.8854 23.2434C-0.71482 45.4153 -0.616108 81.1885 38.1084 103.146Z" fill="url(#paint2_linear_1043_8145)"/>
<path d="M170.832 27.1179C136.019 7.49225 79.6686 7.64805 44.9663 27.4661C10.2659 47.283 10.356 79.2569 45.1689 98.8825C79.9796 118.507 136.332 118.352 171.033 98.5354C205.735 78.7173 205.643 46.7422 170.832 27.1179Z" fill="url(#paint3_linear_1043_8145)"/>
<path d="M170.832 27.1179C136.019 7.49225 79.6686 7.64805 44.9663 27.4661C10.2659 47.283 10.356 79.2569 45.1689 98.8825C79.9796 118.507 136.332 118.352 171.033 98.5354C205.735 78.7173 205.643 46.7422 170.832 27.1179Z" fill="white" fill-opacity="0.64"/>
<mask id="mask0_1043_8145" style="mask-type:alpha" maskUnits="userSpaceOnUse" x="29" y="17" width="158" height="91">
<path d="M163.591 30.5758C132.883 13.0747 83.1714 13.2135 52.5608 30.8865C21.9523 48.5583 22.0321 77.0747 52.7397 94.5758C83.4473 112.077 133.159 111.938 163.768 94.2664C194.378 76.5933 194.299 48.0769 163.591 30.5758Z" fill="url(#paint4_linear_1043_8145)"/>
<path d="M163.591 30.5758C132.883 13.0747 83.1714 13.2135 52.5608 30.8865C21.9523 48.5583 22.0321 77.0747 52.7397 94.5758C83.4473 112.077 133.159 111.938 163.768 94.2664C194.378 76.5933 194.299 48.0769 163.591 30.5758Z" fill="white"/>
</mask>
<g mask="url(#mask0_1043_8145)">
<g clip-path="url(#clip1_1043_8145)">
<rect width="128" height="128" transform="matrix(0.866025 -0.5 0.868804 0.495155 -2.86377 62.8859)" fill="white"/>
<path d="M163.769 94.2658C194.38 76.5926 194.3 48.0777 163.591 30.5758C132.882 13.0739 83.1726 13.2127 52.5619 30.8859C21.9511 48.559 22.0308 77.0739 52.7397 94.5758C83.4487 112.078 133.158 111.939 163.769 94.2658Z" fill="white"/>
<g clip-path="url(#clip2_1043_8145)">
<path fill-rule="evenodd" clip-rule="evenodd" d="M57.0297 60.7935L71.7557 84.7662C71.8093 84.8561 71.9118 84.9333 72.0483 84.9866C72.1848 85.04 72.3481 85.0666 72.5143 85.0626L144.066 83.7639C144.269 83.7602 144.463 83.7117 144.607 83.6283C144.752 83.545 144.835 83.4333 144.84 83.3167L146.644 42.2666C146.649 42.1712 146.602 42.0777 146.508 41.9998C146.414 41.9218 146.279 41.8635 146.122 41.8333L104.236 33.5414C104.097 33.5125 103.946 33.5073 103.801 33.5264C103.656 33.5455 103.523 33.5881 103.418 33.6491L57.2187 60.3222C57.1115 60.3825 57.0366 60.4591 57.0031 60.5428C56.9696 60.6264 56.9788 60.7135 57.0297 60.7935Z" fill="#50AF95"/>
<path fill-rule="evenodd" clip-rule="evenodd" d="M116.557 62.2353C116.313 62.3985 115.033 63.2298 111.999 64.9818C109.585 66.3754 107.799 67.3238 107.17 67.6548C97.4351 72.808 88.8616 75.9094 86.9325 74.8099C85.0033 73.7104 90.3565 68.7737 99.2704 63.1526L105.565 66.7402C106.219 66.4128 108.068 65.4628 110.481 64.0693C113.378 62.397 114.708 61.4914 114.945 61.327L108.653 57.7407C118.372 52.6013 126.93 49.5088 128.855 50.6058C130.78 51.7028 125.446 56.6306 116.546 62.2391L116.557 62.2353ZM108.011 57.3646L102.378 54.1542L115.367 46.6546L106.778 41.759L71.4113 62.1778L80.0011 67.0733L92.9886 59.575L98.6193 62.7841C88.5441 69.153 82.6805 74.9191 85.1671 76.3362C87.6537 77.7534 97.6652 74.3514 108.705 68.5322L126.755 78.8196L136.142 73.4001L118.085 63.1089C128.136 56.7539 133.989 50.9967 131.505 49.5808C129.02 48.1649 119.028 51.5555 108.006 57.3646L108.011 57.3646Z" fill="white"/>
</g>
</g>
</g>
</g>
<defs>
<linearGradient id="paint0_linear_1043_8145" x1="107.757" y1="47.4678" x2="80.2592" y2="145.698" gradientUnits="userSpaceOnUse">
<stop stop-color="#50AF95"/>
<stop offset="1" stop-color="#367765"/>
</linearGradient>
<linearGradient id="paint1_linear_1043_8145" x1="107.756" y1="-26.0939" x2="39.2228" y2="119.635" gradientUnits="userSpaceOnUse">
<stop stop-color="#50AF95"/>
<stop offset="1" stop-color="#367765"/>
</linearGradient>
<linearGradient id="paint2_linear_1043_8145" x1="108.223" y1="142.902" x2="168.826" y2="11.1872" gradientUnits="userSpaceOnUse">
<stop stop-color="#50AF95"/>
<stop offset="1" stop-color="#367765"/>
</linearGradient>
<linearGradient id="paint3_linear_1043_8145" x1="107.799" y1="-8.41665" x2="53.8366" y2="109.548" gradientUnits="userSpaceOnUse">
<stop stop-color="#50AF95"/>
<stop offset="1" stop-color="#367765"/>
</linearGradient>
<linearGradient id="paint4_linear_1043_8145" x1="15.9224" y1="66.1116" x2="196.043" y2="48.631" gradientUnits="userSpaceOnUse">
<stop stop-color="#00E599"/>
<stop offset="1" stop-color="#00AF92"/>
</linearGradient>
<clipPath id="clip0_1043_8145">
<rect width="216" height="138" fill="white"/>
</clipPath>
<clipPath id="clip1_1043_8145">
<rect width="128" height="128" fill="white" transform="matrix(0.866025 -0.5 0.868804 0.495155 -2.86377 62.8859)"/>
</clipPath>
<clipPath id="clip2_1043_8145">
<rect width="86" height="74" fill="white" transform="matrix(0.866025 -0.5 0.868804 0.495155 43.0767 68.4869)"/>
</clipPath>
</defs>
</svg>
