<svg width="160" height="160" viewBox="0 0 160 160" fill="none" xmlns="http://www.w3.org/2000/svg">
<path d="M160 80C160 35.8164 124.183 0 79.9987 0C35.8167 0 0 35.8164 0 80C0 124.181 35.8167 160 79.9987 160C124.183 160 160 124.181 160 80Z" fill="url(#paint0_linear_1043_21710)"/>
<path d="M7.99999 80C8 119.765 40.2363 152 80.0013 152C119.766 152 152 119.765 152 80C152 40.2346 119.766 8 80.0013 8.00001C40.2363 8.00001 7.99999 40.2346 7.99999 80Z" fill="url(#paint1_linear_1043_21710)"/>
<path d="M144 80C144 44.6531 115.347 16 79.999 16C44.6534 16 16 44.6531 16 80C16 115.345 44.6534 144 79.999 144C115.347 144 144 115.345 144 80Z" fill="url(#paint2_linear_1043_21710)"/>
<path d="M144 80C144 44.6531 115.347 16 79.999 16C44.6534 16 16 44.6531 16 80C16 115.345 44.6534 144 79.999 144C115.347 144 144 115.345 144 80Z" fill="white" fill-opacity="0.64"/>
<mask id="mask0_1043_21710" style="mask-type:alpha" maskUnits="userSpaceOnUse" x="24" y="24" width="112" height="112">
<path d="M136 80C136 49.0734 110.927 24 79.9989 24C49.0733 24 24 49.0734 24 80C24 110.927 49.0733 136 79.9989 136C110.927 136 136 110.927 136 80Z" fill="url(#paint3_linear_1043_21710)"/>
<path d="M136 80C136 49.0734 110.927 24 79.9989 24C49.0733 24 24 49.0734 24 80C24 110.927 49.0733 136 79.9989 136C110.927 136 136 110.927 136 80Z" fill="white"/>
</mask>
<g mask="url(#mask0_1043_21710)">
<g clip-path="url(#clip0_1043_21710)">
<rect width="112" height="112" transform="translate(24 24)" fill="white"/>
<rect x="24" y="24" width="112" height="112" rx="56" fill="white"/>
<path fill-rule="evenodd" clip-rule="evenodd" d="M79.9998 127.384C106.17 127.384 127.384 106.17 127.384 79.9998C127.384 53.83 106.17 32.6152 79.9998 32.6152C53.83 32.6152 32.6152 53.83 32.6152 79.9998C32.6152 106.17 53.83 127.384 79.9998 127.384ZM78.1589 49.9211V41.231H85.1291V50.049C87.6077 50.3896 89.859 51.063 91.8829 52.0693C94.9423 53.5905 97.309 55.7907 98.983 58.6701C100.686 61.5223 101.537 64.972 101.537 69.0194H88.506C88.506 65.8413 87.8133 63.4916 86.4279 61.9704C85.0425 60.4221 83.2242 59.648 80.9729 59.648C79.3278 59.648 77.9857 59.9468 76.9467 60.5444C75.9076 61.142 75.1428 61.9569 74.6521 62.9891C74.1615 64.0213 73.9161 65.1758 73.9161 66.4524C73.9161 67.7563 74.1759 68.8972 74.6954 69.8751C75.2149 70.8258 76.1097 71.7086 77.3796 72.5235C78.6495 73.3384 80.3957 74.1669 82.6181 75.009C86.3413 76.4215 89.6172 77.9291 92.4457 79.5317C95.3031 81.1344 97.5255 83.0901 99.1129 85.399C100.729 87.708 101.537 90.6416 101.537 94.2001C101.537 97.7313 100.657 100.746 98.8964 103.246C97.1358 105.717 94.697 107.605 91.5798 108.909C89.3843 109.808 86.931 110.391 84.22 110.657V118.77H77.2497V110.646C75.725 110.487 74.2097 110.22 72.7039 109.846C70.0774 109.167 67.6819 108.067 65.5172 106.546C63.3814 105.025 61.6641 103.015 60.3653 100.516C59.0954 97.9894 58.4604 94.8791 58.4604 91.1849H71.535C71.535 93.0592 71.7948 94.6347 72.3143 95.9114C72.8338 97.1609 73.5265 98.1659 74.3924 98.9265C75.2582 99.6599 76.2251 100.19 77.293 100.516C78.3898 100.814 79.5154 100.964 80.6699 100.964C82.4016 100.964 83.8447 100.679 84.9992 100.108C86.1537 99.5377 87.0052 98.75 87.5535 97.7449C88.1308 96.7127 88.4194 95.5582 88.4194 94.2815C88.4194 92.7875 88.1308 91.538 87.5535 90.533C87.0052 89.5007 86.1104 88.5908 84.8694 87.803C83.6283 86.9881 81.9543 86.214 79.8473 85.4805C76.0664 84.0952 72.7472 82.6284 69.8898 81.08C67.0325 79.5045 64.8101 77.5624 63.2227 75.2534C61.6352 72.9445 60.8415 69.9973 60.8415 66.4117C60.8415 63.0162 61.693 60.0826 63.3958 57.6107C65.0987 55.1116 67.4798 53.183 70.5392 51.8248C72.8155 50.8143 75.3554 50.1797 78.1589 49.9211Z" fill="#D9D9D9"/>
<path fill-rule="evenodd" clip-rule="evenodd" d="M79.9998 127.384C106.17 127.384 127.384 106.17 127.384 79.9998C127.384 53.83 106.17 32.6152 79.9998 32.6152C53.83 32.6152 32.6152 53.83 32.6152 79.9998C32.6152 106.17 53.83 127.384 79.9998 127.384ZM78.1589 49.9211V41.231H85.1291V50.049C87.6077 50.3896 89.859 51.063 91.8829 52.0693C94.9423 53.5905 97.309 55.7907 98.983 58.6701C100.686 61.5223 101.537 64.972 101.537 69.0194H88.506C88.506 65.8413 87.8133 63.4916 86.4279 61.9704C85.0425 60.4221 83.2242 59.648 80.9729 59.648C79.3278 59.648 77.9857 59.9468 76.9467 60.5444C75.9076 61.142 75.1428 61.9569 74.6521 62.9891C74.1615 64.0213 73.9161 65.1758 73.9161 66.4524C73.9161 67.7563 74.1759 68.8972 74.6954 69.8751C75.2149 70.8258 76.1097 71.7086 77.3796 72.5235C78.6495 73.3384 80.3957 74.1669 82.6181 75.009C86.3413 76.4215 89.6172 77.9291 92.4457 79.5317C95.3031 81.1344 97.5255 83.0901 99.1129 85.399C100.729 87.708 101.537 90.6416 101.537 94.2001C101.537 97.7313 100.657 100.746 98.8964 103.246C97.1358 105.717 94.697 107.605 91.5798 108.909C89.3843 109.808 86.931 110.391 84.22 110.657V118.77H77.2497V110.646C75.725 110.487 74.2097 110.22 72.7039 109.846C70.0774 109.167 67.6819 108.067 65.5172 106.546C63.3814 105.025 61.6641 103.015 60.3653 100.516C59.0954 97.9894 58.4604 94.8791 58.4604 91.1849H71.535C71.535 93.0592 71.7948 94.6347 72.3143 95.9114C72.8338 97.1609 73.5265 98.1659 74.3924 98.9265C75.2582 99.6599 76.2251 100.19 77.293 100.516C78.3898 100.814 79.5154 100.964 80.6699 100.964C82.4016 100.964 83.8447 100.679 84.9992 100.108C86.1537 99.5377 87.0052 98.75 87.5535 97.7449C88.1308 96.7127 88.4194 95.5582 88.4194 94.2815C88.4194 92.7875 88.1308 91.538 87.5535 90.533C87.0052 89.5007 86.1104 88.5908 84.8694 87.803C83.6283 86.9881 81.9543 86.214 79.8473 85.4805C76.0664 84.0952 72.7472 82.6284 69.8898 81.08C67.0325 79.5045 64.8101 77.5624 63.2227 75.2534C61.6352 72.9445 60.8415 69.9973 60.8415 66.4117C60.8415 63.0162 61.693 60.0826 63.3958 57.6107C65.0987 55.1116 67.4798 53.183 70.5392 51.8248C72.8155 50.8143 75.3554 50.1797 78.1589 49.9211Z" fill="url(#paint4_linear_1043_21710)"/>
</g>
</g>
<defs>
<linearGradient id="paint0_linear_1043_21710" x1="160" y1="-0.00063818" x2="-14.7107" y2="18.113" gradientUnits="userSpaceOnUse">
<stop stop-color="#DC42C9"/>
<stop offset="1" stop-color="#952D88"/>
</linearGradient>
<linearGradient id="paint1_linear_1043_21710" x1="8.00006" y1="152.001" x2="165.24" y2="135.698" gradientUnits="userSpaceOnUse">
<stop stop-color="#DC42C9"/>
<stop offset="1" stop-color="#952D88"/>
</linearGradient>
<linearGradient id="paint2_linear_1043_21710" x1="144" y1="15.9995" x2="4.23144" y2="30.4904" gradientUnits="userSpaceOnUse">
<stop stop-color="#DC42C9"/>
<stop offset="1" stop-color="#952D88"/>
</linearGradient>
<linearGradient id="paint3_linear_1043_21710" x1="30.5882" y1="36.3529" x2="126.941" y2="122.824" gradientUnits="userSpaceOnUse">
<stop stop-color="#00E599"/>
<stop offset="1" stop-color="#00AF92"/>
</linearGradient>
<linearGradient id="paint4_linear_1043_21710" x1="41.2316" y1="79.9999" x2="118.769" y2="79.9999" gradientUnits="userSpaceOnUse">
<stop stop-color="#E96161"/>
<stop offset="0.2" stop-color="#E65B76"/>
<stop offset="0.61" stop-color="#DF4AAC"/>
<stop offset="1" stop-color="#D739E6"/>
</linearGradient>
<clipPath id="clip0_1043_21710">
<rect width="112" height="112" fill="white" transform="translate(24 24)"/>
</clipPath>
</defs>
</svg>
