<svg width="160" height="160" viewBox="0 0 160 160" fill="none" xmlns="http://www.w3.org/2000/svg">
<rect y="0.00434875" width="160" height="160" rx="80" fill="white"/>
<path d="M160 80C160 35.8164 124.183 0 79.9987 0C35.8167 0 0 35.8164 0 80C0 124.181 35.8167 160 79.9987 160C124.183 160 160 124.181 160 80Z" fill="white"/>
<mask id="mask0_1043_21973" style="mask-type:alpha" maskUnits="userSpaceOnUse" x="8" y="8" width="144" height="144">
<path d="M151.111 80C151.111 40.7281 119.272 8.88889 79.9984 8.88889C40.7278 8.88889 8.88867 40.7281 8.88867 80C8.88867 119.272 40.7278 151.111 79.9984 151.111C119.272 151.111 151.111 119.272 151.111 80Z" fill="url(#paint0_linear_1043_21973)"/>
<path d="M151.111 80C151.111 40.7281 119.272 8.88889 79.9984 8.88889C40.7278 8.88889 8.88867 40.7281 8.88867 80C8.88867 119.272 40.7278 151.111 79.9984 151.111C119.272 151.111 151.111 119.272 151.111 80Z" fill="white"/>
</mask>
<g mask="url(#mask0_1043_21973)">
<g clip-path="url(#clip0_1043_21973)">
<rect width="142.222" height="142.222" transform="translate(8.88867 8.88889)" fill="white"/>
<path d="M79.9998 151.111C119.273 151.111 151.111 119.274 151.111 80C151.111 40.7264 119.273 8.88889 79.9998 8.88889C40.7262 8.88889 8.88867 40.7264 8.88867 80C8.88867 119.274 40.7262 151.111 79.9998 151.111Z" fill="white"/>
<g clip-path="url(#clip1_1043_21973)">
<path fill-rule="evenodd" clip-rule="evenodd" d="M49.4015 45.103L31.9784 81.3034C31.9121 81.4381 31.8911 81.5902 31.9184 81.7375C31.9458 81.8848 32.02 82.0196 32.1304 82.1221L79.1861 126.724C79.3197 126.851 79.4978 126.921 79.683 126.921C79.8681 126.921 80.0462 126.851 80.1798 126.724L127.236 82.1249C127.346 82.0223 127.42 81.8876 127.447 81.7403C127.475 81.5929 127.454 81.4409 127.388 81.3062L109.964 45.1058C109.908 44.9842 109.818 44.8812 109.704 44.8092C109.59 44.7371 109.458 44.6989 109.323 44.6993H50.049C49.9132 44.6976 49.7798 44.7348 49.6649 44.8065C49.55 44.8781 49.4585 44.9811 49.4015 45.103Z" fill="#50AF95"/>
<path fill-rule="evenodd" clip-rule="evenodd" d="M85.7289 85.0209C85.3911 85.046 83.6457 85.149 79.7523 85.149C76.6556 85.149 74.4569 85.0571 73.6856 85.0209C61.7182 84.5002 52.7857 82.4396 52.7857 79.9724C52.7857 77.5052 61.7182 75.4473 73.6856 74.9182V82.9687C74.4682 83.0243 76.7091 83.1552 79.8057 83.1552C83.5218 83.1552 85.3826 83.0021 85.7176 82.9714V74.9238C97.6596 75.4501 106.572 77.5108 106.572 79.9724C106.572 82.434 97.6624 84.4946 85.7176 85.0182L85.7289 85.0209ZM85.7289 74.0912V66.8873H102.395V55.9019H57.0197V66.8873H73.6827V74.0884C60.1389 74.7038 49.9536 77.3576 49.9536 80.5377C49.9536 83.7177 60.1389 86.3687 73.6827 86.9869V110.072H85.7261V86.9785C99.2389 86.3631 109.407 83.7122 109.407 80.5349C109.407 77.3576 99.2474 74.7066 85.7261 74.0884L85.7289 74.0912Z" fill="white"/>
</g>
</g>
</g>
<defs>
<linearGradient id="paint0_linear_1043_21973" x1="17.2547" y1="24.5752" x2="139.608" y2="134.379" gradientUnits="userSpaceOnUse">
<stop stop-color="#00E599"/>
<stop offset="1" stop-color="#00AF92"/>
</linearGradient>
<clipPath id="clip0_1043_21973">
<rect width="142.222" height="142.222" fill="white" transform="translate(8.88867 8.88889)"/>
</clipPath>
<clipPath id="clip1_1043_21973">
<rect width="95.5556" height="82.2222" fill="white" transform="translate(31.9053 44.6992)"/>
</clipPath>
</defs>
</svg>
