<svg width="160" height="160" viewBox="0 0 160 160" fill="none" xmlns="http://www.w3.org/2000/svg">
<path d="M160 80C160 35.8164 124.183 0 79.9987 0C35.8167 0 0 35.8164 0 80C0 124.181 35.8167 160 79.9987 160C124.183 160 160 124.181 160 80Z" fill="url(#paint0_linear_1043_21588)"/>
<path d="M8.00048 80C8.00049 119.765 40.2368 152 80.0018 152C119.767 152 152 119.765 152 80C152 40.2346 119.767 8 80.0018 8.00001C40.2368 8.00001 8.00048 40.2346 8.00048 80Z" fill="url(#paint1_linear_1043_21588)"/>
<path d="M144 80C144 44.6531 115.347 16 79.999 16C44.6534 16 16 44.6531 16 80C16 115.345 44.6534 144 79.999 144C115.347 144 144 115.345 144 80Z" fill="url(#paint2_linear_1043_21588)"/>
<path d="M144 80C144 44.6531 115.347 16 79.999 16C44.6534 16 16 44.6531 16 80C16 115.345 44.6534 144 79.999 144C115.347 144 144 115.345 144 80Z" fill="white" fill-opacity="0.64"/>
<mask id="mask0_1043_21588" style="mask-type:alpha" maskUnits="userSpaceOnUse" x="24" y="24" width="112" height="112">
<path d="M136 80C136 49.0734 110.927 24 79.9989 24C49.0733 24 24 49.0734 24 80C24 110.927 49.0733 136 79.9989 136C110.927 136 136 110.927 136 80Z" fill="url(#paint3_linear_1043_21588)"/>
<path d="M136 80C136 49.0734 110.927 24 79.9989 24C49.0733 24 24 49.0734 24 80C24 110.927 49.0733 136 79.9989 136C110.927 136 136 110.927 136 80Z" fill="white"/>
</mask>
<g mask="url(#mask0_1043_21588)">
<g clip-path="url(#clip0_1043_21588)">
<rect width="112" height="112" transform="translate(24 24)" fill="white"/>
<path d="M80 136C110.928 136 136 110.928 136 80C136 49.0721 110.928 24 80 24C49.0721 24 24 49.0721 24 80C24 110.928 49.0721 136 80 136Z" fill="white"/>
<g clip-path="url(#clip1_1043_21588)">
<path fill-rule="evenodd" clip-rule="evenodd" d="M55.9041 52.5186L42.1834 81.0264C42.1312 81.1324 42.1146 81.2522 42.1361 81.3682C42.1577 81.4842 42.2162 81.5903 42.3031 81.6711L79.3594 116.795C79.4647 116.895 79.6049 116.951 79.7507 116.951C79.8966 116.951 80.0368 116.895 80.142 116.795L117.198 81.6733C117.285 81.5925 117.344 81.4864 117.365 81.3704C117.387 81.2544 117.37 81.1346 117.318 81.0286L103.597 52.5208C103.553 52.425 103.482 52.3439 103.392 52.2871C103.303 52.2304 103.198 52.2003 103.092 52.2006H56.414C56.307 52.1993 56.202 52.2286 56.1115 52.285C56.021 52.3414 55.949 52.4226 55.9041 52.5186Z" fill="#50AF95"/>
<path fill-rule="evenodd" clip-rule="evenodd" d="M84.5119 83.9541C84.2459 83.9738 82.8713 84.0549 79.8053 84.0549C77.3667 84.0549 75.6352 83.9826 75.0278 83.9541C65.6035 83.544 58.5691 81.9212 58.5691 79.9783C58.5691 78.0354 65.6035 76.4148 75.0278 75.9982V82.3379C75.6441 82.3818 77.4088 82.4848 79.8474 82.4848C82.7738 82.4848 84.2392 82.3642 84.503 82.3401V76.0026C93.9073 76.417 100.926 78.0398 100.926 79.9783C100.926 81.9169 93.9095 83.5396 84.503 83.9519L84.5119 83.9541ZM84.5119 75.3469V69.6739H97.6362V61.0228H61.9034V69.6739H75.0256V75.3447C64.3598 75.8293 56.3389 77.9192 56.3389 80.4235C56.3389 82.9278 64.3598 85.0154 75.0256 85.5023V103.681H84.5097V85.4957C95.151 85.011 103.159 82.9234 103.159 80.4213C103.159 77.9192 95.1577 75.8315 84.5097 75.3447L84.5119 75.3469Z" fill="white"/>
</g>
</g>
</g>
<defs>
<linearGradient id="paint0_linear_1043_21588" x1="160" y1="-0.00063818" x2="-14.7107" y2="18.113" gradientUnits="userSpaceOnUse">
<stop stop-color="#50AF95"/>
<stop offset="1" stop-color="#367765"/>
</linearGradient>
<linearGradient id="paint1_linear_1043_21588" x1="8.00055" y1="152.001" x2="165.24" y2="135.698" gradientUnits="userSpaceOnUse">
<stop stop-color="#50AF95"/>
<stop offset="1" stop-color="#367765"/>
</linearGradient>
<linearGradient id="paint2_linear_1043_21588" x1="144" y1="15.9995" x2="4.23144" y2="30.4904" gradientUnits="userSpaceOnUse">
<stop stop-color="#50AF95"/>
<stop offset="1" stop-color="#367765"/>
</linearGradient>
<linearGradient id="paint3_linear_1043_21588" x1="30.5882" y1="36.3529" x2="126.941" y2="122.824" gradientUnits="userSpaceOnUse">
<stop stop-color="#00E599"/>
<stop offset="1" stop-color="#00AF92"/>
</linearGradient>
<clipPath id="clip0_1043_21588">
<rect width="112" height="112" fill="white" transform="translate(24 24)"/>
</clipPath>
<clipPath id="clip1_1043_21588">
<rect width="75.25" height="64.75" fill="white" transform="translate(42.1255 52.2006)"/>
</clipPath>
</defs>
</svg>
