<svg width="216" height="138" viewBox="0 0 216 138" fill="none" xmlns="http://www.w3.org/2000/svg">
<g clip-path="url(#clip0_1043_8105)">
<path d="M216.001 63L216.001 74.8733L216.001 75C215.912 91.021 205.412 107.048 184.49 119.331C142.382 144.053 73.9983 144.246 31.7561 119.764C10.4997 107.445 -0.0893974 91.2253 0.000568442 75V63H216.001Z" fill="url(#paint0_linear_1043_8105)"/>
<path d="M216.001 63L216.001 74.8733L216.001 75C215.912 91.021 205.412 107.048 184.49 119.331C142.382 144.053 73.9983 144.246 31.7561 119.764C10.4997 107.445 -0.0893974 91.2253 0.000568442 75V63H216.001Z" fill="black" fill-opacity="0.2"/>
<path d="M184.246 18.2363C142.001 -6.24717 73.6204 -6.05281 31.5097 18.6707C-10.5986 43.3928 -10.4894 83.281 31.7555 107.764C73.9977 132.246 142.381 132.053 184.489 107.331C226.6 82.6079 226.488 42.7181 184.246 18.2363Z" fill="url(#paint1_linear_1043_8105)"/>
<path d="M38.1084 103.146C76.8329 125.103 139.516 124.928 178.116 102.756C216.716 80.5842 216.615 44.8125 177.89 22.8551C139.166 0.8978 76.4855 1.0715 37.8854 23.2434C-0.71482 45.4153 -0.616108 81.1885 38.1084 103.146Z" fill="url(#paint2_linear_1043_8105)"/>
<path d="M170.832 27.1179C136.019 7.49225 79.6686 7.64805 44.9663 27.4661C10.2659 47.283 10.356 79.2569 45.1689 98.8825C79.9796 118.507 136.332 118.352 171.033 98.5354C205.735 78.7173 205.643 46.7422 170.832 27.1179Z" fill="url(#paint3_linear_1043_8105)"/>
<path d="M170.832 27.1179C136.019 7.49225 79.6686 7.64805 44.9663 27.4661C10.2659 47.283 10.356 79.2569 45.1689 98.8825C79.9796 118.507 136.332 118.352 171.033 98.5354C205.735 78.7173 205.643 46.7422 170.832 27.1179Z" fill="white" fill-opacity="0.64"/>
<mask id="mask0_1043_8105" style="mask-type:alpha" maskUnits="userSpaceOnUse" x="29" y="17" width="158" height="91">
<path d="M163.591 30.5758C132.884 13.0747 83.1719 13.2135 52.5613 30.8865C21.9528 48.5583 22.0326 77.0747 52.7402 94.5758C83.4478 112.077 133.16 111.938 163.768 94.2664C194.379 76.5933 194.299 48.0769 163.591 30.5758Z" fill="url(#paint4_linear_1043_8105)"/>
<path d="M163.591 30.5758C132.884 13.0747 83.1719 13.2135 52.5613 30.8865C21.9528 48.5583 22.0326 77.0747 52.7402 94.5758C83.4478 112.077 133.16 111.938 163.768 94.2664C194.379 76.5933 194.299 48.0769 163.591 30.5758Z" fill="white"/>
</mask>
<g mask="url(#mask0_1043_8105)">
<g clip-path="url(#clip1_1043_8105)">
<rect width="128" height="128" transform="matrix(0.866025 -0.5 0.868804 0.495155 -2.86328 62.8859)" fill="white"/>
<rect width="128" height="128" rx="64" transform="matrix(0.866025 -0.5 0.868804 0.495155 -2.86328 62.8859)" fill="white"/>
<path fill-rule="evenodd" clip-rule="evenodd" d="M155.215 89.3904C181.116 74.4362 181.049 50.3081 155.064 35.4989C129.08 20.6896 87.0178 20.807 61.1164 35.7612C35.215 50.7154 35.2824 74.8434 61.2669 89.6527C87.2514 104.462 129.313 104.345 155.215 89.3904ZM76.4777 46.6064L67.8492 41.6888L74.748 37.7058L83.5035 42.6958C86.2948 41.4721 89.1917 40.5668 92.194 39.9798C96.7324 39.0923 101.26 38.985 105.775 39.6579C110.293 40.2988 114.561 41.7645 118.579 44.0549L105.682 51.5013C102.526 49.7028 99.5076 48.769 96.626 48.6999C93.7175 48.6153 91.1491 49.2163 88.921 50.5027C87.2927 51.4428 86.261 52.3788 85.826 53.3107C85.391 54.2426 85.4431 55.1408 85.9824 56.0053C86.5217 56.8698 87.4252 57.6633 88.6928 58.3858C89.9874 59.1236 91.3773 59.6208 92.8625 59.8773C94.3207 60.1184 96.0828 60.1067 98.1488 59.8422C100.215 59.5777 102.766 59.0487 105.801 58.2553C110.889 56.927 115.628 55.9083 120.019 55.1989C124.438 54.473 128.58 54.3099 132.444 54.7094C136.336 55.0924 140.049 56.2907 143.582 58.3044C147.088 60.3027 149.211 62.512 149.949 64.9322C150.661 67.3371 150.122 69.7991 148.331 72.3181C147.051 74.0816 145.202 75.8131 142.782 77.5127L150.838 82.1037L143.939 86.0867L135.873 81.4897C134.206 82.2708 132.441 82.9857 130.58 83.6347C127.306 84.7512 123.842 85.4976 120.19 85.8737C116.565 86.2334 112.87 86.0772 109.103 85.4052C105.338 84.7013 101.621 83.3041 97.9529 81.2135L110.893 73.7423C112.754 74.803 114.576 75.5461 116.358 75.9717C118.113 76.3819 119.796 76.5548 121.408 76.4905C122.993 76.4107 124.476 76.1579 125.857 75.7322C127.239 75.2745 128.502 74.7159 129.644 74.0562C131.358 73.0666 132.503 72.0806 133.08 71.098C133.656 70.1155 133.716 69.1832 133.261 68.3011C132.808 67.3871 131.947 66.5689 130.679 65.8464C129.196 65.001 127.67 64.4588 126.1 64.2199C124.533 63.9492 122.744 63.9455 120.733 64.2089C118.696 64.4569 116.27 64.9754 113.457 65.7644C108.339 67.141 103.597 68.2075 99.2318 68.9641C94.8395 69.7054 90.7114 69.8762 86.8477 69.4767C82.984 69.0772 79.2721 67.863 75.7119 65.8339C72.3404 63.9125 70.2703 61.7658 69.5013 59.3939C68.7053 57.0066 69.1471 54.5546 70.8265 52.0378C72.0761 50.1652 73.9598 48.3548 76.4777 46.6064Z" fill="#D9D9D9"/>
<path fill-rule="evenodd" clip-rule="evenodd" d="M155.215 89.3904C181.116 74.4362 181.049 50.3081 155.064 35.4989C129.08 20.6896 87.0178 20.807 61.1164 35.7612C35.215 50.7154 35.2824 74.8434 61.2669 89.6527C87.2514 104.462 129.313 104.345 155.215 89.3904ZM76.4777 46.6064L67.8492 41.6888L74.748 37.7058L83.5035 42.6958C86.2948 41.4721 89.1917 40.5668 92.194 39.9798C96.7324 39.0923 101.26 38.985 105.775 39.6579C110.293 40.2988 114.561 41.7645 118.579 44.0549L105.682 51.5013C102.526 49.7028 99.5076 48.769 96.626 48.6999C93.7175 48.6153 91.1491 49.2163 88.921 50.5027C87.2927 51.4428 86.261 52.3788 85.826 53.3107C85.391 54.2426 85.4431 55.1408 85.9824 56.0053C86.5217 56.8698 87.4252 57.6633 88.6928 58.3858C89.9874 59.1236 91.3773 59.6208 92.8625 59.8773C94.3207 60.1184 96.0828 60.1067 98.1488 59.8422C100.215 59.5777 102.766 59.0487 105.801 58.2553C110.889 56.927 115.628 55.9083 120.019 55.1989C124.438 54.473 128.58 54.3099 132.444 54.7094C136.336 55.0924 140.049 56.2907 143.582 58.3044C147.088 60.3027 149.211 62.512 149.949 64.9322C150.661 67.3371 150.122 69.7991 148.331 72.3181C147.051 74.0816 145.202 75.8131 142.782 77.5127L150.838 82.1037L143.939 86.0867L135.873 81.4897C134.206 82.2708 132.441 82.9857 130.58 83.6347C127.306 84.7512 123.842 85.4976 120.19 85.8737C116.565 86.2334 112.87 86.0772 109.103 85.4052C105.338 84.7013 101.621 83.3041 97.9529 81.2135L110.893 73.7423C112.754 74.803 114.576 75.5461 116.358 75.9717C118.113 76.3819 119.796 76.5548 121.408 76.4905C122.993 76.4107 124.476 76.1579 125.857 75.7322C127.239 75.2745 128.502 74.7159 129.644 74.0562C131.358 73.0666 132.503 72.0806 133.08 71.098C133.656 70.1155 133.716 69.1832 133.261 68.3011C132.808 67.3871 131.947 66.5689 130.679 65.8464C129.196 65.001 127.67 64.4588 126.1 64.2199C124.533 63.9492 122.744 63.9455 120.733 64.2089C118.696 64.4569 116.27 64.9754 113.457 65.7644C108.339 67.141 103.597 68.2075 99.2318 68.9641C94.8395 69.7054 90.7114 69.8762 86.8477 69.4767C82.984 69.0772 79.2721 67.863 75.7119 65.8339C72.3404 63.9125 70.2703 61.7658 69.5013 59.3939C68.7053 57.0066 69.1471 54.5546 70.8265 52.0378C72.0761 50.1652 73.9598 48.3548 76.4777 46.6064Z" fill="url(#paint5_linear_1043_8105)"/>
</g>
</g>
</g>
<defs>
<linearGradient id="paint0_linear_1043_8105" x1="107.757" y1="47.4678" x2="80.2592" y2="145.698" gradientUnits="userSpaceOnUse">
<stop stop-color="#DC42C9"/>
<stop offset="1" stop-color="#952D88"/>
</linearGradient>
<linearGradient id="paint1_linear_1043_8105" x1="107.756" y1="-26.0939" x2="39.2228" y2="119.635" gradientUnits="userSpaceOnUse">
<stop stop-color="#DC42C9"/>
<stop offset="1" stop-color="#952D88"/>
</linearGradient>
<linearGradient id="paint2_linear_1043_8105" x1="108.223" y1="142.902" x2="168.826" y2="11.1872" gradientUnits="userSpaceOnUse">
<stop stop-color="#DC42C9"/>
<stop offset="1" stop-color="#952D88"/>
</linearGradient>
<linearGradient id="paint3_linear_1043_8105" x1="107.799" y1="-8.41665" x2="53.8366" y2="109.548" gradientUnits="userSpaceOnUse">
<stop stop-color="#DC42C9"/>
<stop offset="1" stop-color="#952D88"/>
</linearGradient>
<linearGradient id="paint4_linear_1043_8105" x1="15.9229" y1="66.1116" x2="196.044" y2="48.631" gradientUnits="userSpaceOnUse">
<stop stop-color="#00E599"/>
<stop offset="1" stop-color="#00AF92"/>
</linearGradient>
<linearGradient id="paint5_linear_1043_8105" x1="69.795" y1="84.7291" x2="107.671" y2="18.2712" gradientUnits="userSpaceOnUse">
<stop stop-color="#E96161"/>
<stop offset="0.2" stop-color="#E65B76"/>
<stop offset="0.61" stop-color="#DF4AAC"/>
<stop offset="1" stop-color="#D739E6"/>
</linearGradient>
<clipPath id="clip0_1043_8105">
<rect width="216" height="138" fill="white"/>
</clipPath>
<clipPath id="clip1_1043_8105">
<rect width="128" height="128" fill="white" transform="matrix(0.866025 -0.5 0.868804 0.495155 -2.86328 62.8859)"/>
</clipPath>
</defs>
</svg>
