<svg width="216" height="138" viewBox="0 0 216 138" fill="none" xmlns="http://www.w3.org/2000/svg">
<g clip-path="url(#clip0_1043_8075)">
<path d="M216.001 63L216.001 74.8733L216.001 75C215.912 91.021 205.412 107.048 184.49 119.331C142.382 144.053 73.9983 144.246 31.7561 119.764C10.4997 107.445 -0.0893974 91.2253 0.000568442 75V63H216.001Z" fill="url(#paint0_linear_1043_8075)"/>
<path d="M216.001 63L216.001 74.8733L216.001 75C215.912 91.021 205.412 107.048 184.49 119.331C142.382 144.053 73.9983 144.246 31.7561 119.764C10.4997 107.445 -0.0893974 91.2253 0.000568442 75V63H216.001Z" fill="black" fill-opacity="0.2"/>
<path d="M184.246 18.2363C142.001 -6.24717 73.6204 -6.05281 31.5097 18.6707C-10.5986 43.3928 -10.4894 83.281 31.7555 107.764C73.9977 132.246 142.381 132.053 184.489 107.331C226.6 82.6079 226.488 42.7181 184.246 18.2363Z" fill="url(#paint1_linear_1043_8075)"/>
<path d="M38.1084 103.146C76.8329 125.103 139.516 124.928 178.116 102.756C216.716 80.5842 216.615 44.8125 177.89 22.8551C139.166 0.8978 76.4855 1.0715 37.8854 23.2434C-0.71482 45.4153 -0.616108 81.1885 38.1084 103.146Z" fill="url(#paint2_linear_1043_8075)"/>
<path d="M170.832 27.1179C136.019 7.49225 79.6686 7.64805 44.9663 27.4661C10.2659 47.283 10.356 79.2569 45.1689 98.8825C79.9796 118.507 136.332 118.352 171.033 98.5354C205.735 78.7173 205.643 46.7422 170.832 27.1179Z" fill="url(#paint3_linear_1043_8075)"/>
<path d="M170.832 27.1179C136.019 7.49225 79.6686 7.64805 44.9663 27.4661C10.2659 47.283 10.356 79.2569 45.1689 98.8825C79.9796 118.507 136.332 118.352 171.033 98.5354C205.735 78.7173 205.643 46.7422 170.832 27.1179Z" fill="white" fill-opacity="0.64"/>
<mask id="mask0_1043_8075" style="mask-type:alpha" maskUnits="userSpaceOnUse" x="29" y="17" width="158" height="91">
<path d="M163.591 30.5758C132.883 13.0747 83.1714 13.2135 52.5608 30.8865C21.9523 48.5583 22.0321 77.0747 52.7397 94.5758C83.4473 112.077 133.159 111.938 163.768 94.2664C194.378 76.5933 194.299 48.0769 163.591 30.5758Z" fill="url(#paint4_linear_1043_8075)"/>
<path d="M163.591 30.5758C132.883 13.0747 83.1714 13.2135 52.5608 30.8865C21.9523 48.5583 22.0321 77.0747 52.7397 94.5758C83.4473 112.077 133.159 111.938 163.768 94.2664C194.378 76.5933 194.299 48.0769 163.591 30.5758Z" fill="white"/>
</mask>
<g mask="url(#mask0_1043_8075)">
<g clip-path="url(#clip1_1043_8075)">
<rect width="128" height="128" transform="matrix(0.866025 -0.5 0.868804 0.495155 -2.86377 62.8859)" fill="white"/>
<path d="M163.769 94.2658C194.38 76.5926 194.3 48.0777 163.591 30.5758C132.882 13.0739 83.1726 13.2127 52.5619 30.8859C21.9511 48.559 22.0308 77.0739 52.7397 94.5758C83.4487 112.078 133.158 111.939 163.769 94.2658Z" fill="white"/>
<mask id="mask1_1043_8075" style="mask-type:alpha" maskUnits="userSpaceOnUse" x="39" y="24" width="135" height="78">
<path d="M39.5093 56.9786L94.9349 24.9786L173.707 69.8727L118.281 101.873L39.5093 56.9786Z" fill="white"/>
</mask>
<g mask="url(#mask1_1043_8075)">
<path fill-rule="evenodd" clip-rule="evenodd" d="M113.777 50.29C119.694 55.7183 104.715 59.873 100.166 61.3974L89.705 51.8042C94.2539 50.2797 107.603 44.6294 113.777 50.2897L113.777 50.29ZM133.8 63.9574C140.311 69.9219 122.439 74.9843 116.981 76.8174L105.447 66.2393C110.911 64.4098 127.015 57.7345 133.801 63.9572L133.8 63.9574ZM126.458 43.1097C119.334 37.7266 109.015 38.5795 98.0213 41.5217L89.4129 33.6284L81.3553 36.3293L89.7377 44.0144C87.6189 44.7243 85.481 45.4748 83.3573 46.2214L74.9214 38.4846L66.8678 41.1832L75.4711 49.0752C73.7501 49.6809 72.0577 50.2747 70.3877 50.8349L70.36 50.8106L59.2434 54.5322L64.8418 59.6631C64.8418 59.6631 70.7189 57.6017 70.691 57.6999C73.9549 56.6068 76.25 57.3807 77.6228 58.2518L87.4301 67.2438L87.4684 67.2782L101.205 79.8762C101.73 80.5364 102.191 81.7156 99.9132 82.482C100.076 82.5017 94.055 84.444 94.055 84.444L98.7113 90.7187L109.198 87.2045C111.151 86.5521 113.093 85.9285 114.986 85.3034L123.696 93.2855L131.746 90.5889L123.131 82.6902C125.371 81.9768 127.521 81.2707 129.608 80.5697L138.179 88.4332L146.237 85.7322L137.548 77.7624C150.591 72.7594 157.853 67.5474 150.757 59.5673C145.046 53.1409 137.256 52.0303 128.365 53.5059C131.49 50.5217 131.686 47.0437 126.461 43.1089L126.457 43.1092L126.458 43.1097Z" fill="#F7931A"/>
</g>
</g>
</g>
</g>
<defs>
<linearGradient id="paint0_linear_1043_8075" x1="107.757" y1="47.4678" x2="80.2592" y2="145.698" gradientUnits="userSpaceOnUse">
<stop stop-color="#F7931A"/>
<stop offset="1" stop-color="#A86412"/>
</linearGradient>
<linearGradient id="paint1_linear_1043_8075" x1="107.756" y1="-26.0939" x2="39.2228" y2="119.635" gradientUnits="userSpaceOnUse">
<stop stop-color="#F7931A"/>
<stop offset="1" stop-color="#A86412"/>
</linearGradient>
<linearGradient id="paint2_linear_1043_8075" x1="108.223" y1="142.902" x2="168.826" y2="11.1872" gradientUnits="userSpaceOnUse">
<stop stop-color="#F7931A"/>
<stop offset="1" stop-color="#A86412"/>
</linearGradient>
<linearGradient id="paint3_linear_1043_8075" x1="107.799" y1="-8.41665" x2="53.8366" y2="109.548" gradientUnits="userSpaceOnUse">
<stop stop-color="#F7931A"/>
<stop offset="1" stop-color="#A86412"/>
</linearGradient>
<linearGradient id="paint4_linear_1043_8075" x1="15.9224" y1="66.1116" x2="196.043" y2="48.631" gradientUnits="userSpaceOnUse">
<stop stop-color="#00E599"/>
<stop offset="1" stop-color="#00AF92"/>
</linearGradient>
<clipPath id="clip0_1043_8075">
<rect width="216" height="138" fill="white"/>
</clipPath>
<clipPath id="clip1_1043_8075">
<rect width="128" height="128" fill="white" transform="matrix(0.866025 -0.5 0.868804 0.495155 -2.86377 62.8859)"/>
</clipPath>
</defs>
</svg>
