<svg width="376" height="562" viewBox="0 0 376 562" fill="none" xmlns="http://www.w3.org/2000/svg">
<g clip-path="url(#clip0_1043_8962)">
<path d="M290.001 487L290.001 498.873L290.001 499C289.912 515.021 279.412 531.048 258.49 543.331C216.382 568.053 147.998 568.246 105.756 543.764C84.4997 531.445 73.9106 515.225 74.0006 499V487H290.001Z" fill="url(#paint0_linear_1043_8962)"/>
<path d="M290.001 487L290.001 498.873L290.001 499C289.912 515.021 279.412 531.048 258.49 543.331C216.382 568.053 147.998 568.246 105.756 543.764C84.4997 531.445 73.9106 515.225 74.0006 499V487H290.001Z" fill="black" fill-opacity="0.2"/>
<path d="M258.246 442.236C216.001 417.753 147.62 417.947 105.51 442.671C63.4014 467.393 63.5106 507.281 105.756 531.764C147.998 556.246 216.381 556.053 258.489 531.331C300.6 506.608 300.488 466.718 258.246 442.236Z" fill="url(#paint1_linear_1043_8962)"/>
</g>
<g clip-path="url(#clip1_1043_8962)">
<path d="M296.001 479L296.001 490.873L296.001 491C295.912 507.021 285.412 523.048 264.49 535.331C222.382 560.053 153.998 560.246 111.756 535.764C90.4997 523.445 79.9106 507.225 80.0006 491V479H296.001Z" fill="url(#paint2_linear_1043_8962)"/>
<path d="M296.001 479L296.001 490.873L296.001 491C295.912 507.021 285.412 523.048 264.49 535.331C222.382 560.053 153.998 560.246 111.756 535.764C90.4997 523.445 79.9106 507.225 80.0006 491V479H296.001Z" fill="black" fill-opacity="0.2"/>
<path d="M264.246 434.236C222.001 409.753 153.62 409.947 111.51 434.671C69.4014 459.393 69.5106 499.281 111.756 523.764C153.998 548.246 222.381 548.053 264.489 523.331C306.6 498.608 306.488 458.718 264.246 434.236Z" fill="url(#paint3_linear_1043_8962)"/>
</g>
<g clip-path="url(#clip2_1043_8962)">
<path d="M300.001 463L300.001 474.873L300.001 475C299.912 491.021 289.412 507.048 268.49 519.331C226.382 544.053 157.998 544.246 115.756 519.764C94.4997 507.445 83.9106 491.225 84.0006 475V463H300.001Z" fill="url(#paint4_linear_1043_8962)"/>
<path d="M300.001 463L300.001 474.873L300.001 475C299.912 491.021 289.412 507.048 268.49 519.331C226.382 544.053 157.998 544.246 115.756 519.764C94.4997 507.445 83.9106 491.225 84.0006 475V463H300.001Z" fill="black" fill-opacity="0.2"/>
<path d="M268.246 418.236C226.001 393.753 157.62 393.947 115.51 418.671C73.4014 443.393 73.5106 483.281 115.756 507.764C157.998 532.246 226.381 532.053 268.489 507.331C310.6 482.608 310.488 442.718 268.246 418.236Z" fill="url(#paint5_linear_1043_8962)"/>
</g>
<g clip-path="url(#clip3_1043_8962)">
<path d="M294.001 447L294.001 458.873L294.001 459C293.912 475.021 283.412 491.048 262.49 503.331C220.382 528.053 151.998 528.246 109.756 503.764C88.4997 491.445 77.9106 475.225 78.0006 459V447H294.001Z" fill="url(#paint6_linear_1043_8962)"/>
<path d="M294.001 447L294.001 458.873L294.001 459C293.912 475.021 283.412 491.048 262.49 503.331C220.382 528.053 151.998 528.246 109.756 503.764C88.4997 491.445 77.9106 475.225 78.0006 459V447H294.001Z" fill="black" fill-opacity="0.2"/>
<path d="M262.246 402.236C220.001 377.753 151.62 377.947 109.51 402.671C67.4014 427.393 67.5106 467.281 109.756 491.764C151.998 516.246 220.381 516.053 262.489 491.331C304.6 466.608 304.488 426.718 262.246 402.236Z" fill="url(#paint7_linear_1043_8962)"/>
</g>
<g clip-path="url(#clip4_1043_8962)">
<path d="M292.001 439L292.001 450.873L292.001 451C291.912 467.021 281.412 483.048 260.49 495.331C218.382 520.053 149.998 520.246 107.756 495.764C86.4997 483.445 75.9106 467.225 76.0006 451V439H292.001Z" fill="url(#paint8_linear_1043_8962)"/>
<path d="M292.001 439L292.001 450.873L292.001 451C291.912 467.021 281.412 483.048 260.49 495.331C218.382 520.053 149.998 520.246 107.756 495.764C86.4997 483.445 75.9106 467.225 76.0006 451V439H292.001Z" fill="black" fill-opacity="0.2"/>
<path d="M260.246 394.236C218.001 369.753 149.62 369.947 107.51 394.671C65.4014 419.393 65.5106 459.281 107.756 483.764C149.998 508.246 218.381 508.053 260.489 483.331C302.6 458.608 302.488 418.718 260.246 394.236Z" fill="url(#paint9_linear_1043_8962)"/>
</g>
<g clip-path="url(#clip5_1043_8962)">
<path d="M306.001 431L306.001 442.873L306.001 443C305.912 459.021 295.412 475.048 274.49 487.331C232.382 512.053 163.998 512.246 121.756 487.764C100.5 475.445 89.9106 459.225 90.0006 443V431H306.001Z" fill="url(#paint10_linear_1043_8962)"/>
<path d="M306.001 431L306.001 442.873L306.001 443C305.912 459.021 295.412 475.048 274.49 487.331C232.382 512.053 163.998 512.246 121.756 487.764C100.5 475.445 89.9106 459.225 90.0006 443V431H306.001Z" fill="black" fill-opacity="0.2"/>
<path d="M274.246 386.236C232.001 361.753 163.62 361.947 121.51 386.671C79.4014 411.393 79.5106 451.281 121.756 475.764C163.998 500.246 232.381 500.053 274.489 475.331C316.6 450.608 316.488 410.718 274.246 386.236Z" fill="url(#paint11_linear_1043_8962)"/>
</g>
<g clip-path="url(#clip6_1043_8962)">
<path d="M292.001 416L292.001 427.873L292.001 428C291.912 444.021 281.412 460.048 260.49 472.331C218.382 497.053 149.998 497.246 107.756 472.764C86.4997 460.445 75.9106 444.225 76.0006 428V416H292.001Z" fill="url(#paint12_linear_1043_8962)"/>
<path d="M292.001 416L292.001 427.873L292.001 428C291.912 444.021 281.412 460.048 260.49 472.331C218.382 497.053 149.998 497.246 107.756 472.764C86.4997 460.445 75.9106 444.225 76.0006 428V416H292.001Z" fill="black" fill-opacity="0.2"/>
<path d="M260.246 371.236C218.001 346.753 149.62 346.947 107.51 371.671C65.4014 396.393 65.5106 436.281 107.756 460.764C149.998 485.246 218.381 485.053 260.489 460.331C302.6 435.608 302.488 395.718 260.246 371.236Z" fill="url(#paint13_linear_1043_8962)"/>
</g>
<g clip-path="url(#clip7_1043_8962)">
<path d="M298.001 404L298.001 415.873L298.001 416C297.912 432.021 287.412 448.048 266.49 460.331C224.382 485.053 155.998 485.246 113.756 460.764C92.4997 448.445 81.9106 432.225 82.0006 416V404H298.001Z" fill="url(#paint14_linear_1043_8962)"/>
<path d="M298.001 404L298.001 415.873L298.001 416C297.912 432.021 287.412 448.048 266.49 460.331C224.382 485.053 155.998 485.246 113.756 460.764C92.4997 448.445 81.9106 432.225 82.0006 416V404H298.001Z" fill="black" fill-opacity="0.2"/>
<path d="M266.246 359.236C224.001 334.753 155.62 334.947 113.51 359.671C71.4014 384.393 71.5106 424.281 113.756 448.764C155.998 473.246 224.381 473.053 266.489 448.331C308.6 423.608 308.488 383.718 266.246 359.236Z" fill="url(#paint15_linear_1043_8962)"/>
</g>
<g clip-path="url(#clip8_1043_8962)">
<path d="M290.001 395L290.001 406.873L290.001 407C289.912 423.021 279.412 439.048 258.49 451.331C216.382 476.053 147.998 476.246 105.756 451.764C84.4997 439.445 73.9106 423.225 74.0006 407V395H290.001Z" fill="url(#paint16_linear_1043_8962)"/>
<path d="M290.001 395L290.001 406.873L290.001 407C289.912 423.021 279.412 439.048 258.49 451.331C216.382 476.053 147.998 476.246 105.756 451.764C84.4997 439.445 73.9106 423.225 74.0006 407V395H290.001Z" fill="black" fill-opacity="0.2"/>
<path d="M258.246 350.236C216.001 325.753 147.62 325.947 105.51 350.671C63.4014 375.393 63.5106 415.281 105.756 439.764C147.998 464.246 216.381 464.053 258.489 439.331C300.6 414.608 300.488 374.718 258.246 350.236Z" fill="url(#paint17_linear_1043_8962)"/>
</g>
<g clip-path="url(#clip9_1043_8962)">
<path d="M306.001 379L306.001 390.873L306.001 391C305.912 407.021 295.412 423.048 274.49 435.331C232.382 460.053 163.998 460.246 121.756 435.764C100.5 423.445 89.9106 407.225 90.0006 391V379H306.001Z" fill="url(#paint18_linear_1043_8962)"/>
<path d="M306.001 379L306.001 390.873L306.001 391C305.912 407.021 295.412 423.048 274.49 435.331C232.382 460.053 163.998 460.246 121.756 435.764C100.5 423.445 89.9106 407.225 90.0006 391V379H306.001Z" fill="black" fill-opacity="0.2"/>
<path d="M274.246 334.236C232.001 309.753 163.62 309.947 121.51 334.671C79.4014 359.393 79.5106 399.281 121.756 423.764C163.998 448.246 232.381 448.053 274.489 423.331C316.6 398.608 316.488 358.718 274.246 334.236Z" fill="url(#paint19_linear_1043_8962)"/>
</g>
<g clip-path="url(#clip10_1043_8962)">
<path d="M292.001 372L292.001 383.873L292.001 384C291.912 400.021 281.412 416.048 260.49 428.331C218.382 453.053 149.998 453.246 107.756 428.764C86.4997 416.445 75.9106 400.225 76.0006 384V372H292.001Z" fill="url(#paint20_linear_1043_8962)"/>
<path d="M292.001 372L292.001 383.873L292.001 384C291.912 400.021 281.412 416.048 260.49 428.331C218.382 453.053 149.998 453.246 107.756 428.764C86.4997 416.445 75.9106 400.225 76.0006 384V372H292.001Z" fill="black" fill-opacity="0.2"/>
<path d="M260.246 327.236C218.001 302.753 149.62 302.947 107.51 327.671C65.4014 352.393 65.5106 392.281 107.756 416.764C149.998 441.246 218.381 441.053 260.489 416.331C302.6 391.608 302.488 351.718 260.246 327.236Z" fill="url(#paint21_linear_1043_8962)"/>
</g>
<g clip-path="url(#clip11_1043_8962)">
<path d="M296.001 356L296.001 367.873L296.001 368C295.912 384.021 285.412 400.048 264.49 412.331C222.382 437.053 153.998 437.246 111.756 412.764C90.4997 400.445 79.9106 384.225 80.0006 368V356H296.001Z" fill="url(#paint22_linear_1043_8962)"/>
<path d="M296.001 356L296.001 367.873L296.001 368C295.912 384.021 285.412 400.048 264.49 412.331C222.382 437.053 153.998 437.246 111.756 412.764C90.4997 400.445 79.9106 384.225 80.0006 368V356H296.001Z" fill="black" fill-opacity="0.2"/>
<path d="M264.246 311.236C222.001 286.753 153.62 286.947 111.51 311.671C69.4014 336.393 69.5106 376.281 111.756 400.764C153.998 425.246 222.381 425.053 264.489 400.331C306.6 375.608 306.488 335.718 264.246 311.236Z" fill="url(#paint23_linear_1043_8962)"/>
</g>
<g clip-path="url(#clip12_1043_8962)">
<path d="M299.001 341L299.001 352.873L299.001 353C298.912 369.021 288.412 385.048 267.49 397.331C225.382 422.053 156.998 422.246 114.756 397.764C93.4997 385.445 82.9106 369.225 83.0006 353V341H299.001Z" fill="url(#paint24_linear_1043_8962)"/>
<path d="M299.001 341L299.001 352.873L299.001 353C298.912 369.021 288.412 385.048 267.49 397.331C225.382 422.053 156.998 422.246 114.756 397.764C93.4997 385.445 82.9106 369.225 83.0006 353V341H299.001Z" fill="black" fill-opacity="0.2"/>
<path d="M267.246 296.236C225.001 271.753 156.62 271.947 114.51 296.671C72.4014 321.393 72.5106 361.281 114.756 385.764C156.998 410.246 225.381 410.053 267.489 385.331C309.6 360.608 309.488 320.718 267.246 296.236Z" fill="url(#paint25_linear_1043_8962)"/>
</g>
<g clip-path="url(#clip13_1043_8962)">
<path d="M290.001 325L290.001 336.873L290.001 337C289.912 353.021 279.412 369.048 258.49 381.331C216.382 406.053 147.998 406.246 105.756 381.764C84.4997 369.445 73.9106 353.225 74.0006 337V325H290.001Z" fill="url(#paint26_linear_1043_8962)"/>
<path d="M290.001 325L290.001 336.873L290.001 337C289.912 353.021 279.412 369.048 258.49 381.331C216.382 406.053 147.998 406.246 105.756 381.764C84.4997 369.445 73.9106 353.225 74.0006 337V325H290.001Z" fill="black" fill-opacity="0.2"/>
<path d="M258.246 280.236C216.001 255.753 147.62 255.947 105.51 280.671C63.4014 305.393 63.5106 345.281 105.756 369.764C147.998 394.246 216.381 394.053 258.489 369.331C300.6 344.608 300.488 304.718 258.246 280.236Z" fill="url(#paint27_linear_1043_8962)"/>
</g>
<g clip-path="url(#clip14_1043_8962)">
<path d="M302.001 320L302.001 331.873L302.001 332C301.912 348.021 291.412 364.048 270.49 376.331C228.382 401.053 159.998 401.246 117.756 376.764C96.4997 364.445 85.9106 348.225 86.0006 332V320H302.001Z" fill="url(#paint28_linear_1043_8962)"/>
<path d="M302.001 320L302.001 331.873L302.001 332C301.912 348.021 291.412 364.048 270.49 376.331C228.382 401.053 159.998 401.246 117.756 376.764C96.4997 364.445 85.9106 348.225 86.0006 332V320H302.001Z" fill="black" fill-opacity="0.2"/>
<path d="M270.246 275.236C228.001 250.753 159.62 250.947 117.51 275.671C75.4014 300.393 75.5106 340.281 117.756 364.764C159.998 389.246 228.381 389.053 270.489 364.331C312.6 339.608 312.488 299.718 270.246 275.236Z" fill="url(#paint29_linear_1043_8962)"/>
</g>
<g clip-path="url(#clip15_1043_8962)">
<path d="M296.001 309L296.001 320.873L296.001 321C295.912 337.021 285.412 353.048 264.49 365.331C222.382 390.053 153.998 390.246 111.756 365.764C90.4997 353.445 79.9106 337.225 80.0006 321V309H296.001Z" fill="url(#paint30_linear_1043_8962)"/>
<path d="M296.001 309L296.001 320.873L296.001 321C295.912 337.021 285.412 353.048 264.49 365.331C222.382 390.053 153.998 390.246 111.756 365.764C90.4997 353.445 79.9106 337.225 80.0006 321V309H296.001Z" fill="black" fill-opacity="0.2"/>
<path d="M264.246 264.236C222.001 239.753 153.62 239.947 111.51 264.671C69.4014 289.393 69.5106 329.281 111.756 353.764C153.998 378.246 222.381 378.053 264.489 353.331C306.6 328.608 306.488 288.718 264.246 264.236Z" fill="url(#paint31_linear_1043_8962)"/>
</g>
<g clip-path="url(#clip16_1043_8962)">
<path d="M293.001 295L293.001 306.873L293.001 307C292.912 323.021 282.412 339.048 261.49 351.331C219.382 376.053 150.998 376.246 108.756 351.764C87.4997 339.445 76.9106 323.225 77.0006 307V295H293.001Z" fill="url(#paint32_linear_1043_8962)"/>
<path d="M293.001 295L293.001 306.873L293.001 307C292.912 323.021 282.412 339.048 261.49 351.331C219.382 376.053 150.998 376.246 108.756 351.764C87.4997 339.445 76.9106 323.225 77.0006 307V295H293.001Z" fill="black" fill-opacity="0.2"/>
<path d="M261.246 250.236C219.001 225.753 150.62 225.947 108.51 250.671C66.4014 275.393 66.5106 315.281 108.756 339.764C150.998 364.246 219.381 364.053 261.489 339.331C303.6 314.608 303.488 274.718 261.246 250.236Z" fill="url(#paint33_linear_1043_8962)"/>
</g>
<g clip-path="url(#clip17_1043_8962)">
<path d="M296.001 281L296.001 292.873L296.001 293C295.912 309.021 285.412 325.048 264.49 337.331C222.382 362.053 153.998 362.246 111.756 337.764C90.4997 325.445 79.9106 309.225 80.0006 293V281H296.001Z" fill="url(#paint34_linear_1043_8962)"/>
<path d="M296.001 281L296.001 292.873L296.001 293C295.912 309.021 285.412 325.048 264.49 337.331C222.382 362.053 153.998 362.246 111.756 337.764C90.4997 325.445 79.9106 309.225 80.0006 293V281H296.001Z" fill="black" fill-opacity="0.2"/>
<path d="M264.246 236.236C222.001 211.753 153.62 211.947 111.51 236.671C69.4014 261.393 69.5106 301.281 111.756 325.764C153.998 350.246 222.381 350.053 264.489 325.331C306.6 300.608 306.488 260.718 264.246 236.236Z" fill="url(#paint35_linear_1043_8962)"/>
</g>
<g clip-path="url(#clip18_1043_8962)">
<path d="M300.001 273L300.001 284.873L300.001 285C299.912 301.021 289.412 317.048 268.49 329.331C226.382 354.053 157.998 354.246 115.756 329.764C94.4997 317.445 83.9106 301.225 84.0006 285V273H300.001Z" fill="url(#paint36_linear_1043_8962)"/>
<path d="M300.001 273L300.001 284.873L300.001 285C299.912 301.021 289.412 317.048 268.49 329.331C226.382 354.053 157.998 354.246 115.756 329.764C94.4997 317.445 83.9106 301.225 84.0006 285V273H300.001Z" fill="black" fill-opacity="0.2"/>
<path d="M268.246 228.236C226.001 203.753 157.62 203.947 115.51 228.671C73.4014 253.393 73.5106 293.281 115.756 317.764C157.998 342.246 226.381 342.053 268.489 317.331C310.6 292.608 310.488 252.718 268.246 228.236Z" fill="url(#paint37_linear_1043_8962)"/>
</g>
<g clip-path="url(#clip19_1043_8962)">
<path d="M293.001 259L293.001 270.873L293.001 271C292.912 287.021 282.412 303.048 261.49 315.331C219.382 340.053 150.998 340.246 108.756 315.764C87.4997 303.445 76.9106 287.225 77.0006 271V259H293.001Z" fill="url(#paint38_linear_1043_8962)"/>
<path d="M293.001 259L293.001 270.873L293.001 271C292.912 287.021 282.412 303.048 261.49 315.331C219.382 340.053 150.998 340.246 108.756 315.764C87.4997 303.445 76.9106 287.225 77.0006 271V259H293.001Z" fill="black" fill-opacity="0.2"/>
<path d="M261.246 214.236C219.001 189.753 150.62 189.947 108.51 214.671C66.4014 239.393 66.5106 279.281 108.756 303.764C150.998 328.246 219.381 328.053 261.489 303.331C303.6 278.608 303.488 238.718 261.246 214.236Z" fill="url(#paint39_linear_1043_8962)"/>
</g>
<g clip-path="url(#clip20_1043_8962)">
<path d="M296.001 251L296.001 262.873L296.001 263C295.912 279.021 285.412 295.048 264.49 307.331C222.382 332.053 153.998 332.246 111.756 307.764C90.4997 295.445 79.9106 279.225 80.0006 263V251H296.001Z" fill="url(#paint40_linear_1043_8962)"/>
<path d="M296.001 251L296.001 262.873L296.001 263C295.912 279.021 285.412 295.048 264.49 307.331C222.382 332.053 153.998 332.246 111.756 307.764C90.4997 295.445 79.9106 279.225 80.0006 263V251H296.001Z" fill="black" fill-opacity="0.2"/>
<path d="M264.246 206.236C222.001 181.753 153.62 181.947 111.51 206.671C69.4014 231.393 69.5106 271.281 111.756 295.764C153.998 320.246 222.381 320.053 264.489 295.331C306.6 270.608 306.488 230.718 264.246 206.236Z" fill="url(#paint41_linear_1043_8962)"/>
</g>
<g clip-path="url(#clip21_1043_8962)">
<path d="M299.001 234L299.001 245.873L299.001 246C298.912 262.021 288.412 278.048 267.49 290.331C225.382 315.053 156.998 315.246 114.756 290.764C93.4997 278.445 82.9106 262.225 83.0006 246V234H299.001Z" fill="url(#paint42_linear_1043_8962)"/>
<path d="M299.001 234L299.001 245.873L299.001 246C298.912 262.021 288.412 278.048 267.49 290.331C225.382 315.053 156.998 315.246 114.756 290.764C93.4997 278.445 82.9106 262.225 83.0006 246V234H299.001Z" fill="black" fill-opacity="0.2"/>
<path d="M267.246 189.236C225.001 164.753 156.62 164.947 114.51 189.671C72.4014 214.393 72.5106 254.281 114.756 278.764C156.998 303.246 225.381 303.053 267.489 278.331C309.6 253.608 309.488 213.718 267.246 189.236Z" fill="url(#paint43_linear_1043_8962)"/>
</g>
<g clip-path="url(#clip22_1043_8962)">
<path d="M293.001 223L293.001 234.873L293.001 235C292.912 251.021 282.412 267.048 261.49 279.331C219.382 304.053 150.998 304.246 108.756 279.764C87.4997 267.445 76.9106 251.225 77.0006 235V223H293.001Z" fill="url(#paint44_linear_1043_8962)"/>
<path d="M293.001 223L293.001 234.873L293.001 235C292.912 251.021 282.412 267.048 261.49 279.331C219.382 304.053 150.998 304.246 108.756 279.764C87.4997 267.445 76.9106 251.225 77.0006 235V223H293.001Z" fill="black" fill-opacity="0.2"/>
<path d="M261.246 178.236C219.001 153.753 150.62 153.947 108.51 178.671C66.4014 203.393 66.5106 243.281 108.756 267.764C150.998 292.246 219.381 292.053 261.489 267.331C303.6 242.608 303.488 202.718 261.246 178.236Z" fill="url(#paint45_linear_1043_8962)"/>
</g>
<g clip-path="url(#clip23_1043_8962)">
<path d="M296.001 209L296.001 220.873L296.001 221C295.912 237.021 285.412 253.048 264.49 265.331C222.382 290.053 153.998 290.246 111.756 265.764C90.4997 253.445 79.9106 237.225 80.0006 221V209H296.001Z" fill="url(#paint46_linear_1043_8962)"/>
<path d="M296.001 209L296.001 220.873L296.001 221C295.912 237.021 285.412 253.048 264.49 265.331C222.382 290.053 153.998 290.246 111.756 265.764C90.4997 253.445 79.9106 237.225 80.0006 221V209H296.001Z" fill="black" fill-opacity="0.2"/>
<path d="M264.246 164.236C222.001 139.753 153.62 139.947 111.51 164.671C69.4014 189.393 69.5106 229.281 111.756 253.764C153.998 278.246 222.381 278.053 264.489 253.331C306.6 228.608 306.488 188.718 264.246 164.236Z" fill="url(#paint47_linear_1043_8962)"/>
</g>
<g clip-path="url(#clip24_1043_8962)">
<path d="M299.001 201L299.001 212.873L299.001 213C298.912 229.021 288.412 245.048 267.49 257.331C225.382 282.053 156.998 282.246 114.756 257.764C93.4997 245.445 82.9106 229.225 83.0006 213V201H299.001Z" fill="url(#paint48_linear_1043_8962)"/>
<path d="M299.001 201L299.001 212.873L299.001 213C298.912 229.021 288.412 245.048 267.49 257.331C225.382 282.053 156.998 282.246 114.756 257.764C93.4997 245.445 82.9106 229.225 83.0006 213V201H299.001Z" fill="black" fill-opacity="0.2"/>
<path d="M267.246 156.236C225.001 131.753 156.62 131.947 114.51 156.671C72.4014 181.393 72.5106 221.281 114.756 245.764C156.998 270.246 225.381 270.053 267.489 245.331C309.6 220.608 309.488 180.718 267.246 156.236Z" fill="url(#paint49_linear_1043_8962)"/>
</g>
<g clip-path="url(#clip25_1043_8962)">
<path d="M290.001 188L290.001 199.873L290.001 200C289.912 216.021 279.412 232.048 258.49 244.331C216.382 269.053 147.998 269.246 105.756 244.764C84.4997 232.445 73.9106 216.225 74.0006 200V188H290.001Z" fill="url(#paint50_linear_1043_8962)"/>
<path d="M290.001 188L290.001 199.873L290.001 200C289.912 216.021 279.412 232.048 258.49 244.331C216.382 269.053 147.998 269.246 105.756 244.764C84.4997 232.445 73.9106 216.225 74.0006 200V188H290.001Z" fill="black" fill-opacity="0.2"/>
<path d="M258.246 143.236C216.001 118.753 147.62 118.947 105.51 143.671C63.4014 168.393 63.5106 208.281 105.756 232.764C147.998 257.246 216.381 257.053 258.489 232.331C300.6 207.608 300.488 167.718 258.246 143.236Z" fill="url(#paint51_linear_1043_8962)"/>
</g>
<g clip-path="url(#clip26_1043_8962)">
<path d="M300.001 176L300.001 187.873L300.001 188C299.912 204.021 289.412 220.048 268.49 232.331C226.382 257.053 157.998 257.246 115.756 232.764C94.4997 220.445 83.9106 204.225 84.0006 188V176H300.001Z" fill="url(#paint52_linear_1043_8962)"/>
<path d="M300.001 176L300.001 187.873L300.001 188C299.912 204.021 289.412 220.048 268.49 232.331C226.382 257.053 157.998 257.246 115.756 232.764C94.4997 220.445 83.9106 204.225 84.0006 188V176H300.001Z" fill="black" fill-opacity="0.2"/>
<path d="M268.246 131.236C226.001 106.753 157.62 106.947 115.51 131.671C73.4014 156.393 73.5106 196.281 115.756 220.764C157.998 245.246 226.381 245.053 268.489 220.331C310.6 195.608 310.488 155.718 268.246 131.236Z" fill="url(#paint53_linear_1043_8962)"/>
</g>
<g clip-path="url(#clip27_1043_8962)">
<path d="M295.001 162L295.001 173.873L295.001 174C294.912 190.021 284.412 206.048 263.49 218.331C221.382 243.053 152.998 243.246 110.756 218.764C89.4997 206.445 78.9106 190.225 79.0006 174V162H295.001Z" fill="url(#paint54_linear_1043_8962)"/>
<path d="M295.001 162L295.001 173.873L295.001 174C294.912 190.021 284.412 206.048 263.49 218.331C221.382 243.053 152.998 243.246 110.756 218.764C89.4997 206.445 78.9106 190.225 79.0006 174V162H295.001Z" fill="black" fill-opacity="0.2"/>
<path d="M263.246 117.236C221.001 92.7528 152.62 92.9472 110.51 117.671C68.4014 142.393 68.5106 182.281 110.756 206.764C152.998 231.246 221.381 231.053 263.489 206.331C305.6 181.608 305.488 141.718 263.246 117.236Z" fill="url(#paint55_linear_1043_8962)"/>
</g>
<g clip-path="url(#clip28_1043_8962)">
<path d="M300.001 157L300.001 168.873L300.001 169C299.912 185.021 289.412 201.048 268.49 213.331C226.382 238.053 157.998 238.246 115.756 213.764C94.4997 201.445 83.9106 185.225 84.0006 169V157H300.001Z" fill="url(#paint56_linear_1043_8962)"/>
<path d="M300.001 157L300.001 168.873L300.001 169C299.912 185.021 289.412 201.048 268.49 213.331C226.382 238.053 157.998 238.246 115.756 213.764C94.4997 201.445 83.9106 185.225 84.0006 169V157H300.001Z" fill="black" fill-opacity="0.2"/>
<path d="M268.246 112.236C226.001 87.7528 157.62 87.9472 115.51 112.671C73.4014 137.393 73.5106 177.281 115.756 201.764C157.998 226.246 226.381 226.053 268.489 201.331C310.6 176.608 310.488 136.718 268.246 112.236Z" fill="url(#paint57_linear_1043_8962)"/>
</g>
<g clip-path="url(#clip29_1043_8962)">
<path d="M296.001 139L296.001 150.873L296.001 151C295.912 167.021 285.412 183.048 264.49 195.331C222.382 220.053 153.998 220.246 111.756 195.764C90.4997 183.445 79.9106 167.225 80.0006 151V139H296.001Z" fill="url(#paint58_linear_1043_8962)"/>
<path d="M296.001 139L296.001 150.873L296.001 151C295.912 167.021 285.412 183.048 264.49 195.331C222.382 220.053 153.998 220.246 111.756 195.764C90.4997 183.445 79.9106 167.225 80.0006 151V139H296.001Z" fill="black" fill-opacity="0.2"/>
<path d="M264.246 94.2363C222.001 69.7528 153.62 69.9472 111.51 94.6707C69.4014 119.393 69.5106 159.281 111.756 183.764C153.998 208.246 222.381 208.053 264.489 183.331C306.6 158.608 306.488 118.718 264.246 94.2363Z" fill="url(#paint59_linear_1043_8962)"/>
</g>
<g clip-path="url(#clip30_1043_8962)">
<path d="M296.001 139L296.001 150.873L296.001 151C295.912 167.021 285.412 183.048 264.49 195.331C222.382 220.053 153.998 220.246 111.756 195.764C90.4997 183.445 79.9106 167.225 80.0006 151V139H296.001Z" fill="url(#paint60_linear_1043_8962)"/>
<path d="M296.001 139L296.001 150.873L296.001 151C295.912 167.021 285.412 183.048 264.49 195.331C222.382 220.053 153.998 220.246 111.756 195.764C90.4997 183.445 79.9106 167.225 80.0006 151V139H296.001Z" fill="black" fill-opacity="0.2"/>
<path d="M264.246 94.2363C222.001 69.7528 153.62 69.9472 111.51 94.6707C69.4014 119.393 69.5106 159.281 111.756 183.764C153.998 208.246 222.381 208.053 264.489 183.331C306.6 158.608 306.488 118.718 264.246 94.2363Z" fill="url(#paint61_linear_1043_8962)"/>
<path d="M118.108 179.146C156.833 201.103 219.516 200.928 258.116 178.756C296.716 156.584 296.615 120.812 257.89 98.8551C219.166 76.8978 156.486 77.0715 117.885 99.2434C79.2852 121.415 79.3839 157.188 118.108 179.146Z" fill="url(#paint62_linear_1043_8962)"/>
<path d="M250.832 103.118C216.019 83.4922 159.669 83.648 124.966 103.466C90.2659 123.283 90.356 155.257 125.169 174.882C159.98 194.507 216.332 194.352 251.033 174.535C285.735 154.717 285.643 122.742 250.832 103.118Z" fill="url(#paint63_linear_1043_8962)"/>
<path d="M250.832 103.118C216.019 83.4922 159.669 83.648 124.966 103.466C90.2659 123.283 90.356 155.257 125.169 174.882C159.98 194.507 216.332 194.352 251.033 174.535C285.735 154.717 285.643 122.742 250.832 103.118Z" fill="white" fill-opacity="0.64"/>
<mask id="mask0_1043_8962" style="mask-type:alpha" maskUnits="userSpaceOnUse" x="109" y="93" width="158" height="91">
<path d="M243.591 106.576C212.883 89.0747 163.171 89.2135 132.561 106.886C101.952 124.558 102.032 153.075 132.74 170.576C163.447 188.077 213.159 187.938 243.768 170.266C274.378 152.593 274.299 124.077 243.591 106.576Z" fill="url(#paint64_linear_1043_8962)"/>
<path d="M243.591 106.576C212.883 89.0747 163.171 89.2135 132.561 106.886C101.952 124.558 102.032 153.075 132.74 170.576C163.447 188.077 213.159 187.938 243.768 170.266C274.378 152.593 274.299 124.077 243.591 106.576Z" fill="white"/>
</mask>
<g mask="url(#mask0_1043_8962)">
<g clip-path="url(#clip31_1043_8962)">
<rect width="128" height="128" transform="matrix(0.866025 -0.5 0.868804 0.495155 77.1362 138.886)" fill="white"/>
<path d="M243.769 170.266C274.38 152.593 274.3 124.078 243.591 106.576C212.882 89.0739 163.173 89.2127 132.562 106.886C101.951 124.559 102.031 153.074 132.74 170.576C163.449 188.078 213.158 187.939 243.769 170.266Z" fill="white"/>
<mask id="mask1_1043_8962" style="mask-type:alpha" maskUnits="userSpaceOnUse" x="119" y="100" width="135" height="78">
<path d="M119.509 132.979L174.935 100.979L253.707 145.873L198.281 177.873L119.509 132.979Z" fill="white"/>
</mask>
<g mask="url(#mask1_1043_8962)">
<path fill-rule="evenodd" clip-rule="evenodd" d="M193.777 126.29C199.694 131.718 184.715 135.873 180.166 137.397L169.705 127.804C174.254 126.28 187.603 120.629 193.777 126.29L193.777 126.29ZM213.8 139.957C220.311 145.922 202.439 150.984 196.981 152.817L185.447 142.239C190.911 140.41 207.015 133.735 213.801 139.957L213.8 139.957ZM206.458 119.11C199.334 113.727 189.015 114.58 178.021 117.522L169.413 109.628L161.355 112.329L169.738 120.014C167.619 120.724 165.481 121.475 163.357 122.221L154.921 114.485L146.868 117.183L155.471 125.075C153.75 125.681 152.058 126.275 150.388 126.835L150.36 126.811L139.243 130.532L144.842 135.663C144.842 135.663 150.719 133.602 150.691 133.7C153.955 132.607 156.25 133.381 157.623 134.252L167.43 143.244L167.468 143.278L181.205 155.876C181.73 156.537 182.191 157.716 179.913 158.482C180.076 158.502 174.055 160.444 174.055 160.444L178.711 166.719L189.198 163.205C191.151 162.552 193.093 161.929 194.986 161.303L203.696 169.286L211.746 166.589L203.131 158.69C205.371 157.977 207.521 157.271 209.608 156.57L218.179 164.433L226.237 161.732L217.548 153.762C230.591 148.759 237.853 143.547 230.757 135.567C225.046 129.141 217.256 128.03 208.365 129.506C211.49 126.522 211.686 123.044 206.461 119.109L206.457 119.109L206.458 119.11Z" fill="#F7931A"/>
</g>
</g>
</g>
</g>
<defs>
<linearGradient id="paint0_linear_1043_8962" x1="181.757" y1="471.468" x2="154.259" y2="569.698" gradientUnits="userSpaceOnUse">
<stop stop-color="#F7931A"/>
<stop offset="1" stop-color="#A86412"/>
</linearGradient>
<linearGradient id="paint1_linear_1043_8962" x1="181.756" y1="397.906" x2="113.223" y2="543.635" gradientUnits="userSpaceOnUse">
<stop stop-color="#F7931A"/>
<stop offset="1" stop-color="#A86412"/>
</linearGradient>
<linearGradient id="paint2_linear_1043_8962" x1="187.757" y1="463.468" x2="160.259" y2="561.698" gradientUnits="userSpaceOnUse">
<stop stop-color="#F7931A"/>
<stop offset="1" stop-color="#A86412"/>
</linearGradient>
<linearGradient id="paint3_linear_1043_8962" x1="187.756" y1="389.906" x2="119.223" y2="535.635" gradientUnits="userSpaceOnUse">
<stop stop-color="#F7931A"/>
<stop offset="1" stop-color="#A86412"/>
</linearGradient>
<linearGradient id="paint4_linear_1043_8962" x1="191.757" y1="447.468" x2="164.259" y2="545.698" gradientUnits="userSpaceOnUse">
<stop stop-color="#F7931A"/>
<stop offset="1" stop-color="#A86412"/>
</linearGradient>
<linearGradient id="paint5_linear_1043_8962" x1="191.756" y1="373.906" x2="123.223" y2="519.635" gradientUnits="userSpaceOnUse">
<stop stop-color="#F7931A"/>
<stop offset="1" stop-color="#A86412"/>
</linearGradient>
<linearGradient id="paint6_linear_1043_8962" x1="185.757" y1="431.468" x2="158.259" y2="529.698" gradientUnits="userSpaceOnUse">
<stop stop-color="#F7931A"/>
<stop offset="1" stop-color="#A86412"/>
</linearGradient>
<linearGradient id="paint7_linear_1043_8962" x1="185.756" y1="357.906" x2="117.223" y2="503.635" gradientUnits="userSpaceOnUse">
<stop stop-color="#F7931A"/>
<stop offset="1" stop-color="#A86412"/>
</linearGradient>
<linearGradient id="paint8_linear_1043_8962" x1="183.757" y1="423.468" x2="156.259" y2="521.698" gradientUnits="userSpaceOnUse">
<stop stop-color="#F7931A"/>
<stop offset="1" stop-color="#A86412"/>
</linearGradient>
<linearGradient id="paint9_linear_1043_8962" x1="183.756" y1="349.906" x2="115.223" y2="495.635" gradientUnits="userSpaceOnUse">
<stop stop-color="#F7931A"/>
<stop offset="1" stop-color="#A86412"/>
</linearGradient>
<linearGradient id="paint10_linear_1043_8962" x1="197.757" y1="415.468" x2="170.259" y2="513.698" gradientUnits="userSpaceOnUse">
<stop stop-color="#F7931A"/>
<stop offset="1" stop-color="#A86412"/>
</linearGradient>
<linearGradient id="paint11_linear_1043_8962" x1="197.756" y1="341.906" x2="129.223" y2="487.635" gradientUnits="userSpaceOnUse">
<stop stop-color="#F7931A"/>
<stop offset="1" stop-color="#A86412"/>
</linearGradient>
<linearGradient id="paint12_linear_1043_8962" x1="183.757" y1="400.468" x2="156.259" y2="498.698" gradientUnits="userSpaceOnUse">
<stop stop-color="#F7931A"/>
<stop offset="1" stop-color="#A86412"/>
</linearGradient>
<linearGradient id="paint13_linear_1043_8962" x1="183.756" y1="326.906" x2="115.223" y2="472.635" gradientUnits="userSpaceOnUse">
<stop stop-color="#F7931A"/>
<stop offset="1" stop-color="#A86412"/>
</linearGradient>
<linearGradient id="paint14_linear_1043_8962" x1="189.757" y1="388.468" x2="162.259" y2="486.698" gradientUnits="userSpaceOnUse">
<stop stop-color="#F7931A"/>
<stop offset="1" stop-color="#A86412"/>
</linearGradient>
<linearGradient id="paint15_linear_1043_8962" x1="189.756" y1="314.906" x2="121.223" y2="460.635" gradientUnits="userSpaceOnUse">
<stop stop-color="#F7931A"/>
<stop offset="1" stop-color="#A86412"/>
</linearGradient>
<linearGradient id="paint16_linear_1043_8962" x1="181.757" y1="379.468" x2="154.259" y2="477.698" gradientUnits="userSpaceOnUse">
<stop stop-color="#F7931A"/>
<stop offset="1" stop-color="#A86412"/>
</linearGradient>
<linearGradient id="paint17_linear_1043_8962" x1="181.756" y1="305.906" x2="113.223" y2="451.635" gradientUnits="userSpaceOnUse">
<stop stop-color="#F7931A"/>
<stop offset="1" stop-color="#A86412"/>
</linearGradient>
<linearGradient id="paint18_linear_1043_8962" x1="197.757" y1="363.468" x2="170.259" y2="461.698" gradientUnits="userSpaceOnUse">
<stop stop-color="#F7931A"/>
<stop offset="1" stop-color="#A86412"/>
</linearGradient>
<linearGradient id="paint19_linear_1043_8962" x1="197.756" y1="289.906" x2="129.223" y2="435.635" gradientUnits="userSpaceOnUse">
<stop stop-color="#F7931A"/>
<stop offset="1" stop-color="#A86412"/>
</linearGradient>
<linearGradient id="paint20_linear_1043_8962" x1="183.757" y1="356.468" x2="156.259" y2="454.698" gradientUnits="userSpaceOnUse">
<stop stop-color="#F7931A"/>
<stop offset="1" stop-color="#A86412"/>
</linearGradient>
<linearGradient id="paint21_linear_1043_8962" x1="183.756" y1="282.906" x2="115.223" y2="428.635" gradientUnits="userSpaceOnUse">
<stop stop-color="#F7931A"/>
<stop offset="1" stop-color="#A86412"/>
</linearGradient>
<linearGradient id="paint22_linear_1043_8962" x1="187.757" y1="340.468" x2="160.259" y2="438.698" gradientUnits="userSpaceOnUse">
<stop stop-color="#F7931A"/>
<stop offset="1" stop-color="#A86412"/>
</linearGradient>
<linearGradient id="paint23_linear_1043_8962" x1="187.756" y1="266.906" x2="119.223" y2="412.635" gradientUnits="userSpaceOnUse">
<stop stop-color="#F7931A"/>
<stop offset="1" stop-color="#A86412"/>
</linearGradient>
<linearGradient id="paint24_linear_1043_8962" x1="190.757" y1="325.468" x2="163.259" y2="423.698" gradientUnits="userSpaceOnUse">
<stop stop-color="#F7931A"/>
<stop offset="1" stop-color="#A86412"/>
</linearGradient>
<linearGradient id="paint25_linear_1043_8962" x1="190.756" y1="251.906" x2="122.223" y2="397.635" gradientUnits="userSpaceOnUse">
<stop stop-color="#F7931A"/>
<stop offset="1" stop-color="#A86412"/>
</linearGradient>
<linearGradient id="paint26_linear_1043_8962" x1="181.757" y1="309.468" x2="154.259" y2="407.698" gradientUnits="userSpaceOnUse">
<stop stop-color="#F7931A"/>
<stop offset="1" stop-color="#A86412"/>
</linearGradient>
<linearGradient id="paint27_linear_1043_8962" x1="181.756" y1="235.906" x2="113.223" y2="381.635" gradientUnits="userSpaceOnUse">
<stop stop-color="#F7931A"/>
<stop offset="1" stop-color="#A86412"/>
</linearGradient>
<linearGradient id="paint28_linear_1043_8962" x1="193.757" y1="304.468" x2="166.259" y2="402.698" gradientUnits="userSpaceOnUse">
<stop stop-color="#F7931A"/>
<stop offset="1" stop-color="#A86412"/>
</linearGradient>
<linearGradient id="paint29_linear_1043_8962" x1="193.756" y1="230.906" x2="125.223" y2="376.635" gradientUnits="userSpaceOnUse">
<stop stop-color="#F7931A"/>
<stop offset="1" stop-color="#A86412"/>
</linearGradient>
<linearGradient id="paint30_linear_1043_8962" x1="187.757" y1="293.468" x2="160.259" y2="391.698" gradientUnits="userSpaceOnUse">
<stop stop-color="#F7931A"/>
<stop offset="1" stop-color="#A86412"/>
</linearGradient>
<linearGradient id="paint31_linear_1043_8962" x1="187.756" y1="219.906" x2="119.223" y2="365.635" gradientUnits="userSpaceOnUse">
<stop stop-color="#F7931A"/>
<stop offset="1" stop-color="#A86412"/>
</linearGradient>
<linearGradient id="paint32_linear_1043_8962" x1="184.757" y1="279.468" x2="157.259" y2="377.698" gradientUnits="userSpaceOnUse">
<stop stop-color="#F7931A"/>
<stop offset="1" stop-color="#A86412"/>
</linearGradient>
<linearGradient id="paint33_linear_1043_8962" x1="184.756" y1="205.906" x2="116.223" y2="351.635" gradientUnits="userSpaceOnUse">
<stop stop-color="#F7931A"/>
<stop offset="1" stop-color="#A86412"/>
</linearGradient>
<linearGradient id="paint34_linear_1043_8962" x1="187.757" y1="265.468" x2="160.259" y2="363.698" gradientUnits="userSpaceOnUse">
<stop stop-color="#F7931A"/>
<stop offset="1" stop-color="#A86412"/>
</linearGradient>
<linearGradient id="paint35_linear_1043_8962" x1="187.756" y1="191.906" x2="119.223" y2="337.635" gradientUnits="userSpaceOnUse">
<stop stop-color="#F7931A"/>
<stop offset="1" stop-color="#A86412"/>
</linearGradient>
<linearGradient id="paint36_linear_1043_8962" x1="191.757" y1="257.468" x2="164.259" y2="355.698" gradientUnits="userSpaceOnUse">
<stop stop-color="#F7931A"/>
<stop offset="1" stop-color="#A86412"/>
</linearGradient>
<linearGradient id="paint37_linear_1043_8962" x1="191.756" y1="183.906" x2="123.223" y2="329.635" gradientUnits="userSpaceOnUse">
<stop stop-color="#F7931A"/>
<stop offset="1" stop-color="#A86412"/>
</linearGradient>
<linearGradient id="paint38_linear_1043_8962" x1="184.757" y1="243.468" x2="157.259" y2="341.698" gradientUnits="userSpaceOnUse">
<stop stop-color="#F7931A"/>
<stop offset="1" stop-color="#A86412"/>
</linearGradient>
<linearGradient id="paint39_linear_1043_8962" x1="184.756" y1="169.906" x2="116.223" y2="315.635" gradientUnits="userSpaceOnUse">
<stop stop-color="#F7931A"/>
<stop offset="1" stop-color="#A86412"/>
</linearGradient>
<linearGradient id="paint40_linear_1043_8962" x1="187.757" y1="235.468" x2="160.259" y2="333.698" gradientUnits="userSpaceOnUse">
<stop stop-color="#F7931A"/>
<stop offset="1" stop-color="#A86412"/>
</linearGradient>
<linearGradient id="paint41_linear_1043_8962" x1="187.756" y1="161.906" x2="119.223" y2="307.635" gradientUnits="userSpaceOnUse">
<stop stop-color="#F7931A"/>
<stop offset="1" stop-color="#A86412"/>
</linearGradient>
<linearGradient id="paint42_linear_1043_8962" x1="190.757" y1="218.468" x2="163.259" y2="316.698" gradientUnits="userSpaceOnUse">
<stop stop-color="#F7931A"/>
<stop offset="1" stop-color="#A86412"/>
</linearGradient>
<linearGradient id="paint43_linear_1043_8962" x1="190.756" y1="144.906" x2="122.223" y2="290.635" gradientUnits="userSpaceOnUse">
<stop stop-color="#F7931A"/>
<stop offset="1" stop-color="#A86412"/>
</linearGradient>
<linearGradient id="paint44_linear_1043_8962" x1="184.757" y1="207.468" x2="157.259" y2="305.698" gradientUnits="userSpaceOnUse">
<stop stop-color="#F7931A"/>
<stop offset="1" stop-color="#A86412"/>
</linearGradient>
<linearGradient id="paint45_linear_1043_8962" x1="184.756" y1="133.906" x2="116.223" y2="279.635" gradientUnits="userSpaceOnUse">
<stop stop-color="#F7931A"/>
<stop offset="1" stop-color="#A86412"/>
</linearGradient>
<linearGradient id="paint46_linear_1043_8962" x1="187.757" y1="193.468" x2="160.259" y2="291.698" gradientUnits="userSpaceOnUse">
<stop stop-color="#F7931A"/>
<stop offset="1" stop-color="#A86412"/>
</linearGradient>
<linearGradient id="paint47_linear_1043_8962" x1="187.756" y1="119.906" x2="119.223" y2="265.635" gradientUnits="userSpaceOnUse">
<stop stop-color="#F7931A"/>
<stop offset="1" stop-color="#A86412"/>
</linearGradient>
<linearGradient id="paint48_linear_1043_8962" x1="190.757" y1="185.468" x2="163.259" y2="283.698" gradientUnits="userSpaceOnUse">
<stop stop-color="#F7931A"/>
<stop offset="1" stop-color="#A86412"/>
</linearGradient>
<linearGradient id="paint49_linear_1043_8962" x1="190.756" y1="111.906" x2="122.223" y2="257.635" gradientUnits="userSpaceOnUse">
<stop stop-color="#F7931A"/>
<stop offset="1" stop-color="#A86412"/>
</linearGradient>
<linearGradient id="paint50_linear_1043_8962" x1="181.757" y1="172.468" x2="154.259" y2="270.698" gradientUnits="userSpaceOnUse">
<stop stop-color="#F7931A"/>
<stop offset="1" stop-color="#A86412"/>
</linearGradient>
<linearGradient id="paint51_linear_1043_8962" x1="181.756" y1="98.9061" x2="113.223" y2="244.635" gradientUnits="userSpaceOnUse">
<stop stop-color="#F7931A"/>
<stop offset="1" stop-color="#A86412"/>
</linearGradient>
<linearGradient id="paint52_linear_1043_8962" x1="191.757" y1="160.468" x2="164.259" y2="258.698" gradientUnits="userSpaceOnUse">
<stop stop-color="#F7931A"/>
<stop offset="1" stop-color="#A86412"/>
</linearGradient>
<linearGradient id="paint53_linear_1043_8962" x1="191.756" y1="86.9061" x2="123.223" y2="232.635" gradientUnits="userSpaceOnUse">
<stop stop-color="#F7931A"/>
<stop offset="1" stop-color="#A86412"/>
</linearGradient>
<linearGradient id="paint54_linear_1043_8962" x1="186.757" y1="146.468" x2="159.259" y2="244.698" gradientUnits="userSpaceOnUse">
<stop stop-color="#F7931A"/>
<stop offset="1" stop-color="#A86412"/>
</linearGradient>
<linearGradient id="paint55_linear_1043_8962" x1="186.756" y1="72.9061" x2="118.223" y2="218.635" gradientUnits="userSpaceOnUse">
<stop stop-color="#F7931A"/>
<stop offset="1" stop-color="#A86412"/>
</linearGradient>
<linearGradient id="paint56_linear_1043_8962" x1="191.757" y1="141.468" x2="164.259" y2="239.698" gradientUnits="userSpaceOnUse">
<stop stop-color="#F7931A"/>
<stop offset="1" stop-color="#A86412"/>
</linearGradient>
<linearGradient id="paint57_linear_1043_8962" x1="191.756" y1="67.9061" x2="123.223" y2="213.635" gradientUnits="userSpaceOnUse">
<stop stop-color="#F7931A"/>
<stop offset="1" stop-color="#A86412"/>
</linearGradient>
<linearGradient id="paint58_linear_1043_8962" x1="187.757" y1="123.468" x2="160.259" y2="221.698" gradientUnits="userSpaceOnUse">
<stop stop-color="#F7931A"/>
<stop offset="1" stop-color="#A86412"/>
</linearGradient>
<linearGradient id="paint59_linear_1043_8962" x1="187.756" y1="49.9061" x2="119.223" y2="195.635" gradientUnits="userSpaceOnUse">
<stop stop-color="#F7931A"/>
<stop offset="1" stop-color="#A86412"/>
</linearGradient>
<linearGradient id="paint60_linear_1043_8962" x1="187.757" y1="123.468" x2="160.259" y2="221.698" gradientUnits="userSpaceOnUse">
<stop stop-color="#F7931A"/>
<stop offset="1" stop-color="#A86412"/>
</linearGradient>
<linearGradient id="paint61_linear_1043_8962" x1="187.756" y1="49.9061" x2="119.223" y2="195.635" gradientUnits="userSpaceOnUse">
<stop stop-color="#F7931A"/>
<stop offset="1" stop-color="#A86412"/>
</linearGradient>
<linearGradient id="paint62_linear_1043_8962" x1="188.223" y1="218.902" x2="248.826" y2="87.1872" gradientUnits="userSpaceOnUse">
<stop stop-color="#F7931A"/>
<stop offset="1" stop-color="#A86412"/>
</linearGradient>
<linearGradient id="paint63_linear_1043_8962" x1="187.799" y1="67.5833" x2="133.837" y2="185.548" gradientUnits="userSpaceOnUse">
<stop stop-color="#F7931A"/>
<stop offset="1" stop-color="#A86412"/>
</linearGradient>
<linearGradient id="paint64_linear_1043_8962" x1="95.9224" y1="142.112" x2="276.043" y2="124.631" gradientUnits="userSpaceOnUse">
<stop stop-color="#00E599"/>
<stop offset="1" stop-color="#00AF92"/>
</linearGradient>
<clipPath id="clip0_1043_8962">
<rect width="216" height="138" fill="white" transform="translate(74 424)"/>
</clipPath>
<clipPath id="clip1_1043_8962">
<rect width="216" height="138" fill="white" transform="translate(80 416)"/>
</clipPath>
<clipPath id="clip2_1043_8962">
<rect width="216" height="138" fill="white" transform="translate(84 400)"/>
</clipPath>
<clipPath id="clip3_1043_8962">
<rect width="216" height="138" fill="white" transform="translate(78 384)"/>
</clipPath>
<clipPath id="clip4_1043_8962">
<rect width="216" height="138" fill="white" transform="translate(76 376)"/>
</clipPath>
<clipPath id="clip5_1043_8962">
<rect width="216" height="138" fill="white" transform="translate(90 368)"/>
</clipPath>
<clipPath id="clip6_1043_8962">
<rect width="216" height="138" fill="white" transform="translate(76 353)"/>
</clipPath>
<clipPath id="clip7_1043_8962">
<rect width="216" height="138" fill="white" transform="translate(82 341)"/>
</clipPath>
<clipPath id="clip8_1043_8962">
<rect width="216" height="138" fill="white" transform="translate(74 332)"/>
</clipPath>
<clipPath id="clip9_1043_8962">
<rect width="216" height="138" fill="white" transform="translate(90 316)"/>
</clipPath>
<clipPath id="clip10_1043_8962">
<rect width="216" height="138" fill="white" transform="translate(76 309)"/>
</clipPath>
<clipPath id="clip11_1043_8962">
<rect width="216" height="138" fill="white" transform="translate(80 293)"/>
</clipPath>
<clipPath id="clip12_1043_8962">
<rect width="216" height="138" fill="white" transform="translate(83 278)"/>
</clipPath>
<clipPath id="clip13_1043_8962">
<rect width="216" height="138" fill="white" transform="translate(74 262)"/>
</clipPath>
<clipPath id="clip14_1043_8962">
<rect width="216" height="138" fill="white" transform="translate(86 257)"/>
</clipPath>
<clipPath id="clip15_1043_8962">
<rect width="216" height="138" fill="white" transform="translate(80 246)"/>
</clipPath>
<clipPath id="clip16_1043_8962">
<rect width="216" height="138" fill="white" transform="translate(77 232)"/>
</clipPath>
<clipPath id="clip17_1043_8962">
<rect width="216" height="138" fill="white" transform="translate(80 218)"/>
</clipPath>
<clipPath id="clip18_1043_8962">
<rect width="216" height="138" fill="white" transform="translate(84 210)"/>
</clipPath>
<clipPath id="clip19_1043_8962">
<rect width="216" height="138" fill="white" transform="translate(77 196)"/>
</clipPath>
<clipPath id="clip20_1043_8962">
<rect width="216" height="138" fill="white" transform="translate(80 188)"/>
</clipPath>
<clipPath id="clip21_1043_8962">
<rect width="216" height="138" fill="white" transform="translate(83 171)"/>
</clipPath>
<clipPath id="clip22_1043_8962">
<rect width="216" height="138" fill="white" transform="translate(77 160)"/>
</clipPath>
<clipPath id="clip23_1043_8962">
<rect width="216" height="138" fill="white" transform="translate(80 146)"/>
</clipPath>
<clipPath id="clip24_1043_8962">
<rect width="216" height="138" fill="white" transform="translate(83 138)"/>
</clipPath>
<clipPath id="clip25_1043_8962">
<rect width="216" height="138" fill="white" transform="translate(74 125)"/>
</clipPath>
<clipPath id="clip26_1043_8962">
<rect width="216" height="138" fill="white" transform="translate(84 113)"/>
</clipPath>
<clipPath id="clip27_1043_8962">
<rect width="216" height="138" fill="white" transform="translate(79 99)"/>
</clipPath>
<clipPath id="clip28_1043_8962">
<rect width="216" height="138" fill="white" transform="translate(84 94)"/>
</clipPath>
<clipPath id="clip29_1043_8962">
<rect width="216" height="138" fill="white" transform="translate(80 76)"/>
</clipPath>
<clipPath id="clip30_1043_8962">
<rect width="216" height="138" fill="white" transform="translate(80 76)"/>
</clipPath>
<clipPath id="clip31_1043_8962">
<rect width="128" height="128" fill="white" transform="matrix(0.866025 -0.5 0.868804 0.495155 77.1362 138.886)"/>
</clipPath>
</defs>
</svg>
