<svg width="160" height="160" viewBox="0 0 160 160" fill="none" xmlns="http://www.w3.org/2000/svg">
<path d="M160 80C160 35.8164 124.183 0 79.9987 0C35.8167 0 0 35.8164 0 80C0 124.181 35.8167 160 79.9987 160C124.183 160 160 124.181 160 80Z" fill="url(#paint0_linear_1043_21694)"/>
<path d="M8.00048 80C8.00049 119.765 40.2368 152 80.0018 152C119.767 152 152 119.765 152 80C152 40.2346 119.767 8 80.0018 8.00001C40.2368 8.00001 8.00048 40.2346 8.00048 80Z" fill="url(#paint1_linear_1043_21694)"/>
<path d="M144 80C144 44.6531 115.347 16 79.999 16C44.6534 16 16 44.6531 16 80C16 115.345 44.6534 144 79.999 144C115.347 144 144 115.345 144 80Z" fill="url(#paint2_linear_1043_21694)"/>
<path d="M144 80C144 44.6531 115.347 16 79.999 16C44.6534 16 16 44.6531 16 80C16 115.345 44.6534 144 79.999 144C115.347 144 144 115.345 144 80Z" fill="white" fill-opacity="0.64"/>
<mask id="mask0_1043_21694" style="mask-type:alpha" maskUnits="userSpaceOnUse" x="24" y="24" width="112" height="112">
<path d="M136 80C136 49.0734 110.927 24 79.9989 24C49.0733 24 24 49.0734 24 80C24 110.927 49.0733 136 79.9989 136C110.927 136 136 110.927 136 80Z" fill="url(#paint3_linear_1043_21694)"/>
<path d="M136 80C136 49.0734 110.927 24 79.9989 24C49.0733 24 24 49.0734 24 80C24 110.927 49.0733 136 79.9989 136C110.927 136 136 110.927 136 80Z" fill="white"/>
</mask>
<g mask="url(#mask0_1043_21694)">
<g clip-path="url(#clip0_1043_21694)">
<rect width="112" height="112" transform="translate(24 24)" fill="white"/>
<path d="M80 136C110.928 136 136 110.928 136 80C136 49.0721 110.928 24 80 24C49.0721 24 24 49.0721 24 80C24 110.928 49.0721 136 80 136Z" fill="white"/>
<mask id="mask1_1043_21694" style="mask-type:alpha" maskUnits="userSpaceOnUse" x="50" y="40" width="57" height="80">
<path d="M50.4697 40.29H106.47V119.623H50.4697V40.29Z" fill="white"/>
</mask>
<g mask="url(#mask1_1043_21694)">
<path fill-rule="evenodd" clip-rule="evenodd" d="M93.636 72.059C91.8253 79.8232 80.6485 75.8787 77.0229 74.9115L80.2205 61.1881C83.8462 62.1553 95.5222 63.9606 93.6365 72.059H93.636ZM91.6496 94.2052C89.6647 102.741 76.2362 98.1268 71.8824 96.9698L75.4093 81.8383C79.7628 83.0015 93.7241 85.3034 91.6499 94.2052H91.6496ZM106.324 72.1828C107.489 63.8466 101.559 59.3657 93.45 56.3765L96.0806 45.0845L89.6579 43.3717L87.0971 54.3665C85.4085 53.9157 83.6745 53.491 81.9511 53.0701L84.5305 42.0028L78.1117 40.29L75.4797 51.5783C74.0825 51.2378 72.7101 50.9013 71.3786 50.5467L71.386 50.5114L62.529 48.1442L60.8203 55.4857C60.8203 55.4857 65.5856 56.6548 65.4851 56.7268C68.0859 57.4215 68.5563 59.2641 68.4782 60.7246L65.4816 73.5887L65.4706 73.6383L61.2704 91.6593C60.9525 92.5049 60.1458 93.7741 58.3274 93.2921C58.3918 93.392 53.6593 92.0454 53.6593 92.0454L50.4705 99.9135L58.8286 102.144C60.3835 102.561 61.9072 102.997 63.4078 103.408L60.7501 114.83L67.1653 116.542L69.7973 105.242C71.5499 105.751 73.2508 106.221 74.9159 106.664L72.2926 117.911L78.7157 119.623L81.3733 108.223C92.3253 110.442 100.561 109.547 104.027 98.9455C106.82 90.4097 103.888 85.4864 98.1258 82.2757C102.323 81.2399 105.484 78.286 106.326 72.1837L106.324 72.1822L106.324 72.1828Z" fill="#F7931A"/>
</g>
</g>
</g>
<defs>
<linearGradient id="paint0_linear_1043_21694" x1="160" y1="-0.00063818" x2="-14.7107" y2="18.113" gradientUnits="userSpaceOnUse">
<stop stop-color="#F7931A"/>
<stop offset="1" stop-color="#A86412"/>
</linearGradient>
<linearGradient id="paint1_linear_1043_21694" x1="8.00055" y1="152.001" x2="165.24" y2="135.698" gradientUnits="userSpaceOnUse">
<stop stop-color="#F7931A"/>
<stop offset="1" stop-color="#A86412"/>
</linearGradient>
<linearGradient id="paint2_linear_1043_21694" x1="144" y1="15.9995" x2="4.23144" y2="30.4904" gradientUnits="userSpaceOnUse">
<stop stop-color="#F7931A"/>
<stop offset="1" stop-color="#A86412"/>
</linearGradient>
<linearGradient id="paint3_linear_1043_21694" x1="30.5882" y1="36.3529" x2="126.941" y2="122.824" gradientUnits="userSpaceOnUse">
<stop stop-color="#00E599"/>
<stop offset="1" stop-color="#00AF92"/>
</linearGradient>
<clipPath id="clip0_1043_21694">
<rect width="112" height="112" fill="white" transform="translate(24 24)"/>
</clipPath>
</defs>
</svg>
