<svg width="160" height="160" viewBox="0 0 160 160" fill="none" xmlns="http://www.w3.org/2000/svg">
<rect y="0.00434875" width="160" height="160" rx="80" fill="white"/>
<path d="M160 80C160 35.8164 124.183 0 79.9987 0C35.8167 0 0 35.8164 0 80C0 124.181 35.8167 160 79.9987 160C124.183 160 160 124.181 160 80Z" fill="white"/>
<mask id="mask0_1043_21851" style="mask-type:alpha" maskUnits="userSpaceOnUse" x="8" y="8" width="144" height="144">
<path d="M151.111 80C151.111 40.7281 119.272 8.88889 79.9986 8.88889C40.728 8.88889 8.88892 40.7281 8.88892 80C8.88892 119.272 40.728 151.111 79.9986 151.111C119.272 151.111 151.111 119.272 151.111 80Z" fill="url(#paint0_linear_1043_21851)"/>
<path d="M151.111 80C151.111 40.7281 119.272 8.88889 79.9986 8.88889C40.728 8.88889 8.88892 40.7281 8.88892 80C8.88892 119.272 40.728 151.111 79.9986 151.111C119.272 151.111 151.111 119.272 151.111 80Z" fill="white"/>
</mask>
<g mask="url(#mask0_1043_21851)">
<g clip-path="url(#clip0_1043_21851)">
<rect width="142.222" height="142.222" transform="translate(8.88892 8.88889)" fill="white"/>
<path d="M80 151.111C119.274 151.111 151.111 119.274 151.111 80C151.111 40.7264 119.274 8.88889 80 8.88889C40.7264 8.88889 8.88892 40.7264 8.88892 80C8.88892 119.274 40.7264 151.111 80 151.111Z" fill="white"/>
<mask id="mask1_1043_21851" style="mask-type:alpha" maskUnits="userSpaceOnUse" x="42" y="29" width="72" height="102">
<path d="M42.5015 29.5746H113.613V130.315H42.5015V29.5746Z" fill="white"/>
</mask>
<g mask="url(#mask1_1043_21851)">
<path fill-rule="evenodd" clip-rule="evenodd" d="M97.3155 69.9162C95.0163 79.7754 80.8236 74.7667 76.2195 73.5384L80.2801 56.1118C84.8841 57.34 99.7107 59.6325 97.3162 69.9162H97.3155ZM94.7932 98.0383C92.2726 108.877 75.2205 103.018 69.692 101.549L74.1706 82.3344C79.6988 83.8114 97.4274 86.7344 94.7936 98.0383H94.7932ZM113.428 70.0734C114.907 59.4878 107.376 53.7977 97.0794 50.0019L100.42 35.6629L92.264 33.4879L89.0122 47.4495C86.8679 46.8771 84.6661 46.3377 82.4776 45.8032L85.7531 31.7496L77.6022 29.5746L74.2599 43.909C72.4857 43.4766 70.743 43.0493 69.0522 42.599L69.0617 42.5541L57.8146 39.5481L55.6449 48.8708C55.6449 48.8708 61.696 50.3553 61.5684 50.4467C64.8711 51.3288 65.4683 53.6686 65.3691 55.5233L61.564 71.8586L61.55 71.9217L56.2164 94.8054C55.8128 95.8793 54.7883 97.4909 52.4793 96.8789C52.561 97.0057 46.5515 95.2957 46.5515 95.2957L42.5022 105.287L53.1158 108.119C55.0902 108.649 57.0251 109.203 58.9306 109.724L55.5557 124.228L63.702 126.403L67.0443 112.054C69.2697 112.7 71.4296 113.296 73.544 113.859L70.2129 128.14L78.3692 130.315L81.7438 115.839C95.6513 118.656 106.109 117.52 110.51 104.058C114.057 93.2187 110.334 86.9668 103.017 82.8898C108.346 81.5745 112.36 77.8234 113.43 70.0746L113.428 70.0726L113.428 70.0734Z" fill="#F7931A"/>
</g>
</g>
</g>
<defs>
<linearGradient id="paint0_linear_1043_21851" x1="17.2549" y1="24.5752" x2="139.608" y2="134.379" gradientUnits="userSpaceOnUse">
<stop stop-color="#00E599"/>
<stop offset="1" stop-color="#00AF92"/>
</linearGradient>
<clipPath id="clip0_1043_21851">
<rect width="142.222" height="142.222" fill="white" transform="translate(8.88892 8.88889)"/>
</clipPath>
</defs>
</svg>
