<svg width="160" height="160" viewBox="0 0 160 160" fill="none" xmlns="http://www.w3.org/2000/svg">
<path d="M160 80C160 35.8164 124.183 0 79.9987 0C35.8167 0 0 35.8164 0 80C0 124.181 35.8167 160 79.9987 160C124.183 160 160 124.181 160 80Z" fill="url(#paint0_linear_1043_21616)"/>
<path d="M8.00048 80C8.00049 119.765 40.2368 152 80.0018 152C119.767 152 152 119.765 152 80C152 40.2346 119.767 8 80.0018 8.00001C40.2368 8.00001 8.00048 40.2346 8.00048 80Z" fill="url(#paint1_linear_1043_21616)"/>
<path d="M144 80C144 44.6531 115.347 16 79.999 16C44.6534 16 16 44.6531 16 80C16 115.345 44.6534 144 79.999 144C115.347 144 144 115.345 144 80Z" fill="url(#paint2_linear_1043_21616)"/>
<path d="M144 80C144 44.6531 115.347 16 79.999 16C44.6534 16 16 44.6531 16 80C16 115.345 44.6534 144 79.999 144C115.347 144 144 115.345 144 80Z" fill="white" fill-opacity="0.64"/>
<mask id="mask0_1043_21616" style="mask-type:alpha" maskUnits="userSpaceOnUse" x="24" y="24" width="112" height="112">
<path d="M136 80C136 49.0734 110.927 24 79.9989 24C49.0733 24 24 49.0734 24 80C24 110.927 49.0733 136 79.9989 136C110.927 136 136 110.927 136 80Z" fill="url(#paint3_linear_1043_21616)"/>
<path d="M136 80C136 49.0734 110.927 24 79.9989 24C49.0733 24 24 49.0734 24 80C24 110.927 49.0733 136 79.9989 136C110.927 136 136 110.927 136 80Z" fill="white"/>
</mask>
<g mask="url(#mask0_1043_21616)">
<g clip-path="url(#clip0_1043_21616)">
<rect width="112" height="112" transform="translate(24 24)" fill="white"/>
<path d="M80 136C110.928 136 136 110.928 136 80C136 49.0721 110.928 24 80 24C49.0721 24 24 49.0721 24 80C24 110.928 49.0721 136 80 136Z" fill="white"/>
<path opacity="0.25" d="M104.386 89.8843L84.2115 70.0619C83.0447 68.9154 81.5134 68.3481 79.9875 68.3594C78.4617 68.3524 76.932 68.9241 75.7684 70.0739L54.9163 90.679L47.2699 98.2212L61.1609 111.87L69.6576 120.218L80.0421 109.957L90.4557 120.189L90.6773 119.97L112.781 98.128L104.386 89.8843Z" fill="#122236"/>
<path opacity="0.5" d="M104.337 61.7596L84.1623 41.5339C82.9954 40.3641 81.4641 39.7852 79.9383 39.7967C78.4124 39.7896 76.8827 40.3728 75.7192 41.5459L54.8677 62.5691L47.2308 70.2689L61.1222 84.1953L69.619 92.7136L80.0032 82.2439L90.4172 92.684L90.6388 92.4605L112.741 70.1758L104.337 61.7596Z" fill="#122236"/>
<path d="M104.354 75.5071L84.1794 55.2814C83.0125 54.1116 81.4812 53.5327 79.9554 53.5442C78.4295 53.5371 76.8998 54.1203 75.7363 55.2934L54.8848 76.3166L47.2479 84.0164L61.1392 97.9428L69.6361 106.461L80.0203 95.9914L90.4342 106.431L90.6559 106.208L112.759 83.9233L104.354 75.5071ZM76.1822 82.762L69.4964 89.4982L64.0001 83.988L79.9665 67.89L95.9787 83.9425L90.3964 89.5707L83.5942 82.7515C81.5476 80.695 78.2277 80.6997 76.1822 82.762Z" fill="#122236"/>
</g>
</g>
<defs>
<linearGradient id="paint0_linear_1043_21616" x1="160" y1="-0.00063818" x2="-14.7107" y2="18.113" gradientUnits="userSpaceOnUse">
<stop stop-color="#6B7581"/>
<stop offset="1" stop-color="#494F58"/>
</linearGradient>
<linearGradient id="paint1_linear_1043_21616" x1="8.00055" y1="152.001" x2="165.24" y2="135.698" gradientUnits="userSpaceOnUse">
<stop stop-color="#6B7581"/>
<stop offset="1" stop-color="#494F58"/>
</linearGradient>
<linearGradient id="paint2_linear_1043_21616" x1="144" y1="15.9995" x2="4.23144" y2="30.4904" gradientUnits="userSpaceOnUse">
<stop stop-color="#6B7581"/>
<stop offset="1" stop-color="#494F58"/>
</linearGradient>
<linearGradient id="paint3_linear_1043_21616" x1="30.5882" y1="36.3529" x2="126.941" y2="122.824" gradientUnits="userSpaceOnUse">
<stop stop-color="#00E599"/>
<stop offset="1" stop-color="#00AF92"/>
</linearGradient>
<clipPath id="clip0_1043_21616">
<rect width="112" height="112" fill="white" transform="translate(24 24)"/>
</clipPath>
</defs>
</svg>
