<svg width="160" height="160" viewBox="0 0 160 160" fill="none" xmlns="http://www.w3.org/2000/svg">
<rect y="0.00434875" width="160" height="160" rx="80" fill="white"/>
<path d="M160 80C160 35.8164 124.183 0 79.9987 0C35.8167 0 0 35.8164 0 80C0 124.181 35.8167 160 79.9987 160C124.183 160 160 124.181 160 80Z" fill="white"/>
<mask id="mask0_1043_22009" style="mask-type:alpha" maskUnits="userSpaceOnUse" x="8" y="8" width="144" height="144">
<path d="M151.111 80C151.111 40.7281 119.272 8.88889 79.9984 8.88889C40.7278 8.88889 8.88867 40.7281 8.88867 80C8.88867 119.272 40.7278 151.111 79.9984 151.111C119.272 151.111 151.111 119.272 151.111 80Z" fill="url(#paint0_linear_1043_22009)"/>
<path d="M151.111 80C151.111 40.7281 119.272 8.88889 79.9984 8.88889C40.7278 8.88889 8.88867 40.7281 8.88867 80C8.88867 119.272 40.7278 151.111 79.9984 151.111C119.272 151.111 151.111 119.272 151.111 80Z" fill="white"/>
</mask>
<g mask="url(#mask0_1043_22009)">
<g clip-path="url(#clip0_1043_22009)">
<rect width="142.222" height="142.222" transform="translate(8.88867 8.88889)" fill="white"/>
<path d="M79.9998 151.111C119.273 151.111 151.111 119.274 151.111 80C151.111 40.7264 119.273 8.88889 79.9998 8.88889C40.7262 8.88889 8.88867 40.7264 8.88867 80C8.88867 119.274 40.7262 151.111 79.9998 151.111Z" fill="white"/>
<path opacity="0.25" d="M110.966 92.5515L85.3481 67.3802C83.8664 65.9244 81.9219 65.204 79.9843 65.2183C78.0466 65.2095 76.1042 65.9354 74.6266 67.3955L48.1478 93.5607L38.4381 103.138L56.0775 120.47L66.8669 131.071L80.0535 118.04L93.2771 131.033L93.5586 130.755L121.626 103.02L110.966 92.5515Z" fill="#122236"/>
<path opacity="0.5" d="M110.904 56.8379L85.2851 31.1545C83.8034 29.669 81.8589 28.9339 79.9213 28.9485C77.9837 28.9394 76.0412 29.6801 74.5637 31.1697L48.0856 57.8658L38.3879 67.6434L56.0278 85.3276L66.8175 96.1445L80.0038 82.8496L93.2278 96.1069L93.5092 95.8232L121.576 67.5251L110.904 56.8379Z" fill="#122236"/>
<path d="M110.926 74.2951L85.3071 48.6116C83.8254 47.1261 81.8809 46.391 79.9433 46.4056C78.0056 46.3965 76.0632 47.1372 74.5857 48.6269L48.1076 75.3229L38.4099 85.1005L56.0498 102.785L66.8395 113.602L80.0257 100.307L93.2498 113.564L93.5312 113.28L121.598 84.9822L110.926 74.2951ZM75.152 83.5076L66.6621 92.0614L59.6826 85.0644L79.9574 64.6226L100.29 85.0066L93.2017 92.1535L84.5641 83.4942C81.9651 80.8828 77.7494 80.8888 75.152 83.5076Z" fill="#122236"/>
</g>
</g>
<defs>
<linearGradient id="paint0_linear_1043_22009" x1="17.2547" y1="24.5752" x2="139.608" y2="134.379" gradientUnits="userSpaceOnUse">
<stop stop-color="#00E599"/>
<stop offset="1" stop-color="#00AF92"/>
</linearGradient>
<clipPath id="clip0_1043_22009">
<rect width="142.222" height="142.222" fill="white" transform="translate(8.88867 8.88889)"/>
</clipPath>
</defs>
</svg>
