<svg width="160" height="160" viewBox="0 0 160 160" fill="none" xmlns="http://www.w3.org/2000/svg">
<rect y="0.00434875" width="160" height="160" rx="80" fill="white"/>
<path d="M160 80C160 35.8164 124.183 0 79.9987 0C35.8167 0 0 35.8164 0 80C0 124.181 35.8167 160 79.9987 160C124.183 160 160 124.181 160 80Z" fill="white"/>
<mask id="mask0_1043_22048" style="mask-type:alpha" maskUnits="userSpaceOnUse" x="8" y="8" width="144" height="144">
<path d="M151.111 80C151.111 40.7281 119.272 8.88889 79.9984 8.88889C40.7278 8.88889 8.88867 40.7281 8.88867 80C8.88867 119.272 40.7278 151.111 79.9984 151.111C119.272 151.111 151.111 119.272 151.111 80Z" fill="url(#paint0_linear_1043_22048)"/>
<path d="M151.111 80C151.111 40.7281 119.272 8.88889 79.9984 8.88889C40.7278 8.88889 8.88867 40.7281 8.88867 80C8.88867 119.272 40.7278 151.111 79.9984 151.111C119.272 151.111 151.111 119.272 151.111 80Z" fill="white"/>
</mask>
<g mask="url(#mask0_1043_22048)">
<g clip-path="url(#clip0_1043_22048)">
<rect width="142.222" height="142.222" transform="translate(8.88867 8.88889)" fill="white"/>
<path d="M79.9998 151.111C119.273 151.111 151.111 119.274 151.111 80C151.111 40.7264 119.273 8.88889 79.9998 8.88889C40.7262 8.88889 8.88867 40.7264 8.88867 80C8.88867 119.274 40.7262 151.111 79.9998 151.111Z" fill="white"/>
<path d="M57.4121 45.5556H115.556V114.444L57.4121 55.6439V45.5556Z" fill="white"/>
<path fill-rule="evenodd" clip-rule="evenodd" d="M115.556 114.444V80.0007C115.556 71.1848 112.231 62.3696 105.58 55.6439C92.279 42.1928 70.7134 42.1928 57.4121 55.6439L115.556 114.444Z" fill="#48A3FF"/>
<path d="M44.4443 45.5556L102.589 104.356L102.589 114.444H44.4443V45.5556Z" fill="white"/>
<path fill-rule="evenodd" clip-rule="evenodd" d="M44.4443 45.5556L44.4443 80C44.4443 88.8152 47.7695 97.6307 54.4201 104.356C67.7214 117.807 89.2869 117.807 102.589 104.356L44.4443 45.5556Z" fill="#48A3FF"/>
</g>
</g>
<defs>
<linearGradient id="paint0_linear_1043_22048" x1="17.2547" y1="24.5752" x2="139.608" y2="134.379" gradientUnits="userSpaceOnUse">
<stop stop-color="#00E599"/>
<stop offset="1" stop-color="#00AF92"/>
</linearGradient>
<clipPath id="clip0_1043_22048">
<rect width="142.222" height="142.222" fill="white" transform="translate(8.88867 8.88889)"/>
</clipPath>
</defs>
</svg>
