<svg width="216" height="138" viewBox="0 0 216 138" fill="none" xmlns="http://www.w3.org/2000/svg">
<g clip-path="url(#clip0_1043_8215)">
<path d="M216.001 63L216.001 74.8733L216.001 75C215.912 91.021 205.412 107.048 184.49 119.331C142.382 144.053 73.9983 144.246 31.7561 119.764C10.4997 107.445 -0.0893974 91.2253 0.000568442 75V63H216.001Z" fill="url(#paint0_linear_1043_8215)"/>
<path d="M216.001 63L216.001 74.8733L216.001 75C215.912 91.021 205.412 107.048 184.49 119.331C142.382 144.053 73.9983 144.246 31.7561 119.764C10.4997 107.445 -0.0893974 91.2253 0.000568442 75V63H216.001Z" fill="black" fill-opacity="0.2"/>
<path d="M184.246 18.2363C142.001 -6.24717 73.6204 -6.05281 31.5097 18.6707C-10.5986 43.3928 -10.4894 83.281 31.7555 107.764C73.9977 132.246 142.381 132.053 184.489 107.331C226.6 82.6079 226.488 42.7181 184.246 18.2363Z" fill="url(#paint1_linear_1043_8215)"/>
<path d="M38.1084 103.146C76.8329 125.103 139.516 124.928 178.116 102.756C216.716 80.5842 216.615 44.8125 177.89 22.8551C139.166 0.8978 76.4855 1.0715 37.8854 23.2434C-0.71482 45.4153 -0.616108 81.1885 38.1084 103.146Z" fill="url(#paint2_linear_1043_8215)"/>
<path d="M170.832 27.1179C136.019 7.49225 79.6686 7.64805 44.9663 27.4661C10.2659 47.283 10.356 79.2569 45.1689 98.8825C79.9796 118.507 136.332 118.352 171.033 98.5354C205.735 78.7173 205.643 46.7422 170.832 27.1179Z" fill="url(#paint3_linear_1043_8215)"/>
<path d="M170.832 27.1179C136.019 7.49225 79.6686 7.64805 44.9663 27.4661C10.2659 47.283 10.356 79.2569 45.1689 98.8825C79.9796 118.507 136.332 118.352 171.033 98.5354C205.735 78.7173 205.643 46.7422 170.832 27.1179Z" fill="white" fill-opacity="0.64"/>
<mask id="mask0_1043_8215" style="mask-type:alpha" maskUnits="userSpaceOnUse" x="29" y="17" width="158" height="91">
<path d="M163.591 30.5758C132.883 13.0747 83.1714 13.2135 52.5608 30.8865C21.9523 48.5583 22.0321 77.0747 52.7397 94.5758C83.4473 112.077 133.159 111.938 163.768 94.2664C194.378 76.5933 194.299 48.0769 163.591 30.5758Z" fill="url(#paint4_linear_1043_8215)"/>
<path d="M163.591 30.5758C132.883 13.0747 83.1714 13.2135 52.5608 30.8865C21.9523 48.5583 22.0321 77.0747 52.7397 94.5758C83.4473 112.077 133.159 111.938 163.768 94.2664C194.378 76.5933 194.299 48.0769 163.591 30.5758Z" fill="white"/>
</mask>
<g mask="url(#mask0_1043_8215)">
<g clip-path="url(#clip1_1043_8215)">
<rect width="128" height="128" transform="matrix(0.866025 -0.5 0.868804 0.495155 -2.86377 62.8859)" fill="white"/>
<path d="M163.769 94.2658C194.38 76.5926 194.3 48.0777 163.591 30.5758C132.882 13.0739 83.1726 13.2127 52.5619 30.8859C21.9511 48.559 22.0308 77.0739 52.7397 94.5758C83.4487 112.078 133.158 111.939 163.769 94.2658Z" fill="white"/>
<path fill-rule="evenodd" clip-rule="evenodd" d="M108.078 30.73L163.681 62.42L152.843 68.6778L116.639 48.0441L116.754 89.4072L99.7297 89.4547L99.6142 48.0916L63.5259 68.9272L52.6523 62.73L108.078 30.73Z" fill="#063C4F"/>
</g>
</g>
</g>
<defs>
<linearGradient id="paint0_linear_1043_8215" x1="107.757" y1="47.4678" x2="80.2592" y2="145.698" gradientUnits="userSpaceOnUse">
<stop stop-color="#063C4F"/>
<stop offset="1" stop-color="#042936"/>
</linearGradient>
<linearGradient id="paint1_linear_1043_8215" x1="107.756" y1="-26.0939" x2="39.2228" y2="119.635" gradientUnits="userSpaceOnUse">
<stop stop-color="#063C4F"/>
<stop offset="1" stop-color="#042936"/>
</linearGradient>
<linearGradient id="paint2_linear_1043_8215" x1="108.223" y1="142.902" x2="168.826" y2="11.1872" gradientUnits="userSpaceOnUse">
<stop stop-color="#063C4F"/>
<stop offset="1" stop-color="#042936"/>
</linearGradient>
<linearGradient id="paint3_linear_1043_8215" x1="107.799" y1="-8.41665" x2="53.8366" y2="109.548" gradientUnits="userSpaceOnUse">
<stop stop-color="#063C4F"/>
<stop offset="1" stop-color="#042936"/>
</linearGradient>
<linearGradient id="paint4_linear_1043_8215" x1="15.9224" y1="66.1116" x2="196.043" y2="48.631" gradientUnits="userSpaceOnUse">
<stop stop-color="#00E599"/>
<stop offset="1" stop-color="#00AF92"/>
</linearGradient>
<clipPath id="clip0_1043_8215">
<rect width="216" height="138" fill="white"/>
</clipPath>
<clipPath id="clip1_1043_8215">
<rect width="128" height="128" fill="white" transform="matrix(0.866025 -0.5 0.868804 0.495155 -2.86377 62.8859)"/>
</clipPath>
</defs>
</svg>
